<mxfile host="65bd71144e">
    <diagram id="AFnqenjk1PQRE3g30xli" name="Page-1">
        <mxGraphModel dx="1277" dy="947" grid="0" gridSize="10" guides="1" tooltips="1" connect="0" arrows="1" fold="1" page="1" pageScale="1" pageWidth="1654" pageHeight="1169" background="none" math="0" shadow="0">
            <root>
                <mxCell id="0"/>
                <mxCell id="1" parent="0"/>
                <mxCell id="90" value="" style="ellipse;whiteSpace=wrap;html=1;" parent="1" vertex="1">
                    <mxGeometry x="351.31" y="120" width="160.46" height="110" as="geometry"/>
                </mxCell>
                <mxCell id="21" value="" style="endArrow=none;dashed=1;html=1;dashPattern=1 3;strokeWidth=2;" parent="1" edge="1">
                    <mxGeometry width="50" height="50" relative="1" as="geometry">
                        <mxPoint x="350" y="180" as="sourcePoint"/>
                        <mxPoint x="350" y="60" as="targetPoint"/>
                    </mxGeometry>
                </mxCell>
                <mxCell id="22" value="2D Plane (screen)" style="text;html=1;strokeColor=none;fillColor=none;align=center;verticalAlign=middle;whiteSpace=wrap;rounded=0;" parent="1" vertex="1">
                    <mxGeometry x="318.49" y="30" width="60" height="30" as="geometry"/>
                </mxCell>
                <mxCell id="23" value="" style="endArrow=classic;html=1;fillColor=#60a917;strokeColor=#2D7600;strokeWidth=6;" parent="1" edge="1">
                    <mxGeometry width="50" height="50" relative="1" as="geometry">
                        <mxPoint x="350" y="190" as="sourcePoint"/>
                        <mxPoint x="350" y="120" as="targetPoint"/>
                    </mxGeometry>
                </mxCell>
                <mxCell id="26" value="Viewer" style="shape=umlActor;verticalLabelPosition=bottom;verticalAlign=top;html=1;outlineConnect=0;" parent="1" vertex="1">
                    <mxGeometry x="120" y="110" width="30" height="60" as="geometry"/>
                </mxCell>
                <mxCell id="29" value="" style="shape=stencil(lVjbUlsxDPyavGpsyddnSv+DGULJlBImpLe/rzxnfIjlk015C8EbW9LuSvZO7t6fH972O3bv59Px+/734fH8vJMvO+bD6/P+dDjrp53c7+Tu6Xjafzsdf74+Ln+/PbSV7dOP46/2C38WnDC50lDs/i7fsFBavvm6AF4Or5eAQOIHgETiDACJYh4AIfef2AYUiuMOMVKQ64DgSHgApEDJAQATywDIQiUCQCDvBkBhyuhIkXIcANWRDxBQDCCS4DoYgHeOHIiamYq3WyS+DvCZUhqjrpRB5byQzGkCea3EYww59DNurtesjgdKibiCJPX/rkzKVEHZlBdhXO86ebcDpmKoHciBjHKn5aodTTE4j1gWib+RH0NTTiQg/yrNUTgaEafr6zV7o1l4/QVwfu8tIFMEv98YZwKgCvLPahVjgrAEgicnZj0SWfQUkjkP4nNylqCRKqhXqj19qyR7QNv5z5ZwKrkINihqK2NCfSEHFFO1YqMEGmlBimqhMHJIHAVkEh82daECZCtV+4WRWeyOvx11tTSK6kyI12qEozVqJVEhYrVKS+pNyN99b5IroFABhVDmuJHaShakfU8yUqk1QaBN7UemaQrUjq435/HQe31nwVoDrQqaEyiPVhELLHK2LIorTa7wrnfsFZCoovYXJhblbh/bgEK+WAAKWXPkvY05I1KIndaUp8iwFVDGDqhVgx1QKIz6V1ogGmkM2ewQexq2s1Rt0NrEA6pD7ElcAZkYKcHb0UgBAdRBLTHY9SiEVVgXEUDqUZ1TBCLWplRtDVDbnAxVi1zg+mLGKBU3oh2VSZpo+p1m2YjHnEphWu9uzJmjdzUpI2VmW2HdIaBZ2dkbQnMjJGW2k4jaHWoInwdoo60WcONalKqNAemmNclRaHrxguNj6NPNxbxcQQyZ7XQR8ICUU58MVgA2vDYhmXEEX091Bz+KQecXGHS1jbC1LlCHxNZS1QILspdsb8xKeAZpFbEzWIZZVSox2w3QhVkdz49yUPpC/Uw3bD2SIHY7Oy4I95nsWrM1fUcKNFWfrWsHoYovI/YdwuG+s9X/4Y3cWf00RaEsRXt/ydK76TZA7xMj94qDLqNZN/qpOgmjdwhvJ4xyg6xTt9JLv6Duk60HtPaJsxRMHRLsJ03AoweoBFED1cLlyWWQ4vzablY9BDwyZCtpPSSqgwJMk+a1lFcFNGnaoyZae4+9eC1Al6T5CvAx8P7neNtGFVTp6RGM1xv4NiD1F6/LHfALg7m3tRjQDtVSQwHIyFQPc+GQzaji0gRA5Pv8G+9tgH74eFJ+Ory8LC/Sl/+3T9D61fJ8Lff/AA==);lineShape=1;" parent="1" vertex="1">
                    <mxGeometry x="64.3951835083983" y="304.3155200584587" width="25.798425188296505" height="58.34694291198894" as="geometry"/>
                </mxCell>
                <mxCell id="30" value="" style="shape=stencil(rVjZbhpBEPwaXlsz03M+O85/WDIOKMRYGOf4+9SGDDC9bKFIeVsGir6ra3alD++bp7f1Krj342H/df1j+3zcrPTTKoTt62Z92B7xtNLHlT687A/rL4f9x+vz6fPb0/TL6enb/vv0Dz9POG0SdUIF9+vvSRaf/5x8PgF229drQBCNAyA6iW0ZEILUOgJg0y0DfBPnB0D2Mn0kFvJooXhRT2JI4soISJLTMiBmCaNLJUskWUpFfLQWQlkG5CwljIDQK3MTMP1fG7OU+8ltQO0OdEDKPdG3AUXqGHSMEkjh4HHJYy8F8cSlHG0dQux5u51WJz5YQCMWopcyxqD4C1LpUG1aI5qFAZKkNAKKKGkNdKuatFZJJGhfpc0AsRJAskHDJTbTXsWZmY5SmEtevJlpL5G0t3eihmZKH9olQBotqEphAC91LNxUaQaIdkRDkcCCLuJGl1D7QCwEEONYB3RrIhMXEGKzFhyZuJClmhhyr/1tQLMkgJNI2htJNCSAmW6ElxTU60YAnCQxwEI2E+coGcPjebc60nzISTKAO1lSuxRjpdyKSluXqmTWS3DAWCj9ZGlEq6EZrCw202C+sQ4Ra5JZwMSZwoF47sz02EuXvbrkkpEOU7OQxY6gTS+Bnv3/BATfc9IBYFumZuCxqXTr7Hx7ASVpY928NLbhUmfq/ntHGSAny8SOEvFFhpzbgpagqt3pE/eTgJuTYgJutI1a6qvmirgdSVGrs1GATdqo5xyepQ+vQiszgeipT7XaPqqJ8irUmI5KpmEJk/G8qLszABuUVC6Fvi/PhXC8l3TuE0rHpMxshcInKu19F5BngKOSEpRl6lCoCpgVGhJTSRm87W4oTEZhUAhG4dZOs0siI8/0Z2arB3rWMJh2ml26j/kxRZi3SFpVo71egfIyo7zUm+CaI9kVsdgYAGADikuoufwgBpal6K2GRuWZKsHuM3Jyai1249M+vlfaje1bAIz+nMTZHYCx0CizAjBfn0yVIOhoNrr2/l1Kq6E9NEsjHPPvbw/uA/BweVnxst3tTu86rr+3LzdwdHoxoo+/AQ==);lineShape=1;" parent="1" vertex="1">
                    <mxGeometry x="106.16883305631927" y="332.3534690883962" width="30.254487786094792" height="26.303573912600264" as="geometry"/>
                </mxCell>
                <mxCell id="31" value="" style="shape=stencil(nVZbUsMwDDxNfjWWZcvyN497MEOhGUrLlPK6PQ6ZQCWo0vDnOFrrsdLaHV08r2+eVl0Mz4f97mH11t8e1h1ddjH22/Vq3x/aqqOrji7udvvV/X73sr0dv59uBsth9bh7HU54H3GVQGhAxfAx7iBC5K+d6xGw6bcakKsCxAISHABDYAVIGSo6AAEsCsARYjoNwBAgBIWQAkEcFwVIFKC2rJ2YpE45fgOSm0QRm3XzWeppABOQzrpWyPk0IBWImoijOvyJIIRUrQt0AFiAdXM0MqvDRAE0SRMUJwe0TA91dpov2JQlAzs8J+Co7RHYi6eFq2luPKLjILKdhpJdDwmh6pBKAnIaKctE0ZmAQpBoSUjC03nHSTutWrOdnpmytjYr2sMMb00CjCrNNEaNIGlJ50kEMq3qtzYLZKMA/vDkCLxwPhkYrQtPAtr8VDOfvshgmIg9U8bir4h8nVwqxEvt0fbFzNVAE6dn3j0MSec7c7mxFbCZ27NA0vGIS3A7zfDVwvf4Lda+TYFTnnacEZdvefq7nAmSnprgq12CEo29NwE5W4H37TlP5Tsvniad9Ve+5KqE4IJ6ilh7n68mW1nX0++H/7zW5gBt8fM4vOs3m/FtefzfPibb1vgQpatP);lineShape=1;" parent="1" vertex="1">
                    <mxGeometry x="144.42407826503165" y="339.89815671710267" width="5.5963421678532335" height="21.627848744346416" as="geometry"/>
                </mxCell>
                <mxCell id="32" value="" style="shape=stencil(fZbdcgIhDIWfZm8zQAg/17Z9j85U606tdqz9e/tmZ0c0uJ47xP0I5JwEBl59bp8/1kNwn6fj4W39M76ctgM/DCGM++36OJ50NPDjwKvN4bh+PR6+9i/z74/n6ctp9H74nlb4nbmSKZeJCu5vngmZ6jzzNAO7cX8FVKEsBuBKrgKg9oAE8gkCbLeUhEoEQKSUDZDLeWYRKIl8MEDRmHwfyBrBG6Amyu4+kDxxMoB3jhwgYu7TVAsVkFcWCs4CTBEoF4RctKeOxHIf8IXYpikHikAIf+MNUW94AGSSaoAoFIE3AlOyeWU+p2E5S9yfQZcQILVuQOwZdJNoS9Ls3wA5u2XZTIHECqeJ9kDpSaauRiNVcAY1QhdBzeLBli5WazpkSsBLV25uRaqWRyFawTQzRRIQYirJzq5atkBqLfouwqUxLBepthWb10vrWZY6UOAeyKCCtDV625mm9gmUC4Wc3VLJMMIE1BsA2FW9JraVlQB7n3c9oMKhCLEvIM1zBPZ25/umNQ1tVEC2G+fFCC8g398O2hNQuQlVu752DBfA+q0ptnqO5JFmeuIuo9DY7KjY71UxdJV4EntifPWorW++R/dC4t7V3DlIB5cHx2bc7eb3yvX//QNFp+bHDT/+Aw==);lineShape=1;" parent="1" vertex="1">
                    <mxGeometry x="138.63108794780283" y="315.97256261667053" width="5.191710857906173" height="5.183595795952998" as="geometry"/>
                </mxCell>
                <mxCell id="33" value="" style="shape=stencil(lVfJctswDP0aXTEkSILkOU3/IzNxak9dO+M4Xf6+UDVSBSh6nd604BHbw8IhPbwdn14PA4e3++369fDj9Hw/DunTwHy6HA+3012fhvQ4pIeX6+3w5XZ9vzxP769Po+T49O36fTzh54QLlPMI4vBr+lAbRfnz5fMkfz5dVvKZYjTyIlTavnxk6skAcqNWAKATWw2pU437ABbK3QICBKRMxZrETBkAciJuBhAz1boPKEyhGgAOqnRKwcgHCmFfvlUK1oNCASShJ4rOgUQNONCFKtsQJaoJABqJ9VijnJFJncQSLxdiYFIMS0wWp4UStqlbJtVKKQOA/rZe9zAnZi9MWSxAw4QAmcQBhIQBgClap9WrCsqndQpOQ4epboXa/wGYGm9MAmFtYU7s2mkQJW1BufmwCiCT5lU2iUNkUkCzYW0Cw6omddtkWqKMohQ3LUC7EvBBz2uOraoTaRDqxQMYtDGNSUwegPKgUQ/Z+wD7TKFkuaRkKcgk8eRTOgqqaS1RSw0lfEQFJPO0WajB2Gn1wQHK3Ax3o7Sph4jaTPAzdGyGQMOYaath1Qz3yFS7V8GoRpWuzusKZ+JITlejGYZJS86bFOfdY7eoLV117HVk0qYLjAAUV02ErVHRZohqNPhunPFEGSvSjcUAi1qab666ChS0amTi4jVE4INuU8UmTtcb1Pq4+hWxdDh3dYMTq6EyXB5imQfOkjj1CgGyJ5+WSETLwzKWV9RoSMNm7o59BlRc1IEjHoDY2ii5JhBg95aZaOvz+7589jNU5RnsoDrV3flt3iQ+dpjKZoJmIK80tjzVHBdAu7CZPbqkY3lnT5i39h35Dy4+8Px/XZT04e8t6+V0Pk+XtPV/fyvTT9ONLj3+Bg==);lineShape=1;" parent="1" vertex="1">
                    <mxGeometry x="156.39181590150235" y="341.1990562110045" width="29.275514642940706" height="26.577884702642347" as="geometry"/>
                </mxCell>
                <mxCell id="34" value="" style="shape=stencil(lVfLbhsxDPyavRKSKFHUOU3/I0Cc2qhrB47Tx9+XW0POimsPmtt6zVlSQ3JITfzwtn163UwpvJ1Px++bX7vn83biL1NKu8N2c9qd7Wnix4kfXo6nzbfT8f3wfPn9+jRbzk8/jj/nL/y+4GIIFMIMS+HP5VWiGv+9+HoB7HeHBaBl0jzYN6rlvr02iqN9rBSAA00kOgaUqeb7gFqoxQHAdgS9D5BGoQyAHCkyACQqMgIaMQipKOU6AEqlkgBASMeQpFDBHhytNfVE3j5DJBk9VOlE32OpjLQqE1eQh+rzoEoKQtJCPNLahBJgSTPlNgIqMUhcbZ3EK0DxGSKFNAIaJVCtpZGyB1TgIVeKo4dFC95EcKZUvAsFLqyDywrAINWRKa1oEhCSsR59HgSx1ElfJLrA74sjtVAG9nYA1z4mUxlUUuJOyBXAJAKSUHplLgCoMLJ2SVkAImrQQFU8gEFIVqu1eUADmqFWZ+JZgg2a+yhY5EGR2JdVqQo1UKpqquRoVQpI7K0Zggc0wJJwnwWLZhAkxZFy9gDkgVdiPwMAS8lUbqUZBfWn9Im5OLQ2QCupS3SFRygrwbB5BAL6rH30+mJbQQa6vdpJbPQIYDT6UWWzraKU+cFjvYT5aWOV2nTOaIwQj/Y2/lErx+ABtmAE4CCWPveugAA7M7beh4slKYOU2dIlI0f2BuXM9kAn2la2As4wS6prAyjy85LmN1U0y3Pq8V4DwpP5OmM+7KHCr0a/KTggqNj3xdkzSJltbC5lgSKIR0wI1dmjvcJ6JKzs0fhIXlVCT+Bte/VdE7ps3L5ZsN8fAzUgcqZpToWuMnDbvvlZk+BA/vTV6D8A9vBxE3vZ7feXi9zyf39zs1eXWx8//gU=);lineShape=1;" parent="1" vertex="1">
                    <mxGeometry x="209.80174354193332" y="290.8480011885173" width="5.793280351757883" height="67.2195696817889" as="geometry"/>
                </mxCell>
                <mxCell id="35" value="" style="shape=stencil(rVbLbttADPwaXYld7oO75yT9jwBxaiGuHThOH39fqoIck7YmKJCbLHHMJTkzyyHdvW0fXzcDh7fT8fCy+TU+nbZDuh+Yx/12cxxP+jSkhyHdPR+Om+/Hw/v+af79+jhFTk8/Dj+nf/g942KiVicUhz/zm0Ch/XvxbY7fjfuLeC7Uu4lPJHU9PjP1ZuI7xb4eX4RYTHzMFGQd0ApJsYBGBVTQAyUL0JJbAYBM2QGEIgIIVbY9qtQiAHQqyQByo5YgwHW1RuoZABp1m0EyCWhrr5RtBm10R21lapYYU98CGJyOKVuAUgPU0JSqzQMEtFX6coAzoFIAg5NCxZLv45C3AUxiixahDuQgkZItuhbKYNIKcDUUJkYZ2E86dcglLbrZDCpReKRO1RbNDPXQMrHNoBJF5NOuN6dpzYn0kCjawXGmivRQfQ0pESN694U5Z4niDDGokbrJCSSTpsiWGxIWI1nzGQdoTAX5TF689ywItQ3kAsFXrUYSQAY1CXekiz58EaLq7OyVpY0o6E5JfhJaFzKO1LyXaWMF3Yr62Tq+2itymhh8DVUlgZzGi3TqAphc8ZOujEu+QdYI4qO/REtYRH4zXi9dd8MxJWBjV+JJeA3Q/3eeVBZrXjl/tv2PmNhXBhMj3mOubHthyG0VULDtUV2CcKVPjyYeS+Z/t7zP4/XhY6V8Hne7eSO9/O5XUH01r6/p4S8=);lineShape=1;" parent="1" vertex="1">
                    <mxGeometry x="206.98267953116988" y="340.77540750110256" width="20.078037151321773" height="7.110037206475176" as="geometry"/>
                </mxCell>
                <mxCell id="36" value="" style="shape=stencil(lVfLjtswDPyaXAlJlEzpvN3+xwKbbYKmySKbvv6+dA05IW0P2pvjcExSnCGpHT99HF7e97sUPm7Xy9f9z+Pr7bDjT7uUjufD/nq86dOOn3f89Ha57r9cL9/Pr9Pv95fRcnz6dvkxfuHXhGsDDW1EpfB7ehMLifx983kCnI7nB0Bl4sEAUqGctgHCJBbAmVrbBgwKiAaQK1UQUqkU2QD0E2kAgEahGIBkKhV6KNkA6kAJhJSFajUAPegITokLFZtDqyS8DUhM2XloJCCHSpy9fYsgZ2LxAVVQtkSVfcYVZBwpBGvP1EDCgYKLJ1AB3w+eFFqyVlA80Z6nMh1xgilaltYAz19llSzn9DwzqpfY+EVw/NEXQB0kVIDspS+NBsCIKBRcypEaSDmqbKz0a6GAAI2iA1RYBPUgjhWp130rh+xoV7ow1gGlH+IMmLW9DkiUbXNRoWUgnEZsiRdD6NpYb5DEyTtgwAzuVX3IANa562q214YNml3orXC2j51ZW0q2JagV1ix4JVRlLmjvidjyWmk6gO9nkoUOGOQrJDZ+FRrq7TFQjR6ACjwCFh4QYGy+zgNuFryYHgrIaKBFEjcydREAJMqLPaFI75jrgMEnrUO0oAGVKNi6sTY8ABiUNjZplUZAq0vpAczSVJ+AeUrk5LRMGTCvtj5Su33odVlvFbET/26PeKEjNYu3Bwm3RbMLffFZt59H/D3fAvLVFcL19wRnvjY2N5Sx8tXecUjXW6jMZS+CrWvcsWwCqlXBEUXrQCkkqGS1M2wG5D6ytmrwfxv8PwD04X5heDueTtN94/F/f8HQV9PlhJ//AA==);lineShape=1;" parent="1" vertex="1">
                    <mxGeometry x="257.80969801387346" y="341.7714472002093" width="31.321989332514654" height="27.21337520602876" as="geometry"/>
                </mxCell>
                <mxCell id="37" value="" style="shape=stencil(lVjZctswDPwav2JIghee0/Q/MhOn8TSNM07S4+8L1UNVgKRt8ybLWhHHYrnUgW9eH+9ejocUXt8u56/HH6f7t8cDfzqkdHp+PF5Ob3p14NsD3zycL8cvl/P78/3198vd9OR09e38fXrDzysuMxWeUCn8ut5JhXL5c+fzFfB0el4AUqcQDYAj5b4PiJVaMoAcSCIAFErBAEqgEEBImbJYgJCAkLhSqAZQC4W2D8iZus2hznc2ASVSdTl0EgYA8TnkDvtQK7ENiQv1ug9okZLrNFMCObROzeYQO0UQUmvUu12hEWMA2z5oZyLogwKiBeS5lXuAUmwfCjVADU262D4oNVCVeqJo56EJcQYAoWpX6HNnNgGSqHYPYJCDlDGQMyANdm0DGrVmATpSIAeZU5wBjQIAxDCP8EBIGEKyt4RjnzBcQnReLDe0DmhGpVK2ndNXwBXYl0kE1zV42VjUYZscOkLFL1EAOfpKLDWJiPjK4+9FmQQB4iokHlO4ByirVkc0ETpCVpl6wyswVdtq5WtBK5QhvouJKECZ+kr7NKuM6Bo3AEg3JHuh0ZACAuiEualWPqKQ+thmZ0CF1FCqdReSQLYqQFynNQdQ1ikkN0GZBI1cG/vBDGhY+/JKNoQiyiH6GZ2yQiF9FFDbqkphlGEbkKhbddVtDFGj6vucn9F9D1BjchuWS6VCT6bupdoB0o0XeQEFsAWoPUFbigKKZasaUQaN0xwcQI1jA1KpZU026TZi3LYC1Y/DP7S7eitdsbDKGN85gQanR0UpWeYlwSqWfBPUyCKf29jPp1Y5gHGrTOzcj64JtkTlmXOh6rgSAGT1JiudjICqrF1a+StU1hS9R5xcI2hcZOrNJ11BDs33Tc07PDKtutAHdTefX3krPTtU+P5q389CCZ01xuY6Px/GBrxbIBtQwrxLyXviKNAdcqNqexY1KSAvmqE7aigAbYY5Dn1bAJA7zMnLvALQKOgsegFL0PbkslqBoUSqRotVvKjbI8qhrfpQoe1RgDhAH4Z0D+DcZMLnAAWw41KEMq9Js1tBz7nocD+f/RdsRZ77w99M/gOgF38/0Tycnp6uX3iW//tPOnrr+jmIb38D);lineShape=1;" parent="1" vertex="1">
                    <mxGeometry x="377.7468408958903" y="344.4759725682386" width="32.102731443629736" height="31.588389373053914" as="geometry"/>
                </mxCell>
                <mxCell id="38" value="" style="shape=stencil(lVbZctswDPwavWIAggf4nKb/kZk4tadunHGcHn9fqLZkkbK3kzeJwoq4doFBH963T2+bIfD76Xj4vvm1ez5tB/0yhLB73W6Ou5M/Dfo46MPL4bj5djx8vD6f39+eRsvx6cfh5/iH32dcNSpxRAX+czmhWv8dfD3b73evS/tAnBt7yZTyfYApVW0AIVIK9wElUUwNQAsEZP/cAhJPJ7cBTLk0gBxhDClS5QZQjEIBACaTNqtCGbgUK3HrUo0UFQAiWRt0zWR2H6BGqbYALz24QZlqd0OlAlojhOl/C0AFQUuc/rcABAatQbVLUqEswKOVfSIFDjFpV7UAq8YUWv+tkgH/A1lnX0hgvNZyzbzqoGSe0NwBlAIAuEfJWkCgCJjgTWHcAzIIwdsurlyCTPCmaNvOXBBAY4/UkT6rFehFWsVQmQqIwW+onUYqJUROl8TuhkwCXIrcV9rJKYBrqlPWF9RBLoU5ibNuMxODqKVMXFlegejMKw1zlURRk9ZVlkDzuSDJqgygM+b4lnWGdP6cvfX+Z29FEK8kkm5QeQrAGAnaDyrF01mdzy3ANeQy32+XQIjbGMQmkbpNHuk1T4QEjUKj2jZehGMnC2lrr7Ap8mqICBmIeKxRO6UYamrR6fPVPoCZ45vBRXyu9ohmLumdfDEkjVm/WvC0Cdxe2HTqyUV+QD6dg1G6/KOZPG4Rbf69IKAfFrIz04Yi2jjnlp/1He5en95o/2vvD9f1+WW335+37+X3ft32o/Oqro9/AQ==);lineShape=1;" parent="1" vertex="1">
                    <mxGeometry x="412.775978936583" y="365.6517649289815" width="11.555208007064266" height="33.40669545845117" as="geometry"/>
                </mxCell>
                <mxCell id="39" value="" style="shape=stencil(7VjLbhsxDPwaXwmJFPU4p+l/BIjTGE3jwHFff1+qhrYR1xnD16A3e71jieTMkNJGbl4f7162Gw6vx8P+6/bn7v74uJFPG+bd8+P2sDvap43cbuTmYX/Yfjnsvz/fn76/3PU3+6dv+x/9H36dcDlRTB3F4ffypOW/Tz6fAE+757cAJuEJUJRqgIAiE6Ay1QgAtqU2AVokRgCmUGaAkjIAREphBmTK8j5AG5U5S61QBlnSQrHOgEpaAECouhgacQWAQCF6QAErJB1ZH4AY7D9A5VIkFb8E4oaUVV4bZQUAoVw9IIItSRhZfJNXAaXmSpx95QSkiTNVt6VMAthnAHWF0EHgs4BYqc0x1EoBsC/qyMkCCFTRCtHTtTApSGulPGs6C0ySUp4jMPpqAjmiNuc0CRRoJNHpfTFTAhlaeDzeZ6y2QDznJ5rYkHbG6sv7TIz2L1RmTugwwfO0zqM8432szFzX7yv4fyOYqtsPUk0X1bx/K0kGImjJ65KFIshobb7vWJIFhWAMzh7QgEFaW3IxW9ABkNSSWtmvANuIUKg+6ATsTk356tPakM7MjGbideqCOhjAeYu5DVRyI3FSsFaIsmTUnqkXsd3lRjq385ggoJjfOoBA9VQ5A6iYfDX7LSngUnd09kGjoccElJ1jLL3xvGOElYd1T0KSa74rGJlQG7E+FhyZmDIohI1dfoUEbammFV2XJ+dLXXyz7RpF3Ai+k9gKBY2rtgHnMzKKfx4QKEafJdQ7bdTjmX2mUTTfmkbzSqPIybT6kdvIhBSkK/u+BIiDzcuEQQ2EIM17axcQmgzFh2BJisBbbdBzhwDbkqBR0gCrmQFuKXpfSgw1bU06zuxWhocAm59lBvTDEwJkb8Yljifv1S3MQZdGCVFpZWQ1w2PGRzlbrU4Z/89WH/FsZTEkl1Z8d2AuUGcXuHA7ISbhuQ4X7j/6luagL9ywGMDNcDZzNbQCU5qzZKqF9p388aTLHJ1PCpXZZ3KE03qK3smsr6JJwBTE1QPQSJZWg+sFgLnAegW0pT58l2uCNidrV6XVfuarCmdEyK4OmBrXX+9dBtiHf7eJD7unp9Nl5Nvf/e2jPTrdXMrtHw==);lineShape=1;" parent="1" vertex="1">
                    <mxGeometry x="443.90258154623757" y="309.54417652969846" width="13.592755853102668" height="51.845378963514825" as="geometry"/>
                </mxCell>
                <mxCell id="40" value="" style="shape=stencil(lVjJbttADP0aX4kZctZzmv5HgDi1UTcOHKfL35eCOopJW6/wTZb5OFwel9FGHt53T2/bDYf38+n4fftr/3zebeTLhnn/utue9md92sjjRh5ejqftt9Px4/V5/v32NElOTz+OPycNv2ccN2phQnH4M78JFOYXX2f5w/71Qj4FqtnIM+W4Lp+ZUjTyhQrQnzt1MfKdSlqXL5W6tT8KSVkH1OwPiJVKXwc0oZSsx3oCcKEvERwACZQqACRqxQIaCTAphqsjsoYVpKF3amwANREjQKFoT2iZGMS1dcrdJk6oIkCgbr3ujSowqcZhwJK5gMlaIqXuj+gM2BepVgsoMHUpDn0LgAe/bgLkCtAaRRAmJVtsFrCU1G1yaOYswWshBiZViq5CNdOg5Jii9SBnCkC/5sjWj8bgXw9ZkS/Wfu1RAnIQqdkAcaYEIipULI2megb+ZqpOP8PSaRSil4+wmine1WBi9C1s8hhRQoYBlyFFJ2jpWoDmrKAcaFBtkCRTRAC+0fMSYJE6nSzttPYi6mCUbQNLDGu/kjj9AueCkr57eQH6hUL29jdA0yt/pUNah1Eki3yBZXM9pXB8VL8b/Ngetd/q18mPBrPGx/qrbzosSxdPLTNkTyWuXj6gqTy0Xcg3VGSRxPWJBGfyVAKu7hcbV4vMpThQBilTgFvuJI0o3wHAncX5kHSvQM2uDYuX6ZEotXWAxqTbPJc0mtNtHmUS2x1Lp4pW2kTZ+lCFMshDvpogOmFR6RcmsSOh6pBAXA1+1VEA6r/tatNRk9DQadUPHZ36DfRfXf+ypbcuS9CHZa+5aGAFNWD2Fa3kQ3cLJYLjktZDQC27UHNzsGCA5sE1JYY76uSiu450OJqV3i6seh1BCyQvy9wFIKF1LVG3TuuGiBrl1HfdCUuvXV1RHUCIUU3zaIwLQHd7dAKP3eDzVhhBSU+XUtspC5wlN4bzYMqavLtOCeTRpM7qj7AUJlpa+8OgyRqL3C07wJX83lv//+X14fMTw8v+cJi/UFz+7z9J6Kv5c4Y8/gU=);lineShape=1;" parent="1" vertex="1">
                    <mxGeometry x="438.1424763822829" y="339.14641581372223" width="40.09271901706294" height="25.628768037387694" as="geometry"/>
                </mxCell>
                <mxCell id="41" value="" style="shape=stencil(7VtLch03DDyNtiz+Qa6d5B6pih2r4tgux/ndPs2oOBo23/Szd3FKO1me1hAE0GiAnIf06re3P358/RD9b58/ffjl9Z+PP31++5C+e4jx8f3b158eP+Onh/T9Q3r15sOn1z9/+vD7+5+e/v3xx/Hk+OnXD3+Mv/DXEy4W5/NARf/302+yud7+/c0PT4B3j+9PgNBdKwugeOe9ABQX1zeU6Kp6Q3S5rYDsWroGdFf8+ry5GK6fr85oQbBJLCi7tFpcYUC/fj46W9dfq0v5+vniQl+fx3ri9fPmcliet+C6eL67uq7fvOtVOCA4X9cFmUsmPVYa71AQOxSys9UEuCyoIIJHNx83saehuZrWJWVXNKCvXrDokogiJEKxBdC8XFL0rq7b2qoLwg97IAGQRCKMSCUAIqMIQHFtXZIVlxWguroaXZvMTQRrLOyHrnYJ0b1mZ02uCT8AQOmM4GsilmJzgQBh+v4KUCMDsjK633hDUEb3bVsBEG9IfuMMLElwAAD7G5TRCSRgvK2mAYkASfoBgEI0g9BQRoctp6vc1vEGWpJNLr8NALGvjrMsSwMAVA2tz+p1G5CYW1t2UZAAAGmlygamEvkAANmAN3hldJkZfNjQdPC1GwUoi9DIgXkJns7ChgwiWzNu0L2oQBAtkQBB8hJES1j9kMGtwg9l83SOsybdBqCsr0anPvn8NgA2bAD5hs5FMXtnwujqOR+w0arsgiPSGhq5ySoKQF15qaR7b2A5CT4X0VoDRyt4qQjmA6BQYQ9aHgYuWYYlidCokVPUjiy/DSiuEMDL0IAgzFSBmvMCgAVwUdRENlJ+qw9KtLbI7D0cJzwN7RIpNA4VeBtw8NypcUjCho4aRwAvEwiAnhjgxZI6QsO+ElA9A5QyBqBvgCLyoUcmshJk8AFA7UwJsp0BIBv7QbF3PxLyTALKcXvHl6RIHDaQ0XmK6y/dpeKSCo2wBV+RMnR4mgB1ptTt8O7Tr+ceSLA3EogzTvetQ1mQSExTQV0ByHGgGUkCdXbyB6DIhgNGE1XChqKCz2+hUXQs3co4JX9GtK67hKJY1BsSC93UpJQGoK3bCo1WRGj0zBUITY6kmcw2oNlUfRwAtgLCMQi6DSisW48+7ep5cnSaTdTV89T2xXvPUz8TnOnn+xpH4H7lgspO9prz6ux1np9XBbrbVP2n5xUfGU9MvGSXfkj45+dlyLWp4J/3U9apxrOJqNffeP+j7PV65/YzSWIZz5M81zm5/f0Q55zy0oDVYcFmCF4BSKjCBCUjASAyRdOuxgwDsNqcTPZhw2nUMGRd1NosMCet0JWbsa1UQfzsaq4AeV1SNakKAeir46B1g44MHuwd9HoF2IdiahLY+9Zh1NmOXgGocQNAVfLhOJpLmH5DY3q5BzDmr7EkFa3GLQkAkjFsuum0rTI0jGNpOE7bQBwwQkMDIk0+oBOVp212v+deUpGAMWuMTk9nXE4MUAOlvnVJAFSdoqT/7Rj1XQGINUzPVkbGRd5WNQkM/ih+J8/JhNhfkXU97zyYQPTJFqNP5XuKb9kmNe7czDQxtS2DTI4CRzBtgwmv47sktkHKwm2Mhl2qOiH8NjCV4vkmQG1rvdGTFBV9dTu98nKiBGlI8T36W/WGwo7LRWdQYZ5BoVaN2FDba7SmO5OMMqdsJ7EhpUBhNoacUa3esGE1OgQtZ146gJcO4L/cAWzquckTtCGpVv+iZZa8stV+7KhsMYxrFJZ0h9+plKeiZx11O8QIeqRat021ebx0yVx0uQJdjwq7xGq79HujPFJItcjbCd1v+sVLHdkaM8udjmFM5kiDVXnF5fnM71TJlR9a4BNlLEmVHOvbJZQ700XP4gJl0ytA2gaeWfaGzfhArOgz65d5/tyll3n+NzHPN9pWk13PyIdtFq6oEhmXt4toSsKABMLquFplTQSp2NYbquNb83yIgYZBsUbdVJI1fbiamL3BhfKQO3AsDaYSRmPXfWKAqft6xspwtFXq7sBxV+1UgdREqWxaY5wxC6ocAGK+rO8OGOdDbvJqTKl84ygXOf8cC1hJANJBJRBoi0oWqFKFRu6Tq88pqq6VVG5JsK3qKkBO2/lWkyIUcooyDqGhHJcal93nLL8NMH5D69IPkIRkwzgtUoDIQ67TfOY2wjMx9SYrSty0PUp3VDfqGhNTA9/rO3txk2Qq5YbUpqT2swm/DfgmbjbqnuzlZuPcpf/9zcbA45sxRruT09vAVEkBeJqLXJcDnLgNBJpWicgHOvpppq8316kUDpoJUlbGwn0ZuFJmXJqq8wCYPNQYI4DKADkbt8kRByDJg5lQNzljUgqEwuHdouSlkLnNGrfHhKcB4EO+LhvqsPXHNcv+GEbTLlUdreOrlG0ooM5ZQtxOBatuUaYkPHbVS3V/HEec0ke102k77KrSAM/jw3FpVz5PRzI16c92uDKM20mKVed09CTe1L3mst0s1XdXt9I2pg0qqgN/njH0pTI4c+8Dgas69dCZLPIdAZBZMeQ71TZzGmR9the3S8pZX44FgGYBAKgbwbFsS4pyRgnS5i/SojwyBYCvQac54bgEbNego5J6lekIvY8SMQDQ6UrWp40j+2lJVap6ACidxxV4DSAOBkCdl3z1l4FfAMAPzx8ivnl89+7pO8bz//OHi/jV00eP6ft/AA==);lineShape=1;" parent="1" vertex="1">
                    <mxGeometry x="504.97080865074463" y="328.5217084877115" width="138.4289915978406" height="60.91957057611959" as="geometry"/>
                </mxCell>
                <mxCell id="42" value="" style="shape=stencil(lVfZbhsxDPyafSVEURef0/Q/AsSpjbp24Dg9/r7cLuRY9HrQvG0UjXnNjKRJHt62T6+bKYa38+n4ffNr93zeTvJlinF32G5Ou7N9TfI4ycPL8bT5djq+H56Xv1+f5p3z14/jz/kXfi+4nKi2GRXDn2WFC6n8W/m6APa7wxUgBUoyACJTqvcBUYnjCKiUCwBEKnUASKEaICCOEXIgQSll4rGGYgAQQYTy2KVSKYIIqVAbU6pCpd0HWAKNR0ClACK0QMXVoDCllkjU11BBSq1RKh6Q9D5AI6Wx6NL6yjogU8tj0QFHsN8Lvq2IfKpU9aatgHwGaOOkrdENRWierdbozABQ+pgugEoFkM/aqmkEaCfL+uCUwkgNDaQIkHwEA1Qwh8bE7FNKoK3WdV8DnkPNVEfyNaGWACD5SdvgGBiZReAxpVpIEMBcaBxcjTgl7US4ondAcxAKzmYacQaASjzqYZYoACj7og2gwAT0pq1mMwVJtHo9WJcSord2BV8AuZvnKoCDddG5gGIFmTM6ugoJapP11blAoYJsI/kTxQTBqE2fBZiCshN1hYdcSRTGyV01bhUxn5ouROuUXz8WTRFjX62sBBQRTcNOpA0eWiz+aDdVJ8DX7AVRmTIIELzishkPqOCGein3DNcLoDqecJL6/Wl9zCSj7dnlBk2Z1fOImRQw1eKLuyxB10uN8lhBgE5vJKp+PySddEu82g+kafNx0gxQ+9mkPHaUqYCB5eYvYgLzKZd0L4yAh/N80XOW3RfW9zMFpwBStD/0u/KH7KHDZ/WXMI7wBWAdymNGnKgAzeTiS+ZMCrzu04+S/wDYx8cb6GW33y9PqOv/+zeTLS3vLXn8Cw==);lineShape=1;" parent="1" vertex="1">
                    <mxGeometry x="688.427780027673" y="360.35106813126094" width="26.055323471788242" height="27.916532906155503" as="geometry"/>
                </mxCell>
                <mxCell id="43" value="" style="shape=stencil(lVjLbhsxDPwaXwlRb53T9j8CxGmMpnHgpK+/L1VD2yW1O0Zujq0JRXJIDnUId29P96/Hg3dv75fzt+Ov08P70yF8Onh/enk6Xk7v8ukQPh/C3eP5cvx6Of94ebj+/XrfT/ZP388/+3/4fcUVaq6DvPtz/cJTif+++HI9/nx6WR1nR7Gp841CA+cjeX3eO/LIQCbOGpCpIgtl/DwAIRInAGhUWAEiUwYWPFMKGtDIAws+kNc+pIwtRCoakANFZCGPCyyARi4AQBtRH4CSoAUJoiFGYSoFACpVHdacKfl9QPSU9ZWyUIMBQKihM50k0+BKUa6kwyqJY3ClxNSqBniqwIJcIBjySUFlAEjEOqyBh1d7AKfDKmRB5JMrNa8AXMkDakjUDfmEvwVYkLxagKNcISDosPa2A8KaE2VnwxpAWHOkqp2W3KM8CCDrmpZAR0ANAaSi2epHKvcARVvIlRKgd54yXcQmspAH+weghmFzGzC1yipRAoASyOlMV2mVIHGl2XoomRygRnNUTRPArbJ5ippLEjfE1iYl6iwgAqebhDVMFgCXWpm6t1QISFxbevWKGgyGogCq8aFBerNz5Kb23bAJU3KSfDR3W7XtWyZKQoAy2tCKGxVxI435sQAKZVCjLQxyrgAFAdgWhABQNxa6hmx9cKAg6jx34yDwNkDCaix4Sh8DOJiH2ibtUDFdxWnT+gocoxJWox2kIByyEEbNr2sUhLVTY6pRFKVOvmSvFJAPEtZknc6gffcCMvqnQQvbNeqR11MbKIvS3G00poLS6Oi7rczQNcOh1QHpI4Ca7RytkjnQmMrS6ZaNg6FylZgUPSGko0ekBeRK2sIqNdsaq1Fka8IjwDIQFq8ll0jFTTqxupH8Pdln4iqp9kjrxjFy1isEulKwe5MooAAyJ4CofUi4qgVgdj9RcUgBdYB2WvQ6VNNh0utMAYiB7rTZX8PI/V5Yqy4ITmNQbrOPbeKYsU4sdvCKwGfE70JJX+nGCiGA6KcoYYFv9ibR62hZ7GpaXylK3JB05Wlpb0PBb+ehWj3TSwovWqam+2KELPBYetbSFUQplrHertp3BvSO08ODNAFUQCHZAqrLNrj9LFDIaS5JN77xFsJsr4TaTH+eMSOIoQDiPNT5erSjF6M02taSabzVsDQB7UNPJfKBbSMTtkIBZF0IeWRye2TZqesb1BrJllt/cQJE8vZphpdvNs87+2i3rEQ7x806k+BmPMmeCJ+unK0aTw0w1Nnu6IcG2s4teR1KvhFJp4+70b23C9K66mCnDjavWIbE8Yiy+u9oWlpV7qCOypaUDNM0zQyGFPvgu/PN4/Lh/xP34+n5+fpCvv7dPonLV9fn9PD5Lw==);lineShape=1;" parent="1" vertex="1">
                    <mxGeometry x="53.43668244992284" y="466.3170986626758" width="54.40749882863265" height="50.42919318848337" as="geometry"/>
                </mxCell>
                <mxCell id="44" value="" style="shape=stencil(rVfLbhsxDPyavQ4kknqd0/Q/AsSpjbp24Lht8vfldiHXlL0sCvS21nKWHIoc0hM/vG2fXjcThbfz6fh183P3fN5O/Gki2h22m9PurE8TP0788HI8bb6cjt8Pz8vv16fZcn76dvwxf+F9wQlSmkEUPpaDgBB+H3xezPe7w5U5MQIZe0bO6/YSkIKxryjO91NEbMY+RqS4DsiEVCwgIzoRFYbYiCgit3VAJTQbknJIDocWwNHmKLkeYrgk/ZKlCKqOi4YiFlDAPiBYQCNUj0QZWbeM5uRVXxfLQX0KO4DUKV4BWnIAjGbz2iqkOABCscWqPqM4gIjKFnC5yzUAW0AViHPVCiCb1lL9m45jWguBPQ7aEDakXHwP2sG2g7KeePeQEAYPmjcvSxkiI8CtpYIyhCQIXlorah1Jux4asg1JdSF6HtrYD6WBPNIN1XKoqSvPGoCHalUx9DzU3vJX5V280iiIVuznvHke9HvZimvw50MT8OCiIfrVF250xpUNQhhY64lXrhFiQ6rZ12/tUcu6hs7q/wBqRbS1UWJndR+gI8rWhs49L63lRgWSuANi7kgLkNrF8P6kDigDQHoTrq0C0XIQ9enIN+mEGnaN5naQjGKs9l4D8XhtrPOEnIBA9tY4dxW5P9fHTYO5a8Jde83osDeE7nHFnixfyn3Kr9iHm81HfHv7fV2tipOfm70nUq/zFfth2la3kXURtNclyN6qCrHm1FfXlWIQKyuhy8ZKrf3T3vxXc334s6K/7Pb7ZcO/fj+u9Hq0/B3gx18=);lineShape=1;" parent="1" vertex="1">
                    <mxGeometry x="120.32146592786955" y="488.7570998344679" width="45.34688372808179" height="10.334459283933736" as="geometry"/>
                </mxCell>
                <mxCell id="45" value="" style="shape=stencil(rVfZbttADPwavRJc7sHd5xz/ESBOLdS1A8fp8felKqxi0hKDAnlTNpw9ZoaHh3j3tn963Q2Eb5fz6fvu1/h82Q/xfiAaj/vdebzI1xAfhnj3cjrvvp1P78fn+e/Xpyly+vpx+jnt8HvGJah5AhH+mRcQEP8tPM7hh/F4FR4YUlDxBVrZjo8BKKp42SG2bUBCaKwAFCE4N8oESAoQEQJvA0rsF1gADMUBcAGsCpBqZ20VUBkyKkAWltI2oMkJ+kq59VetA0QG/eiCUKIDqJD1CSUBBQfQIGljFFlxdBBA00pzhuKwNAGKAlSC6J+QDaBCccwnj2b9hpYAPQB3EhcAfyZc1Okgl6zVASTLkgDYe3RcuZKrA1mWZAvyvBSgai+Jf4sPSDofaoDg0Rqg6HzgBNlzK0FI2ny1G36LJdRVQ7I8OTktOpABIJBHa+6cLClaoXn2lpS/yenqu9WUykJdma18IE1rYZ/WZpVmYckpxgGXbrBIjb1UbR3BWrlafDO1npGLXam3mC2a0CREgernKJsTmu+NbBvEFQ9fhBBWonlF7l1mvQkl+wrZgh1ixTykAcyu2Fk6r8lSaaSOElHsZPxHXf11ANq0ztmtx0G8o8trYrdrJWvXRL0Vr8aTbUEpuNMJ2f2Fg+CIIHXRjBq5c7Yaj7Z2y/xUHEax191lWJJccKx9k85yQ3Zch330Wnxd3I6LkPR9QnDfGwC1IdiV66ZTxV5jN9Qy7X9pXOv27FR8jMLBqab/OTl/Gi4fH0P6y3g4zDP+9f/tUC9L8w+C+PAX);lineShape=1;" parent="1" vertex="1">
                    <mxGeometry x="131.12929769871482" y="503.13732779517363" width="42.25151599144788" height="8.765791819977645" as="geometry"/>
                </mxCell>
                <mxCell id="46" value="" style="shape=stencil(lVjLbttADPwaXwnucl88p+l/BIhTG3XtwHH6+PtSNdbWUtEUuckSx1xyyCGljTy87Z5et5vIb5fz6fv21/75stvIl02M++Nue95f7Gojjxt5eDmdt9/Op/fj8/X369NkOV39OP2c/uH3FaeVNEyoyH+ud4S4/bvx9Wp/2B9n9k2o5MG+UON1+6JUZbAPkUIEAKaaRkChnNcBmSnFARADlbIOEKVWRkAlSQDA/fEtR0IprANi7Ce+AZRU1wHBDlAHQCo9zx8DErUxrdl4A0EbgMcsZYUxhEwyZqlkisjDopIqk4IYjCZHXC0UQJZiJh15aAzTKoFiGwGJFBSfWDHrCGjEIIbUKIxBa6CGyttKY/SgxkwFDcfUxhhUSFGHpt6QM0AFTFuIugTIOkCjb9EpBlAaasSJB6DyVkurA2RKoEVVu6jcAIUEe6gurZUiqCV7HMaeng6JPKTeXzNAQwBj2qVVSRBxVq3BAxKIoRlxeeEBEFe1D4NZDAp4uHfwDBBBedfklc8SnUDxVen9NWM6gwlkHoor70wZNJDFUBbVWnGWSvOAAGKwIZocDwI9tEo5eUBB1RooRw9Aymcn1upjQDwYTXnRogGJQFuIQCHGPc3JA5Dy2ZHcUJzuIEDuIc6qtaAjRWJX3gpHlgECfwZQkheBwEwM6tv2n7IQpgoAUhfCZFoJasPmLjtApAQ8BJMhN3exMNl2UsZlo+Vejx8DmILzEGDQFuHI9NTlwIH4HNWAtx8/HWxbSiCnN05n6xjigHt0N/vYB9jK+V1+bKFkNBoWK65CCbOlnEe9kAiF3opIxgxFTLFYAkcPU9JACCn7yTBtyQCQc98e772Gh9WC5UQR6XzuC3C35z6L1mTebcT25oHs1Z+Hu9ysTQX29kharM1dgrgrwdoQcbsqw3e9aXL7/xc0c2wZF59PZL/YCgOO115WXUHAJp5J8x3Q0AxUvzlHSPA0AsXZV5TQT77N/9/eLu6fDl72h8P1y8P8uf/UYLeunynk8S8=);lineShape=1;" parent="1" vertex="1">
                    <mxGeometry x="244.90540644648286" y="430.47396344957315" width="20.40820580262486" height="89.00660270175207" as="geometry"/>
                </mxCell>
                <mxCell id="47" value="" style="shape=stencil(lVbLctswDPwaXTEkQBLgOU3/IzNxak1dO+M4ffx9oWqUmrAFhTeK4hKvxYIDPbztn153A4a3y/n0ffdrfL7sB/oyII7H/e48XnQ10ONADy+n8+7b+fR+fJ6/X5+mk9Pqx+nndMPvGRdDgBAmGIY/81aGGP9tfJ0Bh/F4BagFmJrzFEDIASSg0hoIvgWEkhpAqRA8CxFSG4IkYHEAGRI2AN0hzwJBaF3SNAiuA6RAbIOusuzcBbC6VFtABQzrgIIQswVIWgckhtzGcFX7uwgiiDc+FV4HYIASbNRS1wExQpAWwMBOENlSQ+vgFS6BmCQlv24Lbz7O08Le+wHwwswPALrkniwYQFyyfD8C7QbDpADsWMgMlHsAHAGlxyVBqNITtN6H2JNWbUdLbr9uk8gYgE8MEaixh3lcgUwz+NwuqhCmGfzuyQipjWGzQXnp+E9qgPZDvvHJU5lINxZ8HStQi62DVzh1yFDJV+Le82IVaWM0sB1WG7PnRpA2hhsBcnN+Y3p2TudoKaT1c6LNVowQ2ClWRJv9COywR3+b7GuwTgcQ2uwEIOf+RFaI/H7Jxaq1f76wzY/vDwuk2BGvMCTqyKeqnMmPXy/t1dxDh+7H4CcAuvj/9nwZD4f56Xr9375VdWt+59LjXw==);lineShape=1;" parent="1" vertex="1">
                    <mxGeometry x="286.7336016367801" y="463.1913065286494" width="3.643921400918973" height="35.37056763378725" as="geometry"/>
                </mxCell>
                <mxCell id="48" value="" style="shape=stencil(lVddb9swDPw1fiVESqKk5677HwWaLsGypkjTffz70TCUhbJzQ99cl6eQvONRnuLD+/7pbTdJeL+cT993vw7Pl/0Uv0wih9f97ny42NMUH6f48HI6776dTx+vz8vfb09z5Pz04/RzPuH3gkuBqswoCX+WN4F4efF1iT8eXm/ilakmFy+U9X58LRTUxXOgku4DOAQKwf9CoQYQrfUDOyBl4gIASsIOYFU1UHStlIsDlEI53AcUJa0OYEe0CNs6FG1JZpDSzFsb+npt3CYiUlqlVEFbw0h0zaSghBVtVTr120RT8OcX6zKj/KsXUskUkfKIs48XSDJbgwaSub/ZBjSSFYBBRyV1DdwAWgWAtqo5dtq3exQpD0VflbgNME79KFTjMUPA4Bc1kiJAIvY1mCUw4tmE51NqAQpJtDvWFSDEoEsm1exHoUUS0CVOVHQFADW0ftxNRmg27fyBBfM0JD3KXkhVqQASrIFeqUaagJYGSt5cSiMF+cjowCa7CCZBRwJM14qWApN6im1yKjAjLhRXALTXzF44jICMSq4U41gDmv4oowGbgaGmfhqQ4qpLBcoiF0pDDQHqQlMf3Q7IlRQIW211e0OyJBP6BRO+l55t/wpmMytVT5z5MiJu7WCzWICWjIdh+7P2eb1n2+qL5tyZ2QYUEj8/5jhwk+RxV7HAgTOHSUNKARZtABkshgSVkMbrgvb9e8+0xbOQ8Pk2bl55+N5pW6T54WGobFtTwcdbf9CmXY0Ovn199p79/3h7+Hepfzkcj8s3we3/x48Ae7V8QMTHvw==);lineShape=1;" parent="1" vertex="1">
                    <mxGeometry x="285.44903679179015" y="483.88542937863895" width="17.385170459738852" height="28.060329710780252" as="geometry"/>
                </mxCell>
                <mxCell id="49" value="" style="shape=stencil(lVfLctswDPwaXTEkSPBxTtP/yEyc2lPXzjhO2/x9oMpUBSraTG60hBVeiwU9hLuX/cPzbmD3cr2cf+7+HB6v+yF8G5gPp/3ucrjqaQj3Q7h7Ol92Py7n19Pj9Pv5YbQcT7/Ov8cv/J1wTMGPIHZv04NYiN2/J98n++PhtLD3noQNICSqaRvAmWowgNFn3AbESL4YgGdydRsgkdh6yCQgoiQUq42Iqmzb50TFGXtHHtiXTIk7ewdKWrXi1l6LjBwo4BbvDIgkyEPtm+YrVQ8BxfaA5yJ8TAs35zjzIlLM2EWyzMNtVsDtewuq3qLcKlOXhDLFMwR4W1fJxCiHTCH1gIpySCRdSIkYNUKo2rIK4xyEgiV3TJhMQt4qQCiYG0LO9iEoXVGVNCSbAwfKQAEUkG1ZfaaI+J3a64VkILpq43znwVFEIeUmcguA4BnN3cgF8shDpSB90p/MaO5kLLbebwGqBWjj4ADVXrpDpYRDShag5MtAihXgV/QWPNPRslUHKCLASoylkAuQS8XmoDPtkIevAsb90FWJ4cLSBdT1IQYoArrh0koEIl6hnbaKb8KztaTF90kLoAavGpcqvmgwcTSAorIAAKEVvdmPGwbIElO0RV3ssI8j6udNyZhAF3xT9tleqAB71ytGVY9AYly7Rs0FSpSAwri2Xmd7RwW0bLXRc4SzqfZWIlOhAPNl27DEUL9cy25BOaSovs3IQlsQIfxqaGqb7A0Cfe3q/Lm9Hv7f058Ox+N0zV++7+/1+mj6TxDu3wE=);lineShape=1;" parent="1" vertex="1">
                    <mxGeometry x="328.58372004999296" y="491.14638412220415" width="64.91592043270606" height="6.706064373484726" as="geometry"/>
                </mxCell>
                <mxCell id="50" value="" style="shape=stencil(lVfZbhsxDPyafSVEHZT0nKb/ESBObdSNA8fp8fflYiHbpL0T5G0PjsRjOKKm9PC+fXrbTDG8n46Hn5s/u+fTdkrfphh3r9vNcXfSpyk9Tunh5XDc/DgePl6fl/e3p9lyfvp1+D2v8HfBRaHeZ1QM/5YvnCgvX74vgP3u9RoQqVUD0C+5rgO4Uy4GkCLFDHYI1O0OWcYS9wGJWjKAUilHAGgkFiBCTdYBSWNoBlCFCq8DChPbGGqlCFwSpiIWEKkDl2qgmm0MEQatHge2WYoUAgS4SiehCqhRE4l1ifMo5Rog2rSy5i0BQCa2MVRKDcdsuacLoJAbNefQCOmufYuUorEPFAFTm4yMX+wD8L91Ki6jxIAUPVJxJaME/OmZqrXHndYLdZt/DqMiawDHIZUXRAn1SGzFuJKgHbQEVsA0p4Jq0CnZGFTAKipCoWpd0qxWEIOyIlQPQGqhtBPxLgUQQy03PFWmoObPFCxRWSiiTtDWdIX7RF40JzatGhTaoFC0dSvEaP06FPqcI0jtdlaSS6sVVOU8SHDVmsD/1iizsxdEbPbiGCEntBG4uPwkIEXaaY5DqmW4lb9mfyNFCihAizgEL3Y5Q0SvVCwlRGsGaqA5zRYw0xacUNrKbAFKEyR4yjq2Uat8VACQ4meRLqMx1iYFF/RV4u4PI7qFRXStBJqP2JeuK1dBmlTUi1ULzQOKOvmJTWcRFDSP1j1zW89NYH/DpFSpg2bg8ffMVT24UJm9VujggkZUHVOKmzgpg5KpdooVlzSqft8+j3RcxAIdsyrmwc8JAfVm83MRbjT9fSOmGaw/uyvOHtVLx7LgCjAGjfv2ZcwEV3MOODx0rPE3BAroklPH2XWZM1H+9Xe39n0cn6vru6ZXHQKD79evaZ8D9OFyK3zZ7ffLpfL6v79F6qflBpoe/wM=);lineShape=1;" parent="1" vertex="1">
                    <mxGeometry x="417.28880441682077" y="481.0922225342292" width="28.502289918927644" height="27.25739841694816" as="geometry"/>
                </mxCell>
                <mxCell id="51" value="" style="shape=stencil(lVZJchsxDHzNXLsIguvZcf7hKsuRKorlkpXt94EymYlAS534RlHsAdCNbdK71+3Dy2aK4fV0PHzefN89nraTfphi3D1vN8fdyU6T3k9693Q4bj4dD1+fH+ffLw/nl+fTl8O38xd+zLiuyPGMiuHnfJMUVX7ffJwB+93zBaA0lOIAJaKX24CckasD1IyqtwHmQE4O0DI6cSkKugdICAiBINCat1CR8+3369eW9xaUEI8kQz2roojEIWmo3QE6KgsgIvv3DY1wGssbhwJKJ4CO7CmymEK9DdCI4EUwWf6k1nWAIqkHdChJJAMUH4NWVO7SEEPKi/DXAQHJW8iR01oXj1dARWO0WnF5lkpAJhako8cRkIgFMaVldKmS3D5nZhuDLkQ4EUgeaaWAMAJMOBpDgHqXLDUCAwiaD9qSLxKlJUF9RdsNE07qm3oIy82tpjRUnFUoISmuHeWiA7Dvt7GtmpBKdFZzyNeb5ZawalCI58i6SGEWdGkpq84JnRWoIvjysd4fGcBU9ZmU/9HGGtJQoAWJxHAdkN6TSVlp3zMSq4wxsL6X2mhBCxphqVg1eJYsuZQobfO1DbmETMZba4tKy/uwpMrV9z2gluE9G8+2lMhQbIiE0p6RBoZQCEG9IvpEtQvShHtbFpbVH0EhhPY+LknWltmoulhYVs0i3RjMxDBJLAhWnRZE93ln87ExC3WZTBdtWxmtedlZ1nIWujO8e/n8D4Ad/u66T7v9fl6VL/8fd2O7mvdqvf8F);lineShape=1;" parent="1" vertex="1">
                    <mxGeometry x="415.1261704859721" y="480.4814342630582" width="22.404251665915986" height="10.158037824472785" as="geometry"/>
                </mxCell>
                <mxCell id="52" value="" style="shape=stencil(lVbLbttADPwaXYnlcp/nNP2PAHFqo64dOE7b/H2oCnJNSpqit7XM2SU5w8cgD2/7p9fdEMPb9XL+vvt1eL7uB/kyxHg47XeXw1VPgzwO8vByvuy+Xc7vp+fp9+vTaDmefpx/jjf8nnBZqMYRFcPH9KURpz8fvk72x8Pp3r5Q6saeK3HeBpRMMRiABMpxG1CFigUkpl4AoFO0IeREGQBapmQBpVCUbQCHQMH61CplgOjqUzOAznMe1gGZgvWppzkP60FUKtUCKkkDaWo+htFJxFz1Lt3lYV0cmVr1T+S6DUiZavJB9L4NkGXUSiYgQiJltoBIDFxSdTYLaA1SrS9UsYBEnQFAibAl1JgKYC4VEuuSSp4BQIs0Zwu45W2L6soeICAGFVNxL+C+oUmMLq2qJVCkyqvYCmqRGpCGSi05HjRvoNEooLvW16H4evHS6AJbWQ++0fQbM+tZ4gWgzRWyzkOgannQqBqSRp/FfA8AL6RGXbxLBdRDUl6rDxo1JhFqxacViU9LtNsXlLgKtLQOAPUQ1YGFvAVkiRe9UucecolVObYJ5Ai1xOzbd4oUAA/Z0xA7HKMqPcsCa98DIS9GYp83gw3zaOPVBoMYIHYznQQGK/Z2gc5oJqzveMNgnTHWXocE8Eavy9XZM7hfd66QnT2as5IoeXsBbSUt+hATg/ToWHbijJTQgOrz/LppkxixpdfZsV/mBKzb/++S+k97PfzdiF8Ox+O0UN//7zdo/TRt3/L4CQ==);lineShape=1;" parent="1" vertex="1">
                    <mxGeometry x="445.23766948589196" y="486.5661429936565" width="9.043860889003858" height="27.605520805530354" as="geometry"/>
                </mxCell>
                <mxCell id="53" value="" style="shape=stencil(rVjZbhsxDPwavxKUqPM5Tf8jQJzGaBoHjtPj78utsZsl5Z20QN82CsfiMRxR2snN6+Pdy34X+fV8On7d/zjcnx938mkX4+H5cX86nPVrJ7c7uXk4nvZfTse35/vL3y93k+X09e34ffqFnxdcJikTKPKvywJT6n8WPl/Mnw7PK/PA1JuxF0oF2BfiauwLhbhtHyOFbOw7JWTfKbKxDzKvXAVIpWQdCrqStwGpUAkGoD6mtg3ImboNITZisEPJFK1LkiCgCrVuAIlJwjagBYrRArQMCFBJbAw5UAUu9eh5lCt0qSsxLJFKxDs0Eht0wWntnYoNukbqFXGbiS2Z6sKWrS2aGIBmGrWDAhy9W6YgMOqQLKBRAvzWvIqla1eXEgAkH7SuQG40aq5FK1XQEC1SsaWeSgNEpmoMNq2r0lxHMGX2PjWQV+VOt3ztMnfhdYBWzjapUj6jHbpvUi1EAzvUQCweIKBySmcnZQpgIJZVS+2CVjlHgEwlDTsAfmu/jDEg/a5t5toK0AGZFFCTr0NBLrU566tKow5SQHJ0TfDM0qDdCaEAJGUTv10d9AgALaeF8y2XoTDpCRHTAEBpVXkPg0toB56TuAoadlwf2JooYoAXJqEM6jABBmpU3NOFPYBRlniodJiFZyutXmYCBQRYQvz7Fg0jAMVQhqB1OkAAVfdByJDeawPl5tP6gQg0B5D5nPxPgDoEnakBbZ3OrKHjBBROJybfcUo+EHTrg7YyHjYCFdtAuic6UDQn7IYNbVHg0qRzNks6zggasZKPQROdMcBp67tSbcXgxhk9uZEITP1l+6EITGtbPF4m1wZdmqhh65Aj5NLUcRaQKkyr6pIbdVOYE30dwL4fJFMGB4pO8242jsu0fP0WFH0dYpoHouv3LG1I61Lo8EDR3ytWKkOGYqz3NndtCspWNN8HP/7oBQKMocVfLTMcx5iqHX0ivADpjc1VYB6dNszddWk5sLfM3bUYpoZ944f5KN3y3WaeodQpO9mZoxt3GJ8k0JwQ55n33RzRJvoy4ZuF+KlFzUHek2c9Q4oterwKFcyy//hY86G5fry/Cz0cnp4uz0rr//t3JF26vEHJ7W8=);lineShape=1;" parent="1" vertex="1">
                    <mxGeometry x="436.2454716931809" y="429.58719460878706" width="53.981413946485695" height="116.7615592737516" as="geometry"/>
                </mxCell>
                <mxCell id="54" value="" style="shape=stencil(rVfZbttADPwavRK73Ps5Tf8jQJzaqGsHjnv9fblV1zUpaYICfZOlHfMacrhTeHjbP73uJnZv18v58+774fm6n8KHiflw2u8uh6s8TeFxCg8v58vu0+X89fQ8/3596if705fzt/4PP2acb+RqR7H7Ob/J1NzvFx/n88fD6f58pRrVeQ7k0jaAHXmvAMFTRQD5HBQgOgoeACKFogGNcgGAQknHkBqFtg0Qj512KVeKGQDEgaYA1VMBLqVITWepRHJxG5A9eR1DjpSBS7lQ0IUWmwwAJVDSgOipgSyVRs1Qg4nrNkBy4nXhhCwOkK+GQYQBEDr6AAB5fL4BMlXkkhAhWkAAWWpM2VtABoVryabVF8rApVaoZQ1oo5TrgEZRW5CWSqDjvLul/a6p2zsmkgZkiqByPQhjoVJCeZU0aUBwxCivTIntnEH8llJzsoA/f7FFJhetSyhLQlfW7ONGBfFbGkLHIKOqApd6yxlAGrNtC1BM4WR8g6aujrIBOCooS1KHRY/CoNOiRwsxslBt4aTlIuB383bedwAiXxwtfO8SslAWLtWR6K0GMrLb0wrqIIC2KJxHMSwrncao+k8AtooSZbiiSmeritlRRJV2drgWTxlYEM2qWlE6HUEdcrIWJCrkUgo2BslbAC7J8pIMNRxWORkSWTeEDMOGNybDjS5jQBa7pumxIZMHKbXnwbVbIRhaEPabrZLhSpbG19tyIqsD2sjG1xv1eKxo6ykib9SEx8K1HjDFxZYbwfmFgBZICpEyzTqZ2iBakRmdnTBWgo1g2YgC1LVgpdlTAGxLdlN1Y+BvMMFMdwevC14mwuI8uo+wZY4bt4H185GKGe1Dc7daxewhPER9/bwItu6UAIdo1wlzFyFG8f7rfe3d8/Lw93L4cjge57vl/Xd7mZRX80U0PP4C);lineShape=1;" parent="1" vertex="1">
                    <mxGeometry x="93.34277777813509" y="599.5741475932073" width="24.36307882285051" height="32.59561192253235" as="geometry"/>
                </mxCell>
                <mxCell id="55" value="" style="shape=stencil(lVbLctswDPwaXTEkwRfOafofnokTa+raGcdtk78PNBq5JiFv4ptMLyRgsQtw4Ie33eZ1OwT3dj4df23/jU/n3cA/hhDGw257Gs/6NPDjwA/Px9P25XT8c3iaf79uJuT09Pv4d3rD+xwXybspKLiP+cCRmw9+zvD9eLiCT/jY4AMVfxsfmZgbfKRcb+NzoJQafF4SXMVXptTmX8jzbbxkirXDM8hHCmXf4GU5WMfXHu8zuQIChGJbgFbsUEZCta2A9ZuAIu8uLV0iUiBGRQiVrgmJCs7Jl5bVQkkgTdymVDOlAPsQWt2Jp4wb3QlbtGjUiNSzVCuUqkRyuQ1wJBEE8JLAhVYhyTCgb1ymimg1Aeo/ZB+bEqtYEK2maC/k0j20eo/FZxpXcKONMip2tJGe52UmfFPcOvMi0qrap+WIIwVQwopDY6GC+maGQPYUsaW7MVOYBNFqBpmOWqhuOykdMRKrGcXq0Ix4vTfALgcNqGAG2O2jBhHQB7veVO8MUrL7c9IvYMns5yuxrAao4bs21KWo9YzId6SqWAFH6t5u6hXoBrcI+SK8ukjxBr6zc1YrAKHa5ab7E+ZjR6SAek0+HCA/pl5lDK1Cw6dXEYL3m34lSI/KIbSvpwjUcOd18Eu4Pvy/eT6P+/18cb3+v7+p6tF8y+XHTw==);lineShape=1;" parent="1" vertex="1">
                    <mxGeometry x="131.28262623176238" y="605.4922309785707" width="41.84315967089497" height="3.4599689239348663" as="geometry"/>
                </mxCell>
                <mxCell id="56" value="" style="shape=stencil(fZbdcgIhDIWfZm8zQAg/17Z9j85U606tdqz9e/tmZ0c0uJ47xP0I5JwEBl59bp8/1kNwn6fj4W39M76ctgM/DCGM++36OJ50NPDjwKvN4bh+PR6+9i/z74/n6ctp9H74nlb4nbmSKZeJCu5vngmZ6jzzNAO7cX8FVKEsBuBKrgKg9oAE8gkCbLeUhEoEQKSUDZDLeWYRKIl8MEDRmHwfyBrBG6Amyu4+kDxxMoB3jhwgYu7TVAsVkFcWCs4CTBEoF4RctKeOxHIf8IXYpikHikAIf+MNUW94AGSSaoAoFIE3AlOyeWU+p2E5S9yfQZcQILVuQOwZdJNoS9Ls3wA5u2XZTIHECqeJ9kDpSaauRiNVcAY1QhdBzeLBli5WazpkSsBLV25uRaqWRyFawTQzRRIQYirJzq5atkBqLfouwqUxLBepthWb10vrWZY6UOAeyKCCtDV625mm9gmUC4Wc3VLJMMIE1BsA2FW9JraVlQB7n3c9oMKhCLEvIM1zBPZ25/umNQ1tVEC2G+fFCC8g398O2hNQuQlVu752DBfA+q0ptnqO5JFmeuIuo9DY7KjY71UxdJV4EntifPWorW++R/dC4t7V3DlIB5cHx2bc7eb3yvX//QNFp+bHDT/+Aw==);lineShape=1;" parent="1" vertex="1">
                    <mxGeometry x="143.96440771776815" y="611.0836805094657" width="5.19171085790592" height="5.183595795952998" as="geometry"/>
                </mxCell>
                <mxCell id="57" value="" style="shape=stencil(lVbLctswDPwaXTEkQRLkOY//yEycWlPHzjhO2v59oWqsmkS0jm96LEhwdwFw4Lv37dPbZgju/XQ8/Nz8Gp9P24HvhxDG/XZzHE/6NPDDwHcvh+Pmx/HwsX+e39+eJuT09Hr4nFb4PccxFZ6Cgvszf3Dk3L8PjzN8N+4v4F7It/hAMa7jOVJODT7S9LaGj5ly7fDM6/jsKYUGnyiVdXwJxC0+U6zr+JpJXINXAhLAC0lu8JUYrV/69X2iggLqme9FgEQVZVSplCaACyUgmXeLBRZOF9bWthBpSdVDZBgQWhVEeQM5KU2xTamoMCgloehbHTwVRFMmbnmtgTKohJqI2x1KwcpFim3pFE/egwAmaZUTVUZgQOeNlKmC6rEBkckh4UxK6u+KdDCH9ldYMrT6KywZ4eTslW86o+CKNtbzTAFXaGdu7ZEByWbKR7smSumLCo1y7pvfbALaOCPOqdNNInaGaWRFD4ErVNrJUB1lLHS3g1bolZK+LcAOB/V7AinZ6TP5/abxpn7PQAc7PzVAwICzA1qJTkA4cwG4cNeXAYFq11l1ngBWA7nYc4TKwZ//LkYSyKnrGZICG4DryzOrE0GTtNMwk4P59LXJVMF5TT6M24U5rzKWQO0bPn2gBNY3eiVIj7GDNhbghhvvm1fh+vD/avsy7nbzzfjyf38V1k/zNZof/gI=);lineShape=1;" parent="1" vertex="1">
                    <mxGeometry x="144.6565725681512" y="611.7553710456907" width="43.79989594455323" height="3.3781467975076236" as="geometry"/>
                </mxCell>
                <mxCell id="58" value="" style="shape=stencil(lVfbctpADP0av2p2pb0+p+l/ZCakeEohQ0gvf1+5zoJXNqeTNzA66HakIw/y8LZ/et0N7N4u59P33a/x+bIf5MvAPB73u/N40U+DPA7y8HI6776dT+/H5/n769NkOX36cfo5/cPvGZcDsZ9Q7P7MT4S8/HvwdbY/jMeFfYoUubPPVCOwd5Sks/dM4u4DYiJXekCmFADAtYAbgANF4CEEkj4FYYr5PkAK5doBgicuACBUUgfQIAVUlStxH1KsrW7bgEA5dIB0DXIb4CjHvm+JKiirrxR7YhShAKqkHmpfpVLIgyqx/tx7qNJ6v9243CJeADKoUl570MYBamiK3OdQr1ltA4qtknrwoKwaMYsFIHpXbVPPpcoUQNK1rnLQxjHotHPkXI/QCcIuLCBSAi40iWAAiSKo65Rj7gEZTlDJds8oIAO6Fl1DKw8fU7tNpkycLADlkJkK26QRmVK1u1UBHpQ1aYre9sGBpBUQTdLS6HUvJLNctTMVTJAmbfREAQ4BlBqGrp4EKErxjZsLgANVKomKWwGAB/3Z7Ep9EtCMRirRJg23QKG0mlHUOJ24ajwE8iiHNZdi4+82ILetsiAfoxGVRoTFPHys2+0+VBJvAQmENAH4M4CkOt7fDlqGhBTFN4W6Hhu3ZXhP5YopU2n02nZB1SQdoFCvdrFKDLo1XGPmQqYZyTSFfovpAEZU00azxaERQL7e2QWgpwyDze1Dy+96XVUqoEJeA+hDCnrcgBQ0Z9MD8VRRjbKVUL2KM1gxekC6nqk+QeJJtoKodUOLWI9W0+cE7/QYmlxeHVAAwxlVwPuANB70/9nKp4Mng5IgBmOPWJG8vSYd3NkpWGXDc6xKaITNwdtzrc0Obsfs20F0s0+g/lnsFKhGodM2tJvuZh8BQ9W+9vVhWM/J3hn7hGT8k++R/7fXD7eX1pfxcJjfeZe/25dcfTS/IMvjXw==);lineShape=1;" parent="1" vertex="1">
                    <mxGeometry x="255.2798376180965" y="563.7458267295563" width="15.814559327860326" height="74.93802501543567" as="geometry"/>
                </mxCell>
                <mxCell id="59" value="" style="shape=stencil(lVfLbttADPwaX4ld7ot7TtP/CBCnNurageO+/r5cCHJCyho3N0XOiEtyZsjdpIe33dPrdsPh7XI+fd/+3j9fdpv0ZcO8P+625/1FnzbpcZMeXk7n7bfz6efxefr79Wn853j6cfo1vvBnwvVENQ0Uh7/Tm1jmN18nwGF//ABokXq3AKHQ1wElUxQD4EiF1wE5E9sIrEcK64CUqGUDSIF6XAdwJrFJp0YMImhNSjCAEqghQKNYDaAGEnykzAbQwvyJ20kX6vZIrRILKKuQFAuQ+RM3AZUp2j60TrWtA4QpxwUAJC2FsqWGaNIFAITYVkkiNRChB0o2aVE6IkCk6gDtHqDbHEZMoAcFJNu4oUFUJS2i7UOvlIFE9cTJ9qELFcAlWZCvd2qo03ERoVPPwDWE0iJCQIBCzfaht5mOtwGJxPUhUwFcakziyhrnMqwBnOKUjhEB0gJQKADFjaTtkVRSCWh6lLV5ARVQ1tE4C7in6ewlqgBBElXyWefTmAHkoPRu1owlEQN6DwE5E6gUAL2XEtWYyCqHCdgjdYYCGpJ39C6QfIM5tg9KbySgYZULAWVUVvbOF0OA7Ps8ojbfuuEbIIuSPMHVmdCk1rmcFt4XATlYKDvfUDaBCFGNy/FVZr+9DYjeaEbhQARdXux20nTBAWSKvtMVG9m1R9fdJFEBCbCvUGbYg0VFdd9C6tHdJ9sD6XKDWKER2BGvwRPlMOv9CmC4tJaFoHUZQtNH1xCbwt2todjvBzjdlJPOL7DQ1E1cwgGOKhVJtfYSIeVUhcGeX0mCdpg+W/p7fQKy7O6n+XXS3aZQWJC6wTGlAcTZIzbs7hdJlXUCItMKsVWxUq6jlCt1FyHPMdd67Aan3joiJtHnrm7/AdCH95viy/5wmC6aH3/3N0t9Nd1K0+M/);lineShape=1;" parent="1" vertex="1">
                    <mxGeometry x="287.5364943377358" y="581.013467312755" width="29.90505919240377" height="28.19175183915579" as="geometry"/>
                </mxCell>
                <mxCell id="60" value="" style="shape=stencil(rVbLbttADPwaXQku98U9p+l/BIhTC3XtwHH6+PtSFVY12S6FAr3JEsdccoaznOLD2/Hp9TARvt2ul8+Hb/Pz7TjFDxPRfD4ervNNnqb4OMWHl8v18Ol6eT8/r79fn5bI5enL5evyD99XXIRWFhDhj/UFAuKvFx/X8NN8vgunBimq+AwhjuNTg0AqPiBwGwOKJEANyNAcAFcorABSU6IxoBXIyQK8GppkqBqQITlHamwBMUDxMkjR+kgJoTk0CKDpLmWCmHxAU4CSoPqAGhSgFuDgAlBnEGaI3S4FDWgZsLg8BF205HSLFuVkCyhehgSc7ZE88TUZH90lZqie+CKQZrqKWDymyTJdCtQdgJnQBFTdI0UNSOQfKXWaNnlTb8OIB9QZqAD5Ixo0D7T1bSSNqLtEO0UzRF2DOBv5E0fayGKF7NUgA6R9KW05/woIuFnvRjVC9iaoARsx7RDRLNUsXGa3TVnrW+TFvlcmXfXSaY+5Yo9014f/hBAjSppskTD5lxAZL2NojpyEWmOvXFx7FbUZ/QkTzQFEawOcgRw1kbU+jt0XBvFmphndeQjd2zfp+S3Fbrx3NpadetGOW659MRjEm9lJu/Fa2DLOwRlntL5NEu/0H7tJbyLlfnsN+vmHqCE5iiO7V6V+Xw/kg2YN6w47Utu/bIW74fLwewF9mU+ndX+9/24XVnm1Lrvx8Sc=);lineShape=1;" parent="1" vertex="1">
                    <mxGeometry x="345.42379545708354" y="603.634738760979" width="45.76522987502535" height="4.2451554997112195" as="geometry"/>
                </mxCell>
                <mxCell id="61" value="" style="shape=stencil(lVjLctswDPwaXzEkwOc5Tf8jM3EaT9M447ivvy9cD2UBkjaTmyxjRQJYYEHu5O79+eFtv+Pwfj4dv+9/Hx7Pzzv5smM+vD7vT4ezPu3kfid3T8fT/tvp+PP18fr77eFieXn6cfx1+cKfK04qBb6gOPy9vslU2/8XX6/2L4fXub2QiLGPmUoCgEgxGQALtbIN4E6lGIB+omUAaJSiBXTqwAeuxN0AUqOAtlSoBhukTBkDsl2hMHGAgNIsoBGjFaYdD0DNcIVYqNlEV8FOC0Wb6aLU6CDTPJgzRalSA4Ck37M+5EhctwG5j6hPiatUADUqU7DkS4UiiFLTmDQP6ADQmcTVT6ACfOiVeraAMsKwnrgQKFj2FRlsWV+iU7AFUQN1sERPvkZrg3FtmZINUytjzfVEaJOwZNLAMQCoi7FaQKUsgEzdN7JZ4Nb5mqhbr3uDmWD2XvcMizTG0YemMHXY+wI163QLJCBKC2Zo3hC9w9jurGk0ENTos6Y9owJ7GTSb7HlkZZ0Wi/0H2DFioJQ9IAGiRt0Re0AFchV1SzYFNWKA9qTqYyRIrlQQs0+CILmKQ2AnQIWSqwAfVqUdWEF9cILYIgaoXDmADBHeykNyzE6jca63pEXlJMrAvvgs6IbQDKAd1IaoMe7CJM5hbamAqYGiq4T2QeUHRwr1CGVgIf9p7HDD32D3r5WJ2mmm7ipfaQu+rwyy+dI6y4gQPGaJOQAloHhl1h0JKsw2WtvMZdjew+hts5giKf88YJolZoVZkUQVnzYtAwZO67TiSl+FGUmUjmiOeLoCGgt1CEzJ+4CYdCPaLEoJUOmiYXaFMr3ZAjguFRVekAelGtsVcoMDUgn+iKFvYPlEXw860CAlT7xwukPplOwHJJWRCAArLTVAgEphsolTVchIbOOC3gVmWgE+rG0cOrYA1bL1kmnkAy8ynWDfjssDQKWIGnEaeZ2dPgPqS3n0iAkQYBPQPIh1WgdRQYDuD5PqVQFO6/f8kRuOefo3ux3B4wJr07JTWIQHGFWfbGMa4CHsMkcWZy9o/9owqrMPaKzVYk/eHrVtHsfYmz2D+Mh0I3KzR0qltc/RxTNjGXFzP4/S3rJ36i+wjqWO2WAqmnFw2LL/3KXTh/b6cLvhejq8vFwvyOb/+xsxfXW9TZP7fw==);lineShape=1;" parent="1" vertex="1">
                    <mxGeometry x="414.53500335834156" y="582.7611958788953" width="30.60099005306534" height="47.07271113665102" as="geometry"/>
                </mxCell>
                <mxCell id="62" value="" style="shape=stencil(lVdJcttADHyNrqiZAWY7O84/XGU5UkWRXLKy/T5gGNICSHbKN4pCE9ONdXb88HZ4et3vUni7XS9f9z+Pz7fDjj/tUjqeD/vr8aZPO37c8cPL5br/cr18Pz+Pv1+fBsvh6dvlx/CFXyMuduo8oFL4Pb5JFOrfF59H+9PxfGfPhaQY+yjEaRuQE3G2DoR63AYUpmhPxJG4bQOqkHQLaFTDNqDpAZoBSKEAjtT1SNaDsupApd4oWw65U87bgBgChWAQJVNBZyrUrK41kgCZuqooFlAoAw8qE9tQt0iJQSAWudEyDESplCzpHigBDlmo2sj1Oim9lX3eg+ZG2QaI/h0toMM4iFCxuXEXy3VEoFy8iwZYa81V8YAESDBTEc86ARJaYdmSeE+vdUCg5nTNxIA0L7JPi+ofqy0OsVqAdhIQalUpOA4Rk+4LDgEWhPDUuO7TtQNA9Y1m8IDyO1IJngODOGhBcPMqZdSOVSX2cegglxTgPWRccpoILg6VAvKwjHSbPrEuq84s2/q0HtCEGNr7ouI64CCReloAUInWlSOhOLBQXpAuqIASRfGywnoIi2zN1NCR4jQEZ4BQQk0gkbhcSlTR8vBRgBZQtrLqUBI0UbSp2MANQw60mZp91ygdkq4aJhu4EmHgBg+Wg1ZIRxya3zY04QXVdJu60AxIcIyqrA7AeWoLW+kdbWqkBisuzkNznoqVGvCgbc7a56mgVs2DXypnkTfM3XIlFMDpwzRdZ3koAv2jX1jnpWPVPE0JOUuDu52vmUAVCFl8eioZtKlSzM48IKrRr0d419HLgdu/9Djo+8Xv8oEK2psbiRcTZf5Hrzv/t9eH97vVy/F0Gq9m9//7u5i+Gu9x/PgH);lineShape=1;" parent="1" vertex="1">
                    <mxGeometry x="454.4368323495812" y="580.2253503749696" width="19.954225200330153" height="52.5544044219325" as="geometry"/>
                </mxCell>
                <mxCell id="103" style="edgeStyle=none;html=1;" parent="1" source="65" edge="1">
                    <mxGeometry relative="1" as="geometry">
                        <mxPoint x="350" y="190" as="targetPoint"/>
                    </mxGeometry>
                </mxCell>
                <mxCell id="65" value="" style="rounded=0;whiteSpace=wrap;html=1;" parent="1" vertex="1">
                    <mxGeometry x="109.14" y="680" width="370" height="210" as="geometry"/>
                </mxCell>
                <mxCell id="66" value="" style="shape=stencil(fZbdcgIhDIWfZm8zQAg/17Z9j85U606tdqz9e/tmZ0c0uJ47xP0I5JwEBl59bp8/1kNwn6fj4W39M76ctgM/DCGM++36OJ50NPDjwKvN4bh+PR6+9i/z74/n6ctp9H74nlb4nbmSKZeJCu5vngmZ6jzzNAO7cX8FVKEsBuBKrgKg9oAE8gkCbLeUhEoEQKSUDZDLeWYRKIl8MEDRmHwfyBrBG6Amyu4+kDxxMoB3jhwgYu7TVAsVkFcWCs4CTBEoF4RctKeOxHIf8IXYpikHikAIf+MNUW94AGSSaoAoFIE3AlOyeWU+p2E5S9yfQZcQILVuQOwZdJNoS9Ls3wA5u2XZTIHECqeJ9kDpSaauRiNVcAY1QhdBzeLBli5WazpkSsBLV25uRaqWRyFawTQzRRIQYirJzq5atkBqLfouwqUxLBepthWb10vrWZY6UOAeyKCCtDV625mm9gmUC4Wc3VLJMMIE1BsA2FW9JraVlQB7n3c9oMKhCLEvIM1zBPZ25/umNQ1tVEC2G+fFCC8g398O2hNQuQlVu752DBfA+q0ptnqO5JFmeuIuo9DY7KjY71UxdJV4EntifPWorW++R/dC4t7V3DlIB5cHx2bc7eb3yvX//QNFp+bHDT/+Aw==);lineShape=1;" parent="1" vertex="1">
                    <mxGeometry x="275.5199904000599" y="850.1948051839449" width="5.19171085790592" height="5.183595795952998" as="geometry"/>
                </mxCell>
                <mxCell id="67" value="" style="shape=stencil(fZbdcgIhDIWfZm8zQAg/17Z9j85U606tdqz9e/tmZ0c0uJ47xP0I5JwEBl59bp8/1kNwn6fj4W39M76ctgM/DCGM++36OJ50NPDjwKvN4bh+PR6+9i/z74/n6ctp9H74nlb4nbmSKZeJCu5vngmZ6jzzNAO7cX8FVKEsBuBKrgKg9oAE8gkCbLeUhEoEQKSUDZDLeWYRKIl8MEDRmHwfyBrBG6Amyu4+kDxxMoB3jhwgYu7TVAsVkFcWCs4CTBEoF4RctKeOxHIf8IXYpikHikAIf+MNUW94AGSSaoAoFIE3AlOyeWU+p2E5S9yfQZcQILVuQOwZdJNoS9Ls3wA5u2XZTIHECqeJ9kDpSaauRiNVcAY1QhdBzeLBli5WazpkSsBLV25uRaqWRyFawTQzRRIQYirJzq5atkBqLfouwqUxLBepthWb10vrWZY6UOAeyKCCtDV625mm9gmUC4Wc3VLJMMIE1BsA2FW9JraVlQB7n3c9oMKhCLEvIM1zBPZ25/umNQ1tVEC2G+fFCC8g398O2hNQuQlVu752DBfA+q0ptnqO5JFmeuIuo9DY7KjY71UxdJV4EntifPWorW++R/dC4t7V3DlIB5cHx2bc7eb3yvX//QNFp+bHDT/+Aw==);lineShape=1;" parent="1" vertex="1">
                    <mxGeometry x="274.631081166119" y="769.305929858424" width="5.19171085790592" height="5.183595795952998" as="geometry"/>
                </mxCell>
                <mxCell id="68" value="" style="shape=stencil(fZbdcgIhDIWfZm8zQAg/17Z9j85U606tdqz9e/tmZ0c0uJ47xP0I5JwEBl59bp8/1kNwn6fj4W39M76ctgM/DCGM++36OJ50NPDjwKvN4bh+PR6+9i/z74/n6ctp9H74nlb4nbmSKZeJCu5vngmZ6jzzNAO7cX8FVKEsBuBKrgKg9oAE8gkCbLeUhEoEQKSUDZDLeWYRKIl8MEDRmHwfyBrBG6Amyu4+kDxxMoB3jhwgYu7TVAsVkFcWCs4CTBEoF4RctKeOxHIf8IXYpikHikAIf+MNUW94AGSSaoAoFIE3AlOyeWU+p2E5S9yfQZcQILVuQOwZdJNoS9Ls3wA5u2XZTIHECqeJ9kDpSaauRiNVcAY1QhdBzeLBli5WazpkSsBLV25uRaqWRyFawTQzRRIQYirJzq5atkBqLfouwqUxLBepthWb10vrWZY6UOAeyKCCtDV625mm9gmUC4Wc3VLJMMIE1BsA2FW9JraVlQB7n3c9oMKhCLEvIM1zBPZ25/umNQ1tVEC2G+fFCC8g398O2hNQuQlVu752DBfA+q0ptnqO5JFmeuIuo9DY7KjY71UxdJV4EntifPWorW++R/dC4t7V3DlIB5cHx2bc7eb3yvX//QNFp+bHDT/+Aw==);lineShape=1;" parent="1" vertex="1">
                    <mxGeometry x="376.0877342694176" y="771.4025965250909" width="5.191710857905794" height="5.183595795952493" as="geometry"/>
                </mxCell>
                <mxCell id="69" value="" style="shape=stencil(7VhJcttADHyNrqhZMNvZSf7hKsuxKo7lsp3t92lGNYoAip27KzeKZAtooLFwdvnm9eH2eb9L4fXt5fhl/+Nw9/awyx92KR2eHvYvhzdc7fLHXb65P77sP78cvz3dnX4/3y5vLldfj9+Xf/h5wqlK7wsqhV+nO7FJiH/ufDoBHg9PF4AMQDaAlCUSQFJJagA5SG/bgFhFmwV0SQSQohQL0C6xEMCQEQ2gVMl5G6BBhuVQs2jdBhRQTCsAiVIZEmxYi1IOVX2UNHNAmRQvwtoSASAmLg9VwiCA5sOa8xTLdcCYQjgDkgSS6ZYkOg5h2rwOUC8NAJSQbs3nAYBKOLSxihLkSCz0uJJ3lkAS15HXYQFlhuE6ANIoFtCkMpfKVM5ZS4hSoIC0El8i0oBLPVhAlagEkKRbl2qQQCpuIW0rbhEL49C9WpGZxMIaJFsLcHJ0yiFW69KQRtQKDs1mGnKkYUXFWbW2IoMARvSJWwAkDwNhVe8SS9xovkRBWklND3Q+9WGtjAO6t+XQ6xT8FsCNrIFUEi2NLtW6hDAEUkCjzpI/A9pkdR2QpdqxCyfZFIXHajnEgIJg+m7zDy9MsE4G9QUrV8QhMECU6iyU2Qy3Kig4QKTqW6RjWaNqAyk5AIarUawfLErR90o4yaYiunFfFQTtAtV3slZpUSPVvm2UuU1siclFCRYqExMmu81D61KYS3hs2zfiVpi+0eisvpcZQ0ruQs1nxKC7wFIwNq4DM4NV9VUA6RtYHtS6hDgwfWNj6ivWbPDW9ZTromzFSp5DSTPS/7e+97/1MQvvYetTGdUDKIcwx8G5HiBvljj1pCFH5lJdjXb0StbJymoBAiumJS3TgYt9ZhALKJey3phI4mL3U7FlyWzueo+wfDMDq96tibaA4rOWMt0DYvF9MmJVZkcCbT4+M56nENdDivet8CJdffLwAzFIIinT6NswX96Wb/nm/5/wVRRO8P4Tvigr97WUJJExomglrrnQDqxYGNwJy1ybtt4fbkmaNzbftwqNgXZHXW0wMdGvvYWxW7iV1v0SUmeh0NF8/eiNcfj3WR0u/p703R8eH08HhZfP/ckgbp1OFfPH3w==);lineShape=1;" parent="1" vertex="1">
                    <mxGeometry x="229.9788990449931" y="848.316630468406" width="32.04946523139079" height="27.284156472802955" as="geometry"/>
                </mxCell>
                <mxCell id="72" value="" style="shape=stencil(lVfLctswDPwaXzEEwAd4TtP/yEyc2lM3zjhOH39fuCppEZIw7U1RuAaB3QWgHT+8H57e9jsK79fL+ev+x/H5etjxpx3R8fWwvxyv+rTjxx0/vJwv+y+X88fr8/T329Pt5O3p2/n77Rd+TrhEwHJDUfg1vcECOf1583kCnI6vM0AkSHEAEEHBbQAzCI2ACpW3AVQgpAHAFWJwAIscUgB2rkQMNEbICKk6OSDIGCFLy2q9Sgh5TLpolWQbkBgSjoAEkrcBOULkBaBsAwQBTdIFYnQAsd24A/wriUAhC0hOlapqKY+ADNGJUBNUtDwkp6xVmnJ6ldCVd602aS0re1dSMZsI1RWfXqmMPAhDcMRXtSYGkP0IC3krM9lxnKi/ygioIE4E6bzOAF4TUPFJsFfyylqk/V4HpFbodUC2WhJVl+MH5fWv5TtxGtPxQ0kLpmPLah1QLHEqPvQMFCAs2gx5ZWXLgxqIHHlLsX5Qi0ZPfAi8iBA88cXWhWZtpngG0nljHBfaiNlynC1rbHVbBWDQuhrmClQv6wpkDNEnwFYSPHZjlSs7ltMyGSKUmupFWAV4+ibAkbna+/P6RAlAYw6zwq1PuQLCNoTX8HUXMJNa02KHCNT+jTZr8sZi88usfXumXigjCVTHQNSmRzuv+xA7JcIAOHYZXW+iwzNhs1dnQeewwzNH2zSSv5ro+XGBC67wYm49636eHGVHaYzez3si0l3NrEr+8qYbaxkp64vN+vkIaRQptWm3fj611tApBvQ2t2zP50b5+vnSGm6XdDPF5vmRL+wV27qQjIShlsy7UbI7z01yjsm0pGbBwNx8usXZ/31l/ANAH+4fNS/H02n6Jpr/334E6avpA4offwM=);lineShape=1;" parent="1" vertex="1">
                    <mxGeometry x="386.22506117466736" y="756.5878858563608" width="26.547717989792293" height="26.56771989331421" as="geometry"/>
                </mxCell>
                <mxCell id="73" value="" style="endArrow=classic;html=1;exitX=0.611;exitY=0.511;exitDx=0;exitDy=0;exitPerimeter=0;entryX=0.782;entryY=0.564;entryDx=0;entryDy=0;entryPerimeter=0;fillColor=#60a917;strokeColor=#2D7600;strokeWidth=6;" parent="1" source="66" target="67" edge="1">
                    <mxGeometry width="50" height="50" relative="1" as="geometry">
                        <mxPoint x="570" y="780" as="sourcePoint"/>
                        <mxPoint x="620" y="670" as="targetPoint"/>
                    </mxGeometry>
                </mxCell>
                <mxCell id="78" value="" style="endArrow=classic;html=1;exitX=0.782;exitY=0.92;exitDx=0;exitDy=0;exitPerimeter=0;entryX=0.624;entryY=0.287;entryDx=0;entryDy=0;entryPerimeter=0;strokeWidth=6;fillColor=#60a917;strokeColor=#2D7600;" parent="1" source="67" target="68" edge="1">
                    <mxGeometry width="50" height="50" relative="1" as="geometry">
                        <mxPoint x="380" y="730" as="sourcePoint"/>
                        <mxPoint x="430" y="680" as="targetPoint"/>
                    </mxGeometry>
                </mxCell>
                <mxCell id="80" value="" style="shape=stencil(fZbdcgIhDIWfZm8zQAg/17Z9j85U606tdqz9e/tmZ0c0uJ47xP0I5JwEBl59bp8/1kNwn6fj4W39M76ctgM/DCGM++36OJ50NPDjwKvN4bh+PR6+9i/z74/n6ctp9H74nlb4nbmSKZeJCu5vngmZ6jzzNAO7cX8FVKEsBuBKrgKg9oAE8gkCbLeUhEoEQKSUDZDLeWYRKIl8MEDRmHwfyBrBG6Amyu4+kDxxMoB3jhwgYu7TVAsVkFcWCs4CTBEoF4RctKeOxHIf8IXYpikHikAIf+MNUW94AGSSaoAoFIE3AlOyeWU+p2E5S9yfQZcQILVuQOwZdJNoS9Ls3wA5u2XZTIHECqeJ9kDpSaauRiNVcAY1QhdBzeLBli5WazpkSsBLV25uRaqWRyFawTQzRRIQYirJzq5atkBqLfouwqUxLBepthWb10vrWZY6UOAeyKCCtDV625mm9gmUC4Wc3VLJMMIE1BsA2FW9JraVlQB7n3c9oMKhCLEvIM1zBPZ25/umNQ1tVEC2G+fFCC8g398O2hNQuQlVu752DBfA+q0ptnqO5JFmeuIuo9DY7KjY71UxdJV4EntifPWorW++R/dC4t7V3DlIB5cHx2bc7eb3yvX//QNFp+bHDT/+Aw==);lineShape=1;" parent="1" vertex="1">
                    <mxGeometry x="307.2725816715099" y="739.500245014123" width="3.461140571937196" height="3.455730530634995" as="geometry"/>
                </mxCell>
                <mxCell id="81" value="" style="shape=stencil(lVfZctswDPwav2JIghee0/Q/MhOn9tS1M457/X2hulQNWNpM3mwJK+JYLMANP7ztnl63mxTeLufT1+3P/fNlt+FPm5T2x932vL/orw0/bvjh5XTefjmfvh+fr/9fnybL6de304/pC7+uuBiJ24RK4ff1SWKS+vfJ5yvgsD/eAvJ4PQOEWl4HpEjJnsAFnqDfi8UAciCO6wCulLMFFAq8DtDXnQ2gZEphHaCvezSAWohBDJUpWpdaoVLWAS1QtGntgTIIunZqFlCFKnJJiIMNWkbe1lwqLq0dVrrl8fqm0hG41NRjsVzSMwGgV4qWS4Uysm+Uuz2ABFSha45sBJEiKILE4e6w1zImYK+9Fb094J1UT6NIAVRAOoXo4u0gXtF4i8sno+8LiS1Yp4Ttu82/6k3CDoVkAZkCqLA0Kg5Qh6ItA7QPbYpiI0ExMCV3QqeKSBGoiwcwqHLXtireJRS00jo4WqjgoRNUcV0MCRZaAcUqpMCsqr2LWasgsJHFEoOpgcbRFFXb+JEqUHitQbP+hMH0tSLH5OxRQpVF2dtDf5ofUWko2Voji403U8Z9060QNdiYMczxzQkN73UmO1YzFPePA9LQ8pkTjSJIqpIi2xOywFaexocNusYx2Ndo7VaRloaCLwPYDxB98m8ELY/ATt0CRAUPdE5tfmbe1HJ5eWnE3R+BNoU8i/ochAIAN1jGVJ3TpEGAqDlRsPSueRB4eSe8E2GNCm0KOgWa2xS0NEBhlP5u1GbtWdCimYpba2UcuXyATyqr5AEqBb+6TEmD9sF1T4DdcycAOsuRJM07+GxfoWCEu3tChp0QSezEmXY14A/71tQvNNA4eezfN/YBEKL6fGpEqF7Kx+7tO5L4cUW58ScD/5WgnHyCCtL4D1/t3gfoj/83yZf94XC9iN6+9zdPfXS9tfLjHw==);lineShape=1;" parent="1" vertex="1">
                    <mxGeometry x="308.9978842258248" y="736.451719534951" width="25.866697196123887" height="20.140666097055078" as="geometry"/>
                </mxCell>
                <mxCell id="82" value="u and v&lt;br&gt;" style="text;html=1;strokeColor=none;fillColor=none;align=center;verticalAlign=middle;whiteSpace=wrap;rounded=0;" parent="1" vertex="1">
                    <mxGeometry x="297.29" y="143.18" width="60" height="30" as="geometry"/>
                </mxCell>
                <mxCell id="83" value="" style="endArrow=none;dashed=1;html=1;dashPattern=1 3;strokeWidth=2;" parent="1" edge="1">
                    <mxGeometry width="50" height="50" relative="1" as="geometry">
                        <mxPoint x="221.04" y="190" as="sourcePoint"/>
                        <mxPoint x="501.04" y="190" as="targetPoint"/>
                    </mxGeometry>
                </mxCell>
                <mxCell id="86" value="uxv" style="text;html=1;strokeColor=none;fillColor=none;align=center;verticalAlign=middle;whiteSpace=wrap;rounded=0;" parent="1" vertex="1">
                    <mxGeometry x="357.29" y="90" width="60" height="30" as="geometry"/>
                </mxCell>
                <mxCell id="88" value="" style="endArrow=classic;html=1;" parent="1" edge="1">
                    <mxGeometry width="50" height="50" relative="1" as="geometry">
                        <mxPoint x="350" y="120" as="sourcePoint"/>
                        <mxPoint x="430" y="120" as="targetPoint"/>
                    </mxGeometry>
                </mxCell>
                <mxCell id="91" value="" style="shape=stencil(lVfZctswDPwavWJI8MRzmv5HZuLUnrp2xnGvvy9UDSURlteTN1nGksBicWgITx/7l/fdwO7jejl/3/0+vF73Q/gyMB9O+93lcNWnITwP4entfNl9u5x/nl6n3+8vo+X49OP8azzhz4TjSJFHFLu/0xsplOr/N18nwPFwWgMchdoBaqWQ7gO8nhd6gB6RASCQpA5QEgUBAGcBWagCQCHpPcrKgrtvr9f3HCUhBhwF4t6flMiD8x0519lHIQ8odZR7f6LeCOKN5KSzDzMDm/aVuD8/BHIFZiz3AesRDhCkmqi9iJQzD27QkGvvkh7BgFI9LxmAbyxsAzTJpQ+6nbBtfyNrboWxrYnQRD871C7czhkT9/YO1mXS852x9/6+fdZ4g7F3wL6UJoHFnoH/tdiicbAmJZJUw08B8YpYfpgq8Efti++LhhyoAcmtpOYiJh9BvNK64NxUoN6KUPbGvgD/c23pnLsieeB/yi28lT3Ib4yUs/UH6D+kVrCreFFBVkrZ8In4179NfelYAP7r9WYuMRXQQ4O2g2j0llH9SiuPlZ4Rn0LR1i+DeLO3enOQzxJa+a3qHekztpGy2GfAj3CT48JPBFNbqh16TBEO7Zupp1MEBPBpgC4y3CtIR0AEktYW5EyL1iaPbnC2p6tLBSSthqaZGaCyAlkouU251SiuIAbdfLwBzIW3DWA77HWZyCBxqbRdab2tAJfG5cd00gSlnSLVPnFJ4P6kvc5oTxc6tE6kSrUvfuUto+6rw9p0X40K02o2nPpgHovdP3SvRg2yVIo9YBH8PYAPFlAfiK9nSYs8IgCTOAsQoCUdamZJ0DEdQcUprSVbABqbKo0ULUBA4pKzc3PVeLY7vS6KYq9Aq45u3/kmatTJAjfaVwAGQeiwNcNQE4Fo0mlrNvixn6Nx/unvxscAfVg+U98Ox+P0lbv+337W6qvpkzg8/wM=);lineShape=1;" parent="1" vertex="1">
                    <mxGeometry x="429.21026179750766" y="139.00072470467376" width="3.6833538471843275" height="38.36407668294436" as="geometry"/>
                </mxCell>
                <mxCell id="92" value="" style="shape=stencil(lVfZctswDPwavWJAggf4nKb/kZk4taeunXGcHn9fqIpcgbK20zdZ5grAYnFwkIe3/dPrboj8dr2cv+5+HJ6v+0E+DTEeTvvd5XC1p0EeB3l4OV92Xy7n99Pz9Pv1aTw5Pn07fx+/8HPCRQo8giL/ml7kRE3/vPk8nT8eTovzgSlWB0hCIW0DIlMoDhArlQIAjVQcIJiTwCVplLwFJubt8xahtu58kO3zJRKrd8g4igCQiYMDCFNBFiol7UkteRtQE4m3kDNMmwolDyiJCiCppT5tVYhBDK1QSx6QqSKArgBtpuE+oPUAi+ojk1sA7QBKCQF0VuYMaJEUZNqCzp5We/NB9H2A5TV6gOIYmMQXaGAsby29vI2HAoIwFqunqVWqwCcNFL1PppYKorbE5i5qKwhgoRopvstYVKFCC9KlOkB9K5N2+rYiBBaMpehptSKMIGjzWDoLEcagjWr2gEAZdAETUwi9hYTlyqsYKuoCSuIbk2UG9UqTWvXNWyMJCHqh5kWqG0CYieC10QIlMIFMzdKpL89vtnpf8YkwHlCqRwd81CMPqIK0nxBjc0NiSqsaVaiN+wAwdketdSVnTqIpJ5S9mKymGARtI0o9rQUHnW9z+Tbl8OqQyjyXF3MUZTrF3iVbTjJwSeJM4s1ChM01hjnERQwocUH6oWUsZVCjth31NRrgvmQrXFk1JgEFpLOWF+fh/rNqrXFu5/fz3BeDnUflJn09V6YGZLFKgTGKvs8rnVZi8H3ux+G4WwF+Vh1v3DCBJFYrd8aLEs+r4EJyDM7/7x3g3+ft4e+F4+VwPE73leX//QXFXk2XG3n8DQ==);lineShape=1;" parent="1" vertex="1">
                    <mxGeometry x="424.4774326714122" y="137.67436473038327" width="14.482504615745329" height="10.754982635286296" as="geometry"/>
                </mxCell>
                <mxCell id="93" value="" style="shape=stencil(lZfdchshDIWfZm81gACJ6zR9j8zEqT117Yzj9OftK3eH9SLHp5O79VrfAjpHAiZ+eNs+vW6mFN7Op+P3za/d83k78Zcppd1huzntzvY08ePEDy/H0+bb6fh+eJ5/vz5dIi9PP44/L1/4PXOFcrpAKfyZXwTS9u/F1zl8vzuswqNQbkN8ZArpPsCBQhgAG7JVACjVOgCcSeU+kA3gAciFGEypNOJxDaVSASPURlUGoArVcB8Q6UvsgFQSAGimUgZAmUQB0EjiCDSK5T7QmDQPQEtQh5a7rgtQqWUIFPEAoymZTA4wa0QA1K7rCqhAuCbEfAOgRSul5gFkvmZZj37RCRSQARI8oGhKjZqbklBBOhgweumyKqRD62ZeAVAH9fa2T2Sc1hg8oAyFi6PSMSyN5J43vBAN27VQVA9UlKZMmT0QQY1aybXs81pQmqzmXV4Fe8NGCB6IuKjZjWCtDwlRKKgHAk6rt2shQSPUD4CKRrDmqjcjoBrVnsTVGiKaUus5WQGwbZjV2OvAoIJWbl55I6Cas75xU9VoS/k0oNo73SqvDPKqpWdxASJsNBoojiMoVk7YCyEKG34tfQLLTm1Fjc4C2beyotB9OfcCW04b0o9QH59nDBi7AAsF4D47H/Ho76SwqGPqR4WlWdonwBqCzyoTA2OYamOBJlKgcug+voYzmP1NIUTY8m4sFKFHbanj1wM1IJb9Ky4cbbWxt/NrOPJ/osQuPIC5J7+P4x2Q/SHVwkEic7fIau7AldnvZZYZ0K4+ea34b7g9XG8wL7v9fr4Arf/3Nx57Nd+W+PEv);lineShape=1;" parent="1" vertex="1">
                    <mxGeometry x="432.4524418738" y="175.60554426894453" width="25.482360275712406" height="36.45273953524955" as="geometry"/>
                </mxCell>
                <mxCell id="94" value="" style="shape=stencil(lVfLctswDPwaXzEkQPBxTtP/yEyc2lPXzjju6+8L16EqQtZmepNlLEFgd0FxIw9vu6fX7YbD2+V8+rr9uX++7DbyacO8P+625/3FnjbyuJGHl9N5++V8+n58vv1+fbpGXp++nX5cV/h1w2Vq5Qri8Pv9RaKU/775fIs/7I+z+JiopBFQSOs6gKf1OqAEElkHCPe/J0CkFNcBiSlUDxBeB6gQRw+IoOisVHgB0HVAqRSSB1QAqNqbOOvSe6PXMrQwALQSAx4KUxkByXICHnKmMvIgmSLIkKPfkkQKIIM2ymOXuHUq7wMKlTYCFHZJM6mOAJMGBoQREDMJkIYBxAEsA1Cr1ZBG8eUurrUmRUcD7FGe0vd4ExLStnhDBwoByiKqi68NxFe/H4H2z81PpALrNZ+4eCMANdScyKNMjeICKrAMXqYRqs5KcJowjgPioPgZaUYQRIL2eTWzWgRFZ3N/9ABIQ+iyn22pgS3Z+JHki26greacOo48ZpwheyfE2t26CnDS4C6WNUAbt1T7Cms1p3EeJXyOBNKxRxEOF2OtjeeOeRPsx2QhxcWjk/N/44t6UUTzBgBUK2Ck7MoxoKwF4rFDUrtd7wMy8UiBKuxRDNN8mwaMnRLAOy35z4Wmncf7VZuyxwytkYIiSlnoInwwhRdfJJYCSlUotgUADIBkp/nIdatUgVhtoCh7AJpJJgVd9DWDLZl702jPFrsB79fgm1QrHKvi7VALCVif/Xyxzzj0lRc9B9UOXxBvbnTr29kFGjRNh0nZNqAAA0snKNSpmdOtz5Th+tVdLhqcv7F3Y3a3yLD/7gQxWzR0U/B85YQ/H0mzj2fA193LFJrXH16+7OHfze1lfzjcLn7z//1Nz17dbony+Ac=);lineShape=1;" parent="1" vertex="1">
                    <mxGeometry x="447.62796108684404" y="203.5690801026912" width="19.875917672119684" height="9.590963355200063" as="geometry"/>
                </mxCell>
                <mxCell id="95" value="" style="shape=stencil(rZbbbtswDIafxrcEqROl6659jwJNG6NZUqRpt7595Xl2LLr+iwG7c5SPEsXDL3b+5nV//7LrHL9ezqfn3a/+4bLv/I/Ouf643537S/3q/G3nbx5P593T+fR2fBh/v9wP5PD18/Q+7PB7tGNKZTBy/DEulEgS/qzcjfyhPy54ieSkMdBMDhj4SCU1BlEpxm2D6O0JQUj8toE6Cu0JzpGWbYNcJo/nO1By23ypDrc8kwdXLpnYG54T5P8GZMEL4Aux5R3mQzF8AgGtfG4zIOQwX7LhC8jwmq/5YuyPa3hPAeWrUOS2gqaEbMZTDR++yZflE+Y5WB75U+stGd6jeCpJMvHJyJ9EORveoXgm0va+teMy3r/Nl5Di+5r4yLSwxYc2v4z90SkcVx4JSs2XV8Mzqs9M2faX4Pr01p+gkFcbT8b7FxtP1F/C8/0WCcYNbC7sSYDgVj7ZBs4owWXSm0UD/E+eV4IlsCM1kGsv7BJ8YmIkbk8IEWq010kyJ4NUXQJFLWpFPbvJya9PIDYvfS1DwM+avOAVBLWerpZHr4CsHhnGbSa2a65l+CXPtguGMgRJZqvqpcDJhm1NVB1Q0Ja8SkCGMrRqykH3QEXwJAozP+vwBi/R8gL3921J11ExgZL+19Hye75+XOfYx/5wGMfg5f927q1L48zsbz8B);lineShape=1;" parent="1" vertex="1">
                    <mxGeometry x="462.3144173202903" y="68.6182397772817" width="41.85658640087133" height="28.96383420094558" as="geometry"/>
                </mxCell>
                <mxCell id="96" value="" style="shape=stencil(lVfbcttACP0avTK7y17gOU3/IzNxak9dO+M4vfx9UTXrCOSlkzdZ5gg4HGB3woe3/dPrbkrh7Xo5f9/9Ojxf9xN+mVI6nPa7y+EqTxM+Tvjwcr7svl3O76fn5ffr02w5P/04/5y/8HvBRYLCMyqFP8ubBlT/vfi62B8PJ22fo7JPBEwOgKGSAuQCxGNAKoCoALVALA6AAYtOIUPGMQAJUlMAQohOSCVC0B4oQgxjQE2AQYdUgZ2QJICqaa0NguOBGsSqARWCUwcOva4rgJc0Z8BkQ8LsACQkXenKkJ0cmCFmzVLqWd3XUgidlBui9ChHLqoudRPBOy6YIBptRChO5bhYD1JLr9ScIOusqUDxSk1AOmnySy3fixsP1WFJUiQDyP0TdwGNIW0aghwPrUFFWwd2khaAqUO7ET0CsJGGEO3oW3JoOofKrgdKXQirhvCkIayzplVaLnke2LI0N7XXcggpWgA5s5IroAFQ9znqh2pojb3NRx1ntCTTOHk5MLAOSUrpFU5CanplUehLbJS0yYFuvI1oLXqSSSnd4fpZgJAYtLxl3DanDqXYvSu8oZMDFrsgVtNztNqDRogek9PUMUEyTS095cREgJsFERy1FmtfGjRHSghNJ5BliTqkbsaeHCU85W22jxyGHH5C36+3dCE7qycA632bXVXLqtTkpz5tRtzoaRe7ZAfUN51q6D10X8/2cBG6vgeLvB+fVvaeNEVpbOyzI7SY7ZiLkLyDxW3MfpBZPOU3q8zsngeltcy+LH3ojew/eyr/j708fFwBXg7H43KDWP9vrwzyarlu4ONf);lineShape=1;" parent="1" vertex="1">
                    <mxGeometry x="456.96538567334994" y="90.65296623345563" width="11.696108711162916" height="13.314091875535581" as="geometry"/>
                </mxCell>
                <mxCell id="99" value="Clockwize because z is negative (going into screen)" style="text;html=1;strokeColor=none;fillColor=none;align=center;verticalAlign=middle;whiteSpace=wrap;rounded=0;" parent="1" vertex="1">
                    <mxGeometry x="511.77" y="60" width="158.23" height="30" as="geometry"/>
                </mxCell>
                <mxCell id="100" value="" style="shape=stencil(7VjJchoxEP0arl2SWuvZcf7DVcYxFQIu7Gx/n1YoDXQPeikfckpuMOgx6uW9XjZ89/r88LLdBPf6djp+3n7fPb49b/jDJoTd4Xl72r3Jpw3fb/ju6Xjafjodvx4ez99fHvrJ/unL8Vv/hx9nXCNXOyi4n+cHiXL+/eDj+fh+d7g67j2lrM6zp1gAgCkVBYiVagSARBz0jSoFDwCF2ClArsQVANr4eQBKodLmgBAo6yvVRDEBQKXkNSCS4zmAC3ntpdLIuzkgypWMDYk8uFL3etMAN955E5DERNZuZWogNbKnquOQMlUQh1wsIDbKwOgiuWQAgRgErtTh9SVbcXpLmLKOQ2CqIHC1ktd8kPxNIFtro6DjIJRC6d2ctaHBFzRPziQr+QDOBwraqQWfZ5vbmRKIcotUiz2P7p/tfTI1oBetUAzm/hXdvw69uvgT2isB0+e9o4Iu1IaYLAAhKxIwJyHWJvsIEfKKqtnvM2WQpgKIUQNEorARTgM4DF2eulWHIRZqgMwCyCaPeMjs7EpWhf0QwSlA2yD0ToD93eikAWWwdZZ7RlQrVjBJbtZGC10DikMchWYBhBGZGZ0T2zc0rC9Fu1WeINnuChat0ehKopFBX6mKBAC31mIZVBkWaAE0zYfqqGHZLqbe1hGZqQqbervo1EyGiwFEWElEV21Fj8Qo0mk48QpQQEVvq0ZJbHAovYWiyXoJNRldZlZxKBhQ9JUk0pBAzRJIciliXWKTfEsnNKOo0dbOECQzaTjxinEVxYFtz9A5jXTJ28D1J8DorkIrXSqYD6azEkpF1CgVW9VFW1Gk3w+Qsm/SO8AeWgCGQNLCos6hA1YlC4mAAKpOPq5w+OlCpgnU20kcuL/fHRr+/O8OTRtjuEked2L/YndYbc8QHByIRSNZWy15x4g54lfNHG6jsZlNbkYuoqQKiLQM2M2MqwzfINXVa6Ozg7kn823TNuTFb7MJ2m4BMiw9KdqupO8ZQHGLKzr0woDWBnIlU9ziiMztTYaz+X1pCm7vSvzgy4VBS8bPNkTOTHAMC65oqKnQMjmgUK863CLngdFlsOU6M9Dmwzo1+TF53HaqHVlZUhUkkrNzTIGbm5XAZNhduFGRFqaNJm5y3JRlxuu8oQtLOsBOPlidwI2/vDub4wEESjpw++8oM5Md1hwsltk2XQ7KdFmp9MDfVkQbpjB2W5PjZiLCSvLOvfEfj8uHy4r6abffnzfc17/blbY8Oq/D+f4X);lineShape=1;" parent="1" vertex="1">
                    <mxGeometry x="287.1905187368085" y="820.5673158598283" width="23.637867918034708" height="15.87678105144929" as="geometry"/>
                </mxCell>
                <mxCell id="101" value="" style="shape=stencil(lVlJbhtBDHyNrkTvyznLPwLEiYU4duA42+9THaHHQ/aohNxkeUrd3IpFzim++X7/4dvdKbjvL89PX+5+nT++3J/i21MI58f7u+fzCz6d4rtTfPPp6fnu8/PTj8ePl7+/fRhPjk9fn36OX/h9wXVpfYCC+3P5Iojz/754f3n84fy4e9xHCUk938Q58nyWntXzPkgMBNCkOQ2oEsgJwUsp2oIghQGSxKYBTQKxOVRxQQFilNYIoEvyGtAlpuuA6CVHBUhJGvESLhCqBnTp7IQkSQMyvmGALEFfKTfJhQCKeJ0ZZYv9NUDSgStIRnYlxEGfUNOMzDVA1SdURJrZ0GwcWpDMbNjiugGKVAJITopOjR6lVnqlqAPnnaMlh+wzRtxE5On37VKwglVEtAnenXQSCRSpqbkWpTPe6FK1EbXMb44BdbpxA8DVJJvATHXJVwpIErQNxfMroUg1b+RCmQlXMkSTvTiSHCDLrNk1VVrVg/sMbyTx5EoR+a8jnTwlywTyNWTZxREv5biwa50t4BBQ4qzhHYAFrnrpusehqBI5ofbpxJ0NjRiNoi+Gv8PMrkNAx5WMWwsNXEdu6khnN606BlTp2ksZP0GaVu/idXpn1CAHGHZFZArhPgC69lJp85LH6f3KW1tRx8mfV41YGJ8ROPwaNQDElEnJNWSzTqZWxZMTmp+5tgFA0CRyMNHwzCBXEojhdl3UfdMTxyWXpAYLYI10sEqxV3LEBtSLAbQmhQGgCo2XinQSB7QgG7hAFRBakDEakSmsZ7nZoTYAjCaRDluYdsmXeFc04hhNrhEvweiqaaNmWg+hiDNXSrRnhUV+A3BDupYFkEi2QokanoENnqm4YvkeXgpc9hWjE3mDQDvwRjt0CUz21cmMu9RoXByvwjKSOMBLprODl6hbw+yyGyDxqWYzcQeg2YoO1S3AsxPSLJedDZEBgk0NeInRDArILXFg3IoSbabieAsKy2SGXIqcl9xS0zfEd1imGkb3GEdbtYBE3BrdbPz7mmYzx8KtADRWD3mpuEwF038D0iK+6w1ZicAt7B2JW6F2zEjdPAWUOgtyB2AlWteadnSkfiWVfUNhOhSB0yV6g+6H2DEAXkAAGHlfuKxsyxBUuNaAE80gl7fNwrFb2xw9d1MTyyUILJMaia8FYKJZkkGts3F35FKygExswI0Nt0JyOeLWFO2IkvhME5etV/b0hKEE9AmQjYVRJbqotiE3rjX6zP7dAMHkD7SGWTuUTjvQILJFazAbwEu2iwa6CUFjN4Mc1D3rcWP01CdgBKms7bapjjZAotIB/cFQJSaUzDrQlpu7Ps3kz9gX6SuNGmSNPc8RacdLbEKBdDADNXiJbUIAMDVdwpyKrvVpo+4xHzMSGI3dpDcK6IZ00OkNEmDZ6ruNQ3J0EzI24zoOyN/EBupktzlj/88ACxm/bs+P2XvOYNvusdP90qLtx5aNKQ2r3/j9ndW4kebpsm6IVEI7u48OtM6cJSPeppzdWvnJr8ehkqYrxvH8tyISriK/niwvOpr72fqdL6CXNwGOFkq1I6ebsudKTuZmHmfvVroVv56K5f98gXbzcXx4fVf36fzwcHnVt/+/fbeHry7vBeO7vw==);lineShape=1;" parent="1" vertex="1">
                    <mxGeometry x="230.15226060245993" y="741.4735106982432" width="20.448254531752845" height="35.11488720619287" as="geometry"/>
                </mxCell>
                <mxCell id="102" value="" style="shape=stencil(lVfZctswDPwavWJ4gNdzmv5HZuLUmrp2xnF6/H2hasQIkLyZvsk0lySwuyA4xIe349PrYQju7Xa9fD/8Gp9vxyF+GUIYz8fDdbzJ1xAfh/jwcrkevl0v7+fn+ffr0zRz+vpx+Tmt8HvGeU85TKjg/swjjqr7N/B1nn8az6v50VPIar6sEPN9AGfyVQMqlXQfkJlyVICQKZf7gBKpJgWIjho4Ui0UvQZUYgBohZw+Ejfidh/gnSPnFCIHah5s0ahoHkqmWgFA8soK0Dw1BlEzeR316pT7ifXE+kyNqYGwhTrDRJUgwJlSJZc3UQNxJGejzm0Z2ddrs1FnWSICgCPWO6RIHsgvBMpa4Jyg/HykpI/E4jmQ1kZZJyl2sezTQLHo+SJ4lKOF1D6fyQGtBipmfdERkGqgagydoFLZVgxZwaGKYfMjFQbVMC/H1br2mRI4kDDWtJt9ooR2KIvZV4ACKA5Shg1AOEM53VZJ0TU40pQl7U3hPaMdCrEBFCrAObJDM3XYL8zvAxIFndYoaQVEiw6iUWrFPIgQNNNiNZRWz0u9WgEaAnTrrgABxNBpXYWA5vPG/JI1YM5Iji0JjEhY7tYVyxGun3S8MhKAspO913yDTtgwJkbwqJoGSqa/kC2RJrKNYDIzcn/e2QEBYq8mPUdMBeR06pFMQyIVB1T4JCVSW01UB6+EuOlgRHYghuLsrZbS0g3sAwoFTZzsie7+0ijoHUqCTFe3eL3vwBRQY1gWpa2ucuT+nKlsr/JP+hdzlUt/DNzGm/5F7IlaKvGP22ipAXlLvdDzRayogIXl3z4fr795L8jlyCBFzt5T04sDBNxbid5zwtfCps8u0AfOXiBSK5D1FzI7W7CJD8SmlsK+iy21njwyvW2uJRggtY34cbPf0/wxHZbd/3w3fj5fPj4eqS/j6TS/cdf/20etDM0P4vj4Fw==);lineShape=1;" parent="1" vertex="1">
                    <mxGeometry x="242.61889507795001" y="848.6434236141752" width="13.66214737202918" height="13.273835780234572" as="geometry"/>
                </mxCell>
                <mxCell id="104" value="Z" style="text;html=1;strokeColor=none;fillColor=none;align=center;verticalAlign=middle;whiteSpace=wrap;rounded=0;" parent="1" vertex="1">
                    <mxGeometry x="182.62" y="173.57" width="60" height="30" as="geometry"/>
                </mxCell>
                <mxCell id="105" value="" style="shape=image;verticalLabelPosition=bottom;labelBackgroundColor=default;verticalAlign=top;aspect=fixed;imageAspect=0;image=data:image/png,iVBORw0KGgoAAAANSUhEUgAAAxwAAAECCAIAAAD7JkadAAAgAElEQVR4Aey93WtT2fv//fsfduarjjPzsbba2GkOSukw5ObDz5/eHzqIVXSGGUkYZhSlnUEC0vZEKNLe3lpRguKd+WiDilFKimgsEpE+0LJJCDnKWY5yln/kZl3rYa+1n3ey86SXFNnZe+21rvW61sM76yn/S9Mi+IcEkAASQAJIAAkgASTQJoH/1eb7+DoSQAJIAAkgASSABJCApkVQVOFAHRJAAkgACSABJIAEQiCAoioEiCjPkQASQAJIAAkgASSAogpFFRJAAkgACSABJIAEQiCAoioEiKjNkQASQAJIAAkgASSAogpFFRJAAkgACSABJIAEQiCAoioEiKjNkQASQAJIAAkgASSAogpFFRJAAkgACSABJIAEQiCAoioEiKjNkQASQAJIAAkgASSAogpFFRJAAkgACSABJIAEQiCAoioEiAOtzQ8f/vbI0MjIsdHo2Dj+tUxg5Njo0NHhw4e/ba0woBdaJi+/2KYXWvNd+2+h92Untnw9oN5vv/xgDH1FAEXVlyuqIpH/GRoeabkJwxdtCQwdHYlEvvJfydELthjbvBnUC/79FW5I9H6bjrZ9fVC8H25Zwtj6hMBnIqpmFnKFQno25qaQFnK6rucW+vIHpP3YH26JOXjo6+PRE7ZNEt5sk8Cx0RMHDh7y4y/0QpuoXV737wU/nmotjHubg953cV+bj/rB+62VGXxr0AmEJKpi06l0vqjDv51CLp2adtU3YVNb3WmSf/XCnEvMGb3ZbOqZfhRVvux3yVoLj44MDbfZbOHrLgSODA37cQp6wYVh+498esGPp1oL497moPfbd7FLDD33fmtlBt8adALti6pYIr1TB02j/lffSZ/rFp3pzE6j2awVUjGXFN0bOJcXO//Il/2KGZeXs9ns8mW3kTklvColD339jUtj1B+Ppi49eLu1sXKmj1Z6zdza2H7zIDnhz6RDX3/j4gJNiwyCF8ajZ1PPPn18cnWqP0oFWfY3cfVp8dPz62d9LQH09IK7j9p86tLmDIT3J5L33+zmb/lD3Z0ScmYlv/Xu/qXJAfB+m4UHXx9QAu2KqpmM3mg2m41aMbM4E4c+Pn5uIauDzGrsrLqpnC4jc2ngumxJCMmxzLQoqo4OH+9OC9hyKmdW8nuV8p596zl16e7z9Ud/txy584vx3+8+f/Npf0/f3/qQf7Kk6qfJ5L13+6XK/vrKjHMMRlt/dPi4u6OdvHB+5en6xsNZf9LNjyWth5m89uRTuVT5+CylZnny4o1M/v3u/p6+/X4jc+NCxyTXryvPNvJPVi7KWTiTel6slEufnl7x0bN6esHdR20+dWlznLwv57TH12dX1vVySX97L6n61/D+fvHd83t/qWWjzXL718P1jbz69/TWBVGtyHct0jL4+7rVW++3WXjw9QEl0J6omoZGo6FnZsy9eyxVILqqlr+sjpH0EJNLA9dDq1pMuj1Rdex4tMfttXvL++vD9069JlM25dLGSthZmLm1sV+qlLc+vF3fePt+t1yqlItr15RxKSYyNtO/ilbe8eLY8ai7c5288PvadqmSv+WOqBtPp268thWRfz4mSqtcfJdf33i7VSGq6/EfjhzacNNv6Q8koa21P02RMM39el7xjh0TTy+4+6jNpy5tjpP3TTnt3UcK3zJIyaoA8z5Rt76/ZvjJy6XMx1KlvKeTLzb8bzOdlEvX1JU1Eub9o988I+yt99ssPPj6gBJoS1RdzteazWY1O22X+ViaLHSq5RNCb8VnMwW93oB/9Woxt5yQxrESmSJZRh6Jz2Z3ahCoXtvJzsVlTRafyxR0+rBRrxalp/B2MWOkFYklVvMsbL22Q9KyaeDic9lilVpUr+mFjJIcWWRazCTic8ygnbRdNhchVFIzoqrX9PyqnDWaBTBezb0gE1HtZ3FCFph1ECUNT57qNTo+CIvYcovcMCAsAZqlY4cyQ7gePfG9Z3vUuwCnb78j349vWyYdyGQE+eq8vaV3QFT99XxLUVEzt8m41Nvbp+QGfTx69g6x4d2dk3ZduAxt9MT33C+Go+U7Tl7oF1EFQLZMsnJs/OTdt6XK9rNUnGWWAtlY8dQ3Mhw/12cebJZIn20jqqJjU1eI9Nx+9pfqHYtTPL3APaLUHXMV9tM6af7aHF4Znbzvh0wXwoCX99/cNY9C0fvGYO3ktSe75dLu87AGVq+/2C/tPv3d4kc1yw510/KWb+/b11BeNvApEghAoB1RlQRNpWcc1qTHpn9JzMRZuYyl8qADmk0qquj6K2kVFIxs1XQ6mQhhIEi9uByjzRCbaGw26jVdr9FVXA09Mw1P4e16IcVyzsbJeGIgQPSdqrJQXVjUqNeqtToJ02ySQTfe6hERVtfZRGajQda480fSBYTaKUh205jq8gIvkZYl98xg1X6Iswopy7SqWbANxCHlR/9nhp2jM7EWQDalQW2hrN3S1MmzF89f+OkHSyPl9aI1quB3/nhKxE3G5mvo72sf9z5kZn/8k7TjYY9U/fzo7Z6evyXPKK3kS5XtJ5YxmJ/Jl2mb+1Y4UjkJ4AVJVMX/c+Hi+bOnQ9crVlMtd6ZubZRL+qubMhAoDxPJ+dsrf8tr3UhI744wYEkArbb14vkbe1E1Hp1cegna2hOOuxfgKa87zUa9Sr5lQcWSqrBn66RF/LQ5siUW4BY+k6fP9Mz7UMU+ZX62tAA3Xmzvfcpcke5LxdWSBSmYd34hMClLfqr2r5miU8FQE5WZ4zUS6AKBdkQV9O61fMJGapi7EGiUmvXiaoIrsPgCzA+SZVcQmIZoNvRskqmo+GKRSKdqdpoEmIXg1axY/H4uS0QSGwlTRElsuUhaxXphQUi6ZBZUj7T7j6ZXs4YRA29MvIDRmhaJxaRxNSPLLFSjmhMHOpizponc86xpUhCISrFf4ykXFtlAXSwJmW0UFzhYCKJn+EctonFAQhTOMEBJazFyaeDOpJ6+18nwAPxtv1y6v14pr6+E0Fy6JCo/gjZ6855pfAgaypMXLoLO64iokm1g1w6iKnrq/vswGnSbFCGbtJe6R1cOUUfsvk13ean45Mp6pbz3IuVkpHF/MvUMNK6nuDFeUbs9u/swFLH7/DqYYZ3+o6+QUY2KqoPtYraWf/OdVbLPpaFnza2TaNxoDXZunTRfbY5UW7WIXa55LZu8ePM1meHifx9fLplHjNxet4MQLDx8sXn/4LSft0IVVaRqb61di455fp04fe+DLylv9rXRdCvuwGBIICwCbYsq+/EbtbzymUDT+qqZHJFFTMTQZkvPMEUFRR90QqO4TGKD5+yaZT5+LvHLNA0vixI6z0dWc8n1h9rAj1RgFuWERAODp6lBOTr6BbrFc609FUB6BpSfSHEmZ0yMGrmX7dHO8dyL3ImRNoizXkjJ4eFeNcdnWuGjIqo4IGGDpsVnCCDVFxCnY1vJFjO9unX14vkLyRtrm3vQsvsUVdC8ip5AXARaHjRF5v48hj26JKpIn62/umHTRYEB7+54ygjJFwG8wDFur9+9dv7CxfNX76zvlku6/01YRA/x/ti4cJIm9oXhKhkvdPU7Gc68lLrz7MM+mav1scjMPiEbvOOwZGr/5fxUdIzkxdFyqnqvci1iF1V0bNzdC+T70vTl5WxmWanC6moBr9bJT5tjMsOZBlvK9uZR6tKFi+eT808+7PscGSVxgh6yet/VlWaAEzDDax2jtbMZxM2Hh+cd4Nu9Yk5OCjP/Ui/vfdiEhXpQdPXNJ6ZNEjwhqCZvb1tGUqXYSEIm7PgRCXSaQFdEFYwc2RwiRUXMzirJJJdFSoZl6bAAw0/Nup7PLM+atQJ/m3RdLLVZUzcWg4Ebdk4VhGno+az6L0/Gs7iaYYnLysbmmoqdrKwFSRYSMDUKWXOwJ8JzT+yU7dfoSJVJrfIQjI9Mhlm1KAGaI2rTxlrGxNTu8I9TN18TGSHN+NCVK+6dq9FETpyaISLA/BdoGtGPYPITxrCK5y7gnbMwHPXCfo+hzwkvFxdozmMVVFS9fyANTlBjLOu1HbIG3/LNXrh45pS6h4t3TvaROI3SGW+BF0C9FV+k5NlA+wiNF70ccYpsOttji9BdRRUICE+54O4F5Wn8XCKRpLuYocLxY+1MtY/WLKkOOtRxpc1REnL2fhQmtpRV2GSic7+45mPUcGw8SicNLd7/z49e2CUHQQn09V1oIkVWIr6562tMy0fBmH9GhsnF14mVl7D51H4bhHcRJVk2YcePSKDTBNoRVXBkJZcgboZKrY8ajD0gN72aLU2LJdJFti4Lljw06nqOT/Dxt4lo4JGaRBUVLqyVhDDyuiTpmufIKR5rFsgbZgXD33a2h2unsERVxA4Qn0BUzXNo3cia073X88pT7xGLAI21ErPUiEv3/QgmP2Has4pucdJf3XD4Htx5UWWaAA13PMAHHO8eiy68S15/BFvcfWzEk7zsYgCM0+j5W2z+tzuiKpZYLVTpSirWEjRglaVfUcVru1ubY2oinGicJMvzTd53wdWRR35FFT1z4cND69Irp9z5uB8/Kat/rrBtXvQuogSOCTt+RAKdJtCOqBKzZeamhBo9vVrQ9fzqyQhVD8bUldHB87bIl6hiqcRnkgvpbH6H6is2ZWYRVdWsZdoLNKAsqmzCyLi5cfa54yF5KCNTEF58R2WiqppTJhcgDHuVXMv2tzpSxe2Mn0uogLipPIDjt2S7DuzHO288poGMZv3k1aXbd+9Y/lJB2lwQTB4zax0WVZPX4MiAj48dlzH5maP0btBt+gkQmrZdmk8ZB3H+dt3GC3duXg0ynEB7LK+ZNZqF2RfbYemAiflXe5Xym0d/8vHO+2Sh+ov58xdmTloFrj/Fby3/pjsxWFNFBsHTi4lEMjG7nMkXq2RBZyBRZdOeyG2OKdFA3ncKbHP/1LWbdt6/HmR+Fkqg18waO8XK/6y00VDYmG3/FWs8OuZY13zOUZqw40ck0GkC7YiqyDRbPs036CnCgq4Z2lk15sLS5jkyNmgOwzxcVigZlmQHuU/WihvKgDaFdJSIv02ewsybuvqKvEXPf2CtpEOYWEySYlwuGSkqtjFLIJT1OC6WNfKzOWwmMG2ej+O5J/HL9rchqhT7NQOQOQsOjZrdSJW/GRYa4aVHm/xoGXHGzP6e/uqmY4tp084S9aA/v+72SgdF1cSFpZdkAdOm68LwFJmk8LFHya7AGL5w8MK4XZcWaKSKzBZZHfH+UdIpRZv7SbK7ynap8g/T126k1L2Z/sYMbFKxeJl4325BmO2iIhjU+fhYOcTIpkS5e4GPbdfyyu8TiG9F4C9eP5WopNbJoT1R2hzlXccvNuPnH7U3UpV8+N7O+y+XbMg4eoQ4dP9ZyvGVH/7KkO0su69uWs49cYzT4mubkGf/vnV3Xj0t3VFUsW0KXtGasONHJNBpAm2JKo1tI5a27DGpwR8U6RFKtHGRtiiTYFR18bbMo9n6P6Dfqjn5lFF4pVFcNosSdnxWTuyD07RIPE02+BhfPe3C0B081Rxb4R5AVJGjGOQ173xnIm2mjdwbHapGV+lzNcZzTwPwlBlMu2YdglSzhlA7yQDJZghAUroQp01zRtom2EVPtlwZjSkcH+B3TZVDtEZsfgJAT+l+YIGXqGJf1gONkBEj2c7H3Vc33Y8I9703StOmU+lsNptOWccpnbtVEFVlmzVVDgu8/FANHoYJR8ti/IvkQE6lkExdJyNVNrvwfk6RYctAI2Q/TJvW5LmMVNFDH9z1N3EraUPhZ52yy+rmFV6/oDLxhojepNXT90gV+8pWdW1zeHK0TXf0CBwPpnh/cunl7seX6rHyjq97iQxfL7rtb526dDe/VSnD4SYuVfv0lSXi/UAjZFEYp1Ty7jj9B43Ah/uex8WRjQiJ5Uw27XRoX6e7WIz/SyPQnqgip7Ow86catZ18NrO8nM7mCvRoSrLimw/88ENcyAj7QiI5u5yj03fGMVRcVigOYOqCaIJp9ns41QIM0c8u5+g5TuQcK/NIDxvOb1SL2eW5RGIxUyBj+XD6DB/PF3qwRsPMMYuk0+G5tDErEsVCOrVJom5UixnIWrYIqzNg3yB9V879YiLB02pC7qGp5bmn4XnKcivMQ7DU4SP5daBctpCFlf4SoAWYwpAAmbPg2LD+QcYn9j48vZE8PfHjT1eg9Sz5nv5zjDZQQ3+KTDjydcpyq82a6dt3M+T4zU/P6TyjTZ8NTXPJR4MrG3z+LlkbVNrNP1ZnTyzx081ZlkNB7fKo0RnyRnFBdiW/llOXr6moIj8OM588OTl1Mjn/jCzX3bwX7qiAncGyGXRSz3p2/En6C0KkkBhbRLdepOzll+uAh5ycw7XdlDS1HHaqbvkQmnzzCt9ozPmLikxH3Jv1ncxCMpFILmTI2k2luTDVPhqD1DppbFiYtALObY5SDR3yOx4doydbksXa//lx/Ifpa/DjSL4O8XeOU65Hfq7pAbw2awpnyZmrpPbdU6uJRTyRfXzBJ4XpYf0fX67Qfa90obpN3tk0sY8F8po2B6fxNJt0R5TF+6IY4AUSCIVAu6IKvgeYF3mSQ6L0rDi3iRoaX8ibloJWC6vGYJKPZmuW/aSgWFRe17Nz1iMVILlz6q88N6r5RTgYS4gqMlRmtrtRzUs/ycyljdIUWqDTULnVIjlDQfyr76TFmTfwim3ujVElnnvfooqIQp4i3ycYswNk8gK136XxPbP0ytjPTH70rdvnVEXH6MjHtuVHfOG7qWVuyLrfHiZQAu9I4lLGPP1kin8C1vHYaQibvsp+pz1v1p28QKf/0nfJrx/yuTDLr+95SSKnyAPchy2He+/uWHb2sbEKblt56/XSeWl0kycB3Wq7Z207iSqqPHwJTY0dFLeT5t/xLLX4nFp/Lc0Fr5/Ki4qoIu2JjzbHaEw4JZtiE528libHKAjvb3f7nKqxcbqtz3qevtP8rHkP5gX4pSkfPzxg5nA2BUdI8Lzrm4//4mf3izLPj3GXx9TN8fDAmsa+btptJzLcoXiW11C8iQRaIBCCqGKpkt3Ii+nM8qzD2UgQLDb9S3KBBGL7loNbHJ9JzC1n0gtuqfCqAku20wuuacXPkXWp6UUSXyt1iUsvctrNL4mFdHoh6XicAQlBEZ1Tfn6nlXQhj4S5+XSJ+EySZMjFDC0yPOL6g8psV7bd0mDeVDk1YeHcn4T+OMDJTErPBO2+r5GkwNayxbk23+CtUQ2P/BsKBzu91lrUPbwwNh798SdYrx3oTAoFhdWqQHd+Jut7LD+ASMsA37rveFIDrMryM5IUyCQIHODX34ZHjlNN1WBLEXjjYKl0ov6yH4a3BLB60OaOnzYHYvb0Pp8J7VU1dPrlR38FjKzKCvzFRpQEnnfbkk9/o5MeY+ZhDPE+oR2bnuYHQbfmVnwLCfgmEJ6o8p2kTUs0wO8aomqA8vXdkaOi/erPi4mrD8lKWP3VjX97tJsW+2FAq4WvyJ568d9U6rmvYTes/e7H/4/8+uWOZX8GL+3974Xo2MzN12S6p+jjx2vNjoDV656/zWd+y9MLY+M/PyKnjW+9XrIMoRnwRbTfHTkKaxrVJVPcBT2sswPgfTZgtv9y/n8Lnj4v6Gir+XczfTjXK/7/TX/k+/0j9ZfOHWL+7sjRHroYk/4yCaCocvzm6q9ADKSoOnDgYJ//nmt0bHzi6sMnK9IBmA7tpqUVJkdfOg6f+I3EpnsmK9lXnrruCjTeGj3x/YHf/59MNrus7ClTCttAeCE6NnNr7eEVm9k9I7MWF5BHcBKs7UiDx4u2sSk3J1PpNV+KinjhwP9N9gqkU/RnEvxVasVNHXplMLw/eS29tuJHvCoOGhsnQ00d+s3KsytP/Ckq8P7BDrkPo0UCTgRQVLXZgA6kqNK0yHf/OmJqB/FjiAS++9cRpyon30cvhMjcGpVPL8ge6eY1et/qshDv9Ln3u1nSMK1uEkBR1aaogr3aDlu1u+nIoGlFIl8dGz0RYhOGUQkCx0ZPaJGv/HgEvSCghX7h3wt+PNWJMOj90J0uIux/73eiRGGc/UAARVWbomqAX49Evho6OiKaIbwIhcDQ8EjEn6Ki9R+9EAp2UyRBvdCrthi9b3JcKB8Hxfu9KnWYbkcJoKgaYFUUSsk4fPjboaPDI8dGQ2nOvthIRo6NHhkaOXz429acgl4IpeS06YXWfNf+W+j9L9n77ZcfjKGvCKCo+tJFVV8VRzQGCSABJIAEkMDgEkBRhaIKCSABJIAEkAASQAIhEEBRFQLEwdXUaDkSQAJIAAkgASQQFgEUVSiqkAASQAJIAAkgASQQAgEUVSFADEvhYjxIAAkgASSABJDA4BJAUYWiCgkgASSABJAAEkACIRBAURUCxMHV1Gg5EkACSAAJIAEkEBYBFFUoqpAAEkACSAAJIAEkEAIBFFUhQAxL4WI8SAAJIAEkgASQwOASQFGFogoJIAEkgASQABJAAiEQQFEVAsTB1dRoORJAAkgACSABJBAWARRVKKqQABJAAkgACSABJBACARRVIUAMS+FiPEgACSABJIAEkMDgEkBRhaIKCSABJIAEkAASQAIhEEBRFQLEwdXUaDkSQAJIAAkgASQQFgEUVSiqkAASQAJIAAkgASQQAgEUVSFADEvhYjxIAAkgASSABJDA4BJAUYWiCgkgASSABJAAEkACIRBAURUCxMHV1Gg5EkACSAAJIAEkEBYBFFUoqpAAEkACSAAJIAEkEAIBFFUhQAxL4WI8SAAJIAEkgASQwOASQFGFogoJIAEkgASQABJAAiEQQFEVAsTB1dRoORJAAkgACSABJBAWARRVKKqQABJAAkgACSABJBACARRVIUAMS+FiPEgACSABJIAEkMDgEkBRhaIKCSABJIAEkAASQAIhEEBRFQLEwdXUaDkSQAJIAAkgASQQFgEUVSiqkAASQAJIAAkgASQQAgEUVSFADEvhYjxIAAkgASSABJDA4BJAUYWiCgkgASSABJAAEkACIRDoI1F1+PC3R4ZGRo6NRsfG8Q8JIAEkEAqBkWOjQ0eHDx/+dnC/+6LlSAAJDAqBvhBVkcj/DA2PhNKAYiRIAAkgAVsCQ0dHIpGvBqVpRjuRABIYRAK9F1UHD319PHrCthHEm0gACSCBEAkcGz1x4OChQWyp0WYkgAQGgkDvRdWRoeEQG02MCgkgASTgQuDI0PBANM1oJBJAAoNIoMei6tDX37g0f/3xaOrSg7dbGytncKUXEugxgZlbG9tvHiQnemzGePRs6tmnj0+uTvVHDSVLMCeuPi1+en79rK/lmIe+/mYQG2u0GQkggf4n0GNRdXT4eP+0y7aWnFnJ71XKe+/uX5pk7fX5lafrGw9ne96xfYYG/J3eyD9ZuWjrCLwZnUzee7dfquyvr8z0ksbktSefyqXKx2cpkxnx3+8+f/Npf0/f3/qQf7IUsvibuDD/eGNzS9/f0z++eXF/VtVPZ1LPi5Vy6dPTK7yeuiA6Ony8/5tmtBAJIIFBJNBjUXXseNSl7ev9o18fvre01L+vbZcq+Vufoabx9S2/k05ZWa+Ut9b+7GQSPc9jewYwQbOZ/rW9eFovvVM3XtsKu5lbG/ulSnnrw9v1jbfvd8ulSrm4di2sQTUyEFUhSu7NRn793cdSpVzS87dMuop+/3k975nosePRQWys0WYkgAT6n0CPRdXoie/7uAc9fftduaS/va223SiqOuYyFFU+pNLZO2/0cundnZOtCyMfqThF/tfzLSJ8LWoJ7ksqauY2GVR7e/tUG2kZNtCaaKioiatPiRkv/laL4tQV8oVn+9lfHomOnvi+/5tmtBAJIIFBJNBjUaW2iR5NYbcD/0Ea7mLmN1O6kqiK/+fCxfNnT3t+MzbF0Bcff/zp/IWLZ0710bKY6JghqiZOzZy/cPE/P/ZZkTC6eRfDpk6evXj+wk8/+ArsEo/jo58zH0uV7Sd/OAboWAGburVRLumvblqm2H5+9HZPz9+S76/kwzNy/tnufjFzTcrXn092y6WNFekO0JhceqmT+55VchAba7QZCSCB/icQjqgaHY3+889/a/Dvn3/+Ozrqd3Td3CbyfkgSLqznIK357tPfeQCnF0O8DzZs3rN81aa23aNrOMiURLm0+zbtf9Hu2ZV1vbwnrXynX7ulb/kd7iwnk7c3tonZ8Lf34eHttW2/bDtrPBVVS7ByiJlXfL3kd4sA7VBNQzin7ryplPdeL3n2sqGUnDOpp+91Znmpsv1y6f56pby+4sOhgYw/df99T+ZJJ4mD9l6kfLEKU1RZATqIqrHx6y/2yey8LO/sGo3+b5rRQiSABAaRQDiiam1trSn9W1tb88nCqXVuU1TB66JvExeBFkJNkbk/OxnHI99ev3vt/IWL56/eWd+1WeHhlLXo2PhJsvhj/81dWOc7mXq2Wy59ePizXdPvEkmrj9iamDePUpeE8UQX+hWsnTSe9NmlSnnvw9MbyYvnLyRvrG3uBVmaM/ti2zTlBIM6Hx93ZwUSW4H36tZVw/iST1E1Nh7EeJAU7+4EUYqMrRDT9CLYCjaYdPOlEam40V/d6FCpBln5/pHdngYq5q5adZhyx2cDhcGQABJAAoEIhCOq6vW6pKma9XrdpxFOyqBNUUUnj4jiUf4Czcg4fhWmour9A2nr09mgIwd08cdm+leQOJYlt05YQrj/a6ZomtOka3R8i6roWOeMh45/9/l1Y5hh6jrRSd4DD4yMOXd/E8FqGrvqUDc/NnXz9b46NUZB+RupGhuPBjE++MAtTFUr1YHUjmDzv/4Hn2iNMK95UmRNG4WZlgqHBVswa++p/Hw2UBgMCSABJBCIwOcpqtpor0W77y6qTNOCp+99IKNN5/132HQbl76/18oOefOog//xhom7b0uVzfQFkc3x6JjjmJwjxraMl5M2XZN8mWeXUs/3Kvsv500hnT7Ciubd5/TAi4mlV+TdpQDrxvgwZAujm9ee7Jb3Xs8r0HEZAVQAACAASURBVIIM7UTHAhgfXFQ5EQty36eoYsXj1Q1DHAdJxasS0VNO3j8yL3Zk5FFUaSH8KGygXgQDIwEkIAiEI6r6bfrv5NWl23fvWP5SQabYHGdYrKNo0bHxFjq5iflXexUyjhJ8RbN51MH/eIOt8WTiKcBIFekg2zDepX8lososEP31kULKgJCi+78UjSICuF9Yxjj9j27aGf8jWdHlOWoiTPJtfHAdPPbbdZsacefm1dMide8LPzNrk9cewylWj/2vMvRSUbJh7Nw4aUmi/JRc+xOyogXECySABJBAiATCEVX9tlD90qPNPXJIoOnv1c0gzTfRSfrz65ZXQJe8va18C+/ySJWLLvF4ZDdSFVwRdnKkamtN3uQ1Hg02UjUeHSNTfmRlunk2zYOMuW+2+N0rgN1IVUBF6Nv41DPY4+ZlkpzlpZfm6kBqx/tHyQCRJMnc8fsHjjps4sLSS7K+cDPAvo0AnOOzGbLGbst178LJB5ulysfHSTnvNtchtqEYFRJAAkhAEAhHVInogl44NeiXyKZxeYrtN/L1N+BoilPkPu9D62yzcZ3OENmsqbKsIDnz18rtu/PiKHYpXVgUQk7AEhc27b4UPryn0M0rxtN9Zxa27Rp/6tpNMjQSaHQQpjVt1lRZVs9MJm/cvXPrL2lZm9Q309G4Z5ZF6x3haaQLxw0oxo/DMnnLSFX7xjMnOoqbjuWUiTnbBfJs5+Puq5sX3OZbf06RIeRgI2Rj41G2ZXX/feZv15FdeuiDzXchE5OgLRWGRwJIAAn4IdCnoioKZwnuvbt/ZTo+cSp54wWcoWzp+E0NZcgf2W588wHNVFSRn+mYT56cnDqZnH9G5js276lnhNJTl8i50hnzYABMYfAfG5kkIxylT5lunRZxGk6+JlsX//MjMf7JB3IQtkWwgr5px3g6ufnhfpAzKlmi1O/RH3+68uAtGZl4kTL14qC5y47n2sMYFdlF2K2TFFjB+4MM5MDWxdMTP/505W5+CzYzmqb/2jae7t+0CE1D3oUnwS1xwhZFm/Pcz98lnirt5h+rk4wW8XQx/aFcquw/SwUy8m9SRyrl4ov76py+RbLDBkzLoaA2aflpHDEMEkACSCAogX4VVWNTV8hgFV8v/CkT4CwlS0/Qqtiim4y2TT8cS6f/0nfJbwJyC62/gzYeHfsTFpfsr6+oIwp2Rz2RHXnWU6pDy4jaqUxeS1MhRc8veHf/ps05Ve0af/7RZqlSfnNXzbtHjmBZ0os78NNyjO3WhvGri8KPcKyDixKF1VQ+TtYWEYZ1cWbpFRVSUDA+PkvZnFPVpvH8MHGz0AwrCx7xwLa+vXd3TIeH8W8aokZw95l/dGieHM7JdxJ4pGWUFqa2eXUTqZgOSaHHuFu/3qjlH6IN2lBieCSABJCAHwI9FlXDI24/qMxWDffwyPJJ6AOcjjyAQ8ldz86emlCWXtk07r77lZDf/WEazpuYjjsb0JbxZEVa679SQg8ld93wPzllGr6SMgKi6lMmyL6E8PBOnj5DTi6YOeni+paNB0Ve0ju1sU5i6AjkZ5DLLX4HgFVZfkaS/Fiihpm6ska+hjnuCjQk2vjwCP6gMu4QRAJIoCMEeiyqvjtyVG0ZHZvyXgWbuPqQnJGtv7rx776zrVdMfKTL9k4GmfsLDy9M/wUcJAsvdanz9gHKkq6L8f+mEr9Dy8AtljhmZObma3Iif9HpUAPHF8ejsH/Q87f5WuD28yOiqNzXsItovzty1M83TgyDBJAAEghKoMei6sCBg6N9/ZvKpKeZuPrwyYr9mmjRTOOFSoAc+uD/oAf1Xf+9uynk37fX7t+++5AccN/l5XcuMsLvI1/Gn1l52pmNdSaSnh9nbq09vOIyFOeQaxh79n9KhacZUoDJVHrN1y8ajZ74/sCBg0EbSgyPBJAAEvBDoMeiStMi/T9YFVKXL3UADl0OJtQeAXJqAFmf/il/O+m2Aa29VDrkx4E2vkNMOhLtd/864qdlxDBIAAkggRYI9F5URSJfHY+O9WU/15E2HXOKBJBArwgcGz2hRb5qoaHEV5AAEkACfgj0XlRpWiQS+Wro6Eiv2llMFwkggS+BwNDwSAQVFf6IDRJAAp0k0Beiiqq/w4e/HTo6PHJs9Eto3zGPSAAJdIfAyLHRI0Mjhw9/6+dbJoZBAkgACbRDoI9EVTvZwHeRABJAAkgACSABJNBbAiiqOnJSRW+diqkjASSABJAAEkAC3SeAogpFFRJAAkgACSABJIAEQiCAoioEiN3XwpgiEkACSAAJIAEk0G8EUFShqEICSAAJIAEkgASQQAgEUFSFALHflDLagwSQABJAAkgACXSfAIoqFFVIAAkgASSABJAAEgiBAIqqECB2XwtjikgACSABJIAEkEC/EUBRhaIKCSABJIAEkAASQAIhEEBRFQLEflPKaA8SQAJIAAkgASTQfQJ9JKoOH/72yNAI/kxNd367A1NBAkiAEhg5Njp0dBh/x6b73Q+miAQ+PwJ9Iaoikf8ZGsYfVB7HTg4JIIEeEhg6ir+4jCP3SAAJtEWg96Lq4KGvj0dP9LAlxaSRABJAApTAsdETBw4e+vy+PWOOkAAS6A6B3ouqI0PD2KAjASSABPqEwJGh4e40vpgKEkACnx+BHouqQ19/0yctqbMZU5cevN3aWDkzhtNzSKC3BGZubWy/eZCc6HlRPJt69unjk6tTzrWmt6CsqQdDd+jrbz6/th5zhASQQBcI9FhUHR0+3uft8pmV/F6lvPfu/qVJa0s9eHfOrzxd33g42/Ne+TM04O/0Rv7JysUOlufJ5L13+6XK/vrKTAdT8XTN5LUnn8qlysdnqRbMmLp09/n6o787Zf/Z1OPXT29dsFTMgOiODh/vQuOLSSABJPD5EeixqDp2PNqp5tWzb/AT4NeH7yvl0qenVz4LRRUdG/99bbtUyd/yk3cME4zAynqlvLX2Z2fLMxM0m+lfLbohmLUtvz5143Wrwo4pm3JpY6UTlM6knhcr5VJl+8kfdrkLgu7Y8ejn19ZjjpAAEugCgR6LqtET33eieQ0pztO335VL+tvbZ+3a6C71YSEnjaIqpLJh9UtXRNXYePTsnTd6ufTuzsmelMC/nm8R7Xgt6BTkRPI+MVvf3tI7Iapmrr/4WKqUt3a3HUVVEHSjJ77vQuOLSSABJPD5EeixqOpYD2ft84Lf+ePpVqVczPzmbGT8Pxcunr/w0w896d5aSlQSVWD82dNBe0dnGsEJO2dh4tTM+QsXz5waoFU7hqiixv/nxzCByNh/znx0kw7OVOVIWrqeurVRLumvbgYfuP197ePeh8zsj38+2e2EqFpZr2y/XLo4sZJ3J+Mf3efX1mOOkAAS6AKBcETV6Gj0n3/+W4N///zz39FRv4Pn9i37r5mijZr5+9luee/1UtdEAOiPzXunbLvG+Gzm7RaZa6B/228e+f7ufnZlXS/vSSvfJ66Cegv+7d+enmufSkXVPTZRAsbvvk37X3HceeMnLiy9JEt2+N+nVzd9jhROLr20DuGcuvOm0p1iQ0XVEix7YsYXXy/53d8QyPhT9993YarRWpAmSR73XqRaKHgnL1yE7x4dElUz5y+A/vYSVVHf6LrQ+GISSAAJfH4EwhFVa2trTenf2tqaT1IOrTPMu+0+l9dTTyy92qt8fOxvKQlIB94ri+452FqiKTL3t/v0d2vXMjb+86PNUqVcfL1yhYxUXbu9sQ3Lh087ZMcsy06Sxe/7b+7COt/J1LPdcunDw5/tEvIZof9gnMz2+t1r5y9cPH/1zvpuuaTnb/kULmPjnTV+cp4II/1tOpU8f+Hipfmn73VHL1hzPftiu1R5e1vSwTAy4bfYWCMMcocIjlKlvPfh6Y3kxfMXkjfWNvcq5aJvrRzEeJAm7+4E+YLBzDPUKlgbbBEYqP/1FXN5DkKpQ6KKm+Qpqsb8ovPZgmEwJIAEkIBMIBxRVa/XJU3VrNfrchou107NMUio/ZdLYvYHZJbvdSR0/oWIBuUv0Dydc+sPgwp7r+elLu23xx/IDkG/wxJjU1fIgvHN9K+w7DeIpnEi5vM+FVXvH0j7ts4GHfbooPGggZRV2KQk6B+fpHiv6S49zWOcZHSzW8uPQLXsPr9uTI1NXSciL3/LuOOaiyDGk2k4B8XvUBLoVLWpRgScYPWWLK4ZJL5zrlbunvX51IeFPtG5tFr4CAkgASTgRKBPRZVofJlwIf2NrLE82+72Azi3/qnne5X9Zz67eafOgO5F0vf3Wtkhbx518D/eAKLKNKd5+t4HMlR23slU6/22jHdxDbXkfhtLsJUxTos0d0maPeIjeWKY0/9OSeIU89QYFJWX897pghIKYLxPZeAgsHzaYwnmKln8oXOuVtZi1sIdVwspDZ/onFpMvI8EkAAScCEQjqgKe/qPtOYn774VUzlkZkSdDXTvLU5eXbp9947lLxVkig1af9sZFh8Nt7t59OnE/Ku9ChlHCb7O3Tzq4H9BN/R8ZqHgs5uRM9WG8Zau2ug7Q+hxQUhtP/trPDqmaBTZeJdryxin/9FNIqrM6hb2OvifL/NtvNvctEPufrtuUyPu3Lzqd86aREtL/lV7D/pDF4KLHTIIVnnXTb/oXBpNfIQEkAAScCIQjqgKeaE67WVhlo1svhMXRu9r36yL1vbSo809fd/y9+qm7xiiY+NEaujPr1tfIWKotyNVHtkXHKwXIKre3lYmpPpnpOpimoyZtTNSNR4d4xsazLNprUOzYrS7Q0XVNeVRsJEq/8anngU+mGDppU2N2H//KKkYbC3t8p0k2UHy/kEQHSa/Tq57Lqr8onNqMfE+EkACSMCFQDiiyiUB90fuDTodoLohDVm5hw/36ckHm/bbs2FD2daLlLymKv1h+33GfE70mb9Wbt+dtzuKHVbbkBOwxEWnu3wWP52jsVlT9SJs409du0mGRgKNDo7DYu3Ne9Kq+YmlV1ufXpnPyJ5M3rh759Zf0sowqfOmo3HPLIvWwy0elthgTtZmTZWycJ681b7xMADWnrhprbwxRSKV/KDxeImqloqN4QvPkSrf6NwbLnyKBJAAErAl0NeiKgpLqfb07myJt3QPbDe+vCCdhqErtfffr81fOjU1cSp5gxw8uP9yXiyrp8GglyVnQ5gHA+Cnb/iPjUxeIyf3fMrYbjM0egtJNLRzk4oq8hsj88mTk1Mnk/PPyPkFio6B+Ns2nk5uBh12oidb7uZvX/3ph7H4f67CiZGWrZGXyEFNZcej4WGMimzE6+IBHNExRmzv3f0r0/Hojz9defB2r1JWxTcpGG0bT880t2i1kEqIe+miqjf4ee6nryzR6fgMOQL003M6NW8z+dhasfk1xeb6oSa+ydC0rII+ADrb5hJvIgEkgATcCfS3qKLLYip0iYxF9HS8F6G7t7btfjh25ubrbWl3+v57m3Oq/nxM9Mr++oo6XWJ31BM5l8v33nv3bs/9KZ3+S98lP2jI7bf9Ebd2jT8Pp068uavm3YfLJq4+JMcoCPN2bc6pgmMdXJQorKbqdrEhomrrxR34XTxm/9aGzU9Gtmk8PdXMqtXc/R7aU9gruvfuju+NrrTawgCV8Cm/MC9BGxtvsdiQASqpzLBr89rBQOjc2018igSQABKwJdBjUTU80t8/qMyOTbI/xkmszHU+O3tqQlm91H1d6Jzijz/BeRMuC7HbMp6sSFOPjArSr/OV+C4Hvk9OOU9Cgaj6lAmyL8EZlA8hqGZt6uRZcnKB2+6Blo0HRV7SX93oXblih7R15jtAe8XG1YlB0A2P4A8qR2w7DLyJBJCAO4Eei6rvjhxVOyTXZjFw9xZCbGzgRH91498hxNbnmQ3PPBiZ8H2uWHjpgo9g+q+FQbKQzWituLoY/296MupmgBPwW7PB4y02TFt85PILTq1Vlo4Vm4Dovjty1L3dxKdIAAkgAVsCPRZVBw4c7O/fVCZ9w8TVh09W7NdE90U37NEFtta9tfkWGWpyG6rpiM1/3167f/vuQ3JGfLCDMdvMbCiv+zL+zMrTXisqmtmZW2sPr4Q/WtbBYuMf3eiJ7w8cOGjbXOJNJIAEkIA7gR6LKk2L9P9gFSqnASFATg0g69M/5W8nTZsGQtE9HY1koI3vKJluR/7dv464N5r4FAkgASTgRKD3oioS+ep4dGxAuu1ut++IBQkggW4SODZ6Qot85dRc4n0kgASQgDuB3osqTYtEIl8NHR3pZtOJaSEBJIAETASGhkciqKg0XKKOBJBA6wT6QlRR3Xf48LdDR4dHjo2aWjr8iASQABLoHIGRY6NHhkYOH/7W/QsoPkUCSAAJeBLoI1HlaSsGQAJIAAkgASSABJBA3xJAUdX6KF/fOhUNQwJIAAkgASSABLpPAEUViiokgASQABJAAkgACYRAAEVVCBC7r4UxRSSABJAAEkACSKDfCKCoQlGFBJAAEkACSAAJIIEQCKCoCgFivylltAcJIAEkgASQABLoPgEUVSiqkAASQAJIAAkgASQQAgEUVSFA7L4WxhSRABJAAkgACSCBfiOAogpFFRJAAkgACSABJIAEQiCAoioEiP2mlNEeJIAEkAASQAJIoPsE+khUHT787ZGhEfyZms79HAfGjAQ6RGDk2OjQ0WH8pZfut+CYIhJAAn1FoC9EVSTyP0PD+IPK4x3q8DBaJNA1AkNH8TeJcfAbCSCBL5dA70XVwUNfH4+e6FqjjwkhASTQUQLHRk8cOHjI9bvjuYxer+bm4lqXWt6ZhVyhkJ6NuSQXm00XCrnFmW6Z5MrHxU585EEgNpvV67VCKoaEkUBPCPReVB0ZGu5oE4+RIwEk0GUCR4aGXZqzy/las9msk37Po4N0iSTIo9WdJvlXL8w5vpUAm5pNPdMdkzCVjhGYyVZZ8epYEl0qt2j/QBLosag69PU3XW7uBy25qUsP3m5trJwZG5jJwYmrT4ufnl8/23ODBw+dV+GcubWx/eZBcmIQCsOhr7+xVzAzOdLn1fKXu9czTWd2Gs2mNHoxnUpns+nUtGRhiqiqhp6ZGch2XMrIF2a/jSsjRhHrXhn7wrAjWGcCPRZVR4ePe3UkPe+be2nAmZX8XqW89+7+pUnFjIkL8483Nrf0/T3945sX92d7oGCmLt19vv7ob6v7zqSeFyvl0qenV1SbrSE7eqeP0SmutIFwNvX49dNbFyzBJpP33u2XKvvrKzM2b3VTaf268mwj/2TloosZR4eP2/b0C8VGs9koLvd0diZVqMNQma2FeHOQCNi7Eu42d9JuE74og5BARwj0WFQdOx51aZe/9Ee/Pnxvp07IUFClXKp8fLORX3/3sVQpl/T8rcC6Kpn+sP9yydJz++mbWe9eLm2s2PqICZrX8z0bU+lbdF54mSStbD/5w841k9eefCqXKpvpX+2eekVu66zgN39LfyiXKuWttT9d3j12PGrTN8fSZCauq8NUdu2mfU9sF9L5+6hN7jBw9wk4uHIa5gCrWXkwEv2LBLpBoMeiavTE9y7t8pf96PTtd+WS/va2WS3R+4aKmrj6dKtS3nphM2jkCvDPJ7vl9ZXAffNE8v4bvVzSt7d0R1EVHZu6srZdqmw/+ytw/K42+4ytT9F5ZW3m+gsikbd2CTp7UTU2Hj17h/B/d+dklySUmfmZB5tEx3uJqtET39vIDljdVMsn5UcLOV0vZhJafDZbrNYbjUajXtPzq0nLiqv4bKagQ4BGo14t5pYTynBXLLGcYxGYY0hkipBGRNOS5LJahzVWVV2nSZOmlpih5xa0iLaQ29H1wqqpP55eLej6DgQg0iGWWM3rNWqNjTHmDJKUTP+KmYS/Jj4+p+Q7a17gTzK+w02p6YWMEoDhjc1lWZi6nl8l6/Hjxp1qMSut4l8EhyRJANkhKm2SQZNhxCFGjoB5boG4lSdc28nOxmUyNBKeCvGag/HJ1TzzPLGeWeLoShJtLKM3m02iqgyTzEnjIyTQAQI9FlVe3Yy5Qf+Cwv9BpFIx85sly/PPdveLmWvSfSKPnAaNpGAAczJ1b23lynQ8OsZF1eTpS6n7j1esCdnD/33t496HzOyPXolOLr0E1dWDwap+RWf2hVkVraxXtl8uXZxYybuJqrHxnzMf3QN4JWTvWV9vgaTbevH8jZeoio6NW/uwZTL3Vy+klH6O9H71nYLeaDabRFI1GuTKtJI9lsrX6G0phLRMKpYqkNXvzWajXtWrdREDtYEPZ0Q0jU4MQVD6X72QgoYVOmE9o0U0NsqRU/pjenMnDVLvXHoHZBlJjehAiElas6W21BCzlCK7NHOw4tK0SGw2V7Xkmyz94knMCFMkMHIAwFvV6wRNrSbI5MkyM+lWQ8/w/Lo6hKfr7BDmXABd0yW3Qr7r8syviKRRr1W5bfbGs6JB2VWzZOmboyuB5DSs3QOHcpttCeNNJBAugXBE1eho9J9//luDf//889/RUbuRf7uS7dSO/07GOfK3pF7n1ka5tPv0d+mO07swTPKxVPn45OoUDzNz+92+3zmyXzNFGzXz97Pd8t7rpa5JBCCwee+Un/7PS9/I0K4+fL9LhhlKnz4W9fLWp80tGHUovl7yuRb+5IWLP5AIvRO9/mKfOLHrK6v6Fh0vjU4+nTl/AUqsl6iKnrr/3oem8UrOyQyX+1CPdp9fn1xZ92GApamy7+eY5mhUc7N85Cm+SBY9NRs7q+wO7T/rxVUxFhJfEEFILw6RwIZC2s7E6Bs7q/ARPkgihn+WLYQYaB/MRjly04b4MzSVFpmGoI2dtMWYIhno8vqLrRI9I0sH51dYvgsLfIAnlsyCTGETW8yUak6MAPEAZIoVLKF4jeTikLy8Py42B1sfa3k2ckbfaIJDWHZMtLmgqReNAUUpiMGc5DPLh7jiC0XiVWP0iOau5pg75lairxfi1JJYAub1GsVFBs3OlfQRezLr7RFn/vguEghMIBxRtba2Jn8RW1tb81lMndr99kQV6fIffyIijK6VhgmL/ZfzQmO5dBvj0TGYPNp9PitpkYmlV3uVj4/9LWQB40G4gF6hcyUmjeiUcX5/isz9+RSR0MW+f+S2aphHyzL+w6+pNFnyTBZmPVu5drIV3eMtqqJUHFx1px360/5H55VlT1FFFe27O0EkPpFBvCgaF+7rokzFBpbK0XrUmqgSHaDSTtE+nAyUyHJkJkdGnmgH7LASi27yovICIqnKMig2/UtihmkRnjBPl3+WU4QY2MAGTbCaEyZROUglGpwIQfQejw3MhkG4RnFZuSnHz65nMkQUEfnnFVKLGPmWyUxn9UajXiCqgh5OQYbP5AAxZgtVeJCvWv6ykRzMwSqmch40jHCI8YqmRQyHOBmmnYPBoWoWxCjE2dQzsm1zRAg3istgLctd7pxiPCVN0JPUwRRJDZObcI8HoMNVZLRRJgDXs2w3gpILazC8gwTCJRCOqKrX6WA4H9eu131aaWq1xce2RRVberL3en4C1iwX167574FAQu2/XBIiDGSW71UsE6dmzl+4aPn7CQZ4vDpUpuR8SBYWcur6i+1S5e1tX2NaPHVY77z3YbPY+lYyHxbCNFwLy7ZEMWjpwodhPUbHvSCpdiWn3qJqPMjALU0u/h+bMnnxzClRyL2sOrWyrpdJhSJmhy6qqlmzyEjC8AnoGDZraDllSkgdLUJHkpqNajGXXkicMx0rqoqGiG1PDH21mC0C4SF6bkiIjY7QRGvFrOlfkYhAj2Ou2PiZInGss1hihpTl23GshZoibDbUA7zIRp7UfJEwZhrmO1S1ZM1r2uhRXjurmhZxMow7xD4VLpKYwRBJQ8+bOOaZ6DRElSmD3HyqosQni6ii6svDI9a38A4SaI/A5yuqxsbpF+s9vYXt/axjZjqMTAjKGsur+3HqLAPc96sM6D6794/8roiCznvm1gZMhp4a//nRpjpP6j9rPixsSVRZxvmUWWBFfNjz9GEYvNgLdObhIvuBoo6IKv+etQ05deM1KzPggrBFFV/YJH8ZM9QAuzJEAw/Gg5BGML6QIwuHxL96rZjmE0+85+Ux8M88HnKfx8XCQJfPhr5ATjSKC/AI3hWpmC5cu/BzMEjV0DPq2Ays6FYXsbM17CaTZGvhWmSD54t3BvyBTb58iiq7sR9ujoWVYRgLQtKVbRABeBTCMBM//pGXBzk8j4RHTDMrPvG882ARGKlSBuTEI7xAAp0jEI6o6r/pP9oxXIS9363sQTt5960Y/pl9sV1SZwPdu/aTV5du371j+Uv9bC8CbPswUAZe8ztUFuwFPRr07Mr6rlhwRs6TLGau/V8BbKMG+9AusC0x6EiVZZwv0AgfX+zVp+jMw0X2A0XeoirIFCfz7G/XbcrknZtXT7sXZvp0Yv7VXqX85tGffPz1Plmo/mL+/IUZl7ljS7NlP7Ji13GS7XWweAZGKSCENBknNAR/1ehQY9O/zC1ncgWqr8jqa7sO3q4n5nHxyOFALdioCGNm4hgIPqtkyR1/0TBGvsMGqQKdI0/zbRnDE9Eqs2myPTx/JKQ5X3ZyRw7P5tf0jBwhuRYOYXEqk60sMEuMpKvGyWyWjfHKnb3xbDkXV122g47UGFsDzJmydxazFgMjgRYIhCOq+myhOpMpbYxUjUdh8xrZfCcufMuOS48298ixnKa/Vzd9xxAdg/kd/fl1x1fis5nNvUp5y/cCcz99Z5Aw3qLqJNl7//Fx0lY1dvAmmRrra3ReefcWValnbudZ2Ma/9NJcIEn5fP8o6cfpBKndkiz3TYjW9kielhJPoXNVZ8RIV8enmLSIxiae6M47qcNjQdh6mlhMXr4j1gCRm+b+lX8WNtiJj0WyVbGWT8DCJbHuW9PUmUHeK5tSl2Mmm/ggRWO1OH/LFMz00ci3Ev7ywvLcDCzcZidUSOulIAYuXmFGVdYxNH6ee4Okeoc7REk0wh1CJmEdDOPTgrC7U42TpSUbw8b/zKvQYjFpIlgOz+Hwc5UcKQAAIABJREFUiKl54pPJWo1DMN83cs0jxDtIIEwC4YiqlkunU4N+iWwal/e+/UYXnvvb/Qedylm6Q+rahLhwFCi2ndA4HaC6IQ1ZOVnbifugSBwOK5pM3t7YLlX232f+DrJOyz6brRrvKaqmvMRNuPYYsfU9OsNUe/ieogrmVd8/8DXIZJ9EwLrww7RpjWBrI1URsa1ObjGg4zTvhqM/4MaljPRrgUYfSZdFUzUGuwXJOe1G4yinxXte/pR/tpihLN+BULUiWSwldsaRITQ4wNR0KDwY0yimDfN4WlpEC7I4XTZJo/mu5aVDpNjeQ0rGdiMhXadOjhMHY6y6hOfesFC9IxwiT1Oeg4FDrn0NhxiRaMavw5CbapwsmGIMjaSaE8dDEPXJpl3lrYuKU/yOVBnulyy09Q7eRAKhEuhTURX96/kW/DzLlen4xKnkDTgU0e9uuLHxKD14mv9Sypm7b/fIiuyAnRAspdoji3O7d5KC0QWeuvOmItYFy93w3+RUqkq5+OK+OsMYaHpRjjDQ9ekrS3RmM0OOoPz0nNpgM4sE+wOCH0kayBiHwH2KzsFaoW9+TTGHktK+/yZDOVvdCsubgm5NEKmEc9HamipxJKNyBBR0tOSsp0a1mFlIJmaXs0U4m0naYccmz5p1PZ9eSCRnyWmX5JwlOPVIdOHNZm0nuzyXSCQXMkV4Xs3Bb/mZO3ja45LYsrl8ZhaaVKW/p40s7fXFJkTR8lKRxI1JLGQKcJqow9ReEvYxNhs1dd0UOWnUs79n+W7UdnIkX4vpPMxr8mlNTaPrtAg6yPgiM6VJT3Ii8VvzZaZhFkCqQwhtySEMguyQxURiTnEIhLGmYjFG5I4azyMhA3qMjNV4s6iycyURZ+zofuWYWUWwCm/iBRIIlUC/iqqxqStksIpPOnzK3F7b9i2qpq6smc+pYkuzzaeTu/dzsOmvZ8eC021929JpW9Ra82JnTinogm73vDs9hQEq4Rd+YVlwDQcaVTbvBQPulGjQ+/2JzisXZICKF3jjwuxWfoB+yv9uVkOph6OoWt79R4Z54JQkZZM87Thzq7B9jq9UbtbJMVByLxhfyLNjMFmYRrUAJ4OzBvHcasH6nI21WDt4povocU0Qg13/TXcgwsEOarMbm80qq+LJ8aVpecRFshwSF/mSLlxXtQu9ZclXXc+KA73IUqckP/6TR60GsObLSkO94+IQYRXsDLBxiDG4pcbpJJIsuWtU8ynD71bjzaJKi1hdqbEhPna4g+QL2X68RgIdIdBjUTU84vaDymzN8tnTPe0/vPrC0DoqS0KT8+RQ8lZ+188SVeeMtImZitpywD2Jodo8qOi8IJwl5xqU9Fc3WjlazCtyG1e2/srwiP0PKvP+zpj0MTpOcrTUYjq9mPhl2ryfn2ma2PQvyYV0Znk2SRcVmftLGkNmedZyqoI5JJEj078kHOJRJZTNuySAlzG+IvHXrMfPJWaXMy5kPAMEMIY7RIsQQgvp9EKSOMQ2hkDAbWMgP3fjlTunF8V91ZXT/Cwwe5vFW3iBBDpAoMei6rsjRzvwNbr1nqDfjJm4+vA97UT/PTCZ+vkR/IBdz1bQM1CDiM6j+P2biuzNtPFTAf1bKr47ctShS2OTPtUsG9Xgfbg/edGBRtDBzi/WHu6QAUVNR66kuWP0LxLoJoEei6oDBw7ibyq7d6UTVx8+WZlxD9NfTydT6TW/P3rTUcsHD53XWNGZlacDoahGT3x/4MBBx4YMZFWtuJqAbpv34V+siOm3jHOHDKaoOrmQrzWkHywazFw41h3MTt8T6LGo0rQIDlZ1VFhg5Eig+wS++9cRj16BnEDAxATvw/tNW3yx9nCHcAd5uLIPg0mla/CM70OeaFIQAr0XVZHIV8ejY91v9zFFJIAEOkHg2OgJLfKV/87s8nI2m12+HKTZ8h85hgxOgDsEPYIEkEBwAr0XVZoWiUS+Gjo60on2HeNEAkigmwSGhkciQRRV8C7/ix1AwowjASQwAAT6QlTRhvXw4W+Hjg6PHBvtZh+AaSEBJNA+gZFjo0eGRg4f/hZFEhJAAkjgSybQR6LqS3YD5h0JIAEkgASQABIYdAIoqgZgOHHQCxnajwSQABJAAkjgSyCAogpFFRJAAkgACSABJIAEQiCAoioEiF+C+sY8IgEkgASQABJAAu4EUFShqEICSAAJIAEkgASQQAgEUFSFANFdt+JTJIAEkAASQAJI4EsggKIKRRUSQAJIAAkgASSABEIggKIqBIhfgvrGPCIBJIAEkAASQALuBFBUoahCAkgACSABJIAEkEAIBFBUhQDRXbfiUySABJAAEkACSOBLIICiCkUVEkACSAAJIAEkgARCIICiKgSIX4L6xjwiASSABJAAEkAC7gRQVKGoQgJIAAkgASSABJBACARQVIUA0V234lMkgASQABJAAkjgSyCAogpFFRJAAkgACSABJIAEQiCAoioEiF+C+sY8IgEkgASQABJAAu4EUFShqEICSAAJIAEkgASQQAgEUFSFANFdt+JTJIAEkAASQAJI4EsggKIKRRUSQAJIAAkgASSABEIggKIqBIhfgvrGPCIBJIAEkAASQALuBFBUoahCAkgACSABJIAEkEAIBFBUhQDRXbfiUySABJAAEkACSOBLIICiCkUVEkACSAAJIAEkgARCIICiKgSIX4L6xjwiASSABJAAEkAC7gRQVKGoQgJIAAkgASSABJBACARQVIUA0V234lMkgASQABJAAkjgSyCAogpFFRJAAkgACSABJIAEQiCAoioEiF+C+sY8IgEkgASQABJAAu4EUFShqEICSAAJIAEkgASQQAgEUFSFANFdt+JTJIAEkAASQAJI4EsggKIKRRUSQAJIgBE4fPjbI0MjI8dGo2Pj/fw3cmx06Ojw4cPffgm9FOYRCQwQARRV2J0gASSABCKRyP8MDY/0s5CytW3o6Egk8tUAdTloKhL4vAn0o6hayOm6nlvQnBv6mcVcoZCejX3evjFyl8gUdb2YSRp3XOC0+GgRqC92Mglnh7Zoc0TTYrPpQiG3OOMSQ2yOBFk4N2hZ6wSuLzTO+Gx2p1ZvNBqNesG2YTl46Ovj0RO2qqX/bx4bPXHg4CEs3kigYwTC7x28e3mXJl1+1H/Ne3ui6vJyNptdvhxyS53Rm82mnpHBqderO03yr16YVe93rEiFnMHAdqYKdZLdVOAXA/Dh1AO80mssWkRL5GtQFvSMozFGkMHKGlobFoHLrJAQUdWwb1iODA33v3hysfDI0HAnGwfHyoWJfhkEwu8deIztFq0+bN7bE1UMTBtcplPpbDadmpaLpifu6cxOo9msFVKxsJrdPo8ndFFlo4Y59T5HYTYvRTrMhp6Z4YXQmjURxPwufwXv9ycBqytbsnOWfCVp7qQdB7YPff2Ni14ZlEeHvv5GbkU/r2vRT3xpdbZPMh5+78BjbNuh/de891pU2cmF0HC31AT3Y2NkR6ktOxliuUBz6oMOzSZrcjbxenAIhORKiKaajTlm/Ojw8UFRTi52Hh0+3lab0NcVX7SAjk78TPPeJxkPv3fgMX6GDkVRNQhOFTUrrIbPprvihTysJHoVj03WBsHFvcLVz+mG5Epesh2LwbHjURexMiiPjh2PfqbCIqJpogV0dOJnmvc+yTivQ+E1FzzGz9ChYYoqWE6dW9CkVaG1nexs3KG4J8nq6yoZmW/Wq7pOVmInwGcc97mFHF9daorHvHA7lljOFauwELVRr+n51YTjUD8YE5/NSsELmdk4c+1sdkfXd3Ip+fVYKgc3F1gYObFGvVrMzsWlokbW3xUzidicWBmr51fJMuq4cadazM4a35vJGkCyCD0+x42yZEHULCMhxyw40BZlF5Yc1hrNZrNRI9T1HF2czqnPLKrUxYsi+6t5nS76JbnPLSedJ2F9ZI3mKD6XKejUfzTShMGHpCszBzpGotKCR6eswX2azQXiy8KqMt2sadOrBeJ2voQ5AFtIHTAq/xUzCTM3W7+QfLEyTguukS8Ib3pOSqoUD8MbM1Zh6/lVsh5fqoGkfEoOCscjPmt6LOFSVLjxJAyruVBxKTdwmU0ptaPqUnjAPXI0trs9Rk98PyjKycXO0RPfS2XDAOWv7ojw0CzzpthcCFnLBGFYuwEvxpKiHLPqyYqIiDaikX7BvtUVqUiPjTYcYjL1EzRaS87cm30oJ7zlor2EbJ712lT7DJM4Z1MAtXqaOymIn7VWLC33euSccehNJFiFjF0fJHqcnTQ32JpH6Y6pHin9Gu8djA7INe8sWHxWadazop/VtAiPURjA+tlC+v+l27IuG2lFAJvSqMaW89BkRzQN2gqjNHqWCkuz5F5sJDN8YdQiYYoq6Pprug4dNiwKpevJi8uyRhEQITiEYP+RldjkKeCu7pjjaeys8ngUkRFLFehi5Ua9qlfrJHVY1S0SUi9iqTy0ss1GvVatseBiUc5MhiRbL6R4px6DtMhzsE1KTH2boyfG16t6vUni59HXC3myCky61dAz0+wVeGOnIGVXZME2vxHNPQvcEocSAHRl7HoGQrpQNwDOpHdABTcb9SoRsRCP8+I2H1nTIiI3TSgzNE5YMcfSlZgrDqYZBLvp6mPXrNFsTmerzWazmuPwIQl6kyy6CczWkiQlWy+kDGgOjojMrBYZTCnjpOgxD54TsKXnDT0jtjECXp9lzX9h8+ERPzXdq6gYxit+r2aholm4slJqpupReCzR2O72cFEqg/XIWtJ81x0BVrSt9I6IQPJSbYe0AsIjbkF4tMJPtq2uJqKwacPBILnBopXL7RUrB4027NAGGy2X1M5bXjnnWDt9Vk8BUm6QoUCKXTXu9cgh40aDaWbJE4KqpZM+qEm8ZniKB7BkNhKbzVVpy6u2NXxXNbObv+jZNEW02JxDjKxI8BhZMaPp034WNqLV8sb30uUi2EaabZ4FuFXNTUc0jcdEHnmWCsNycw/GYxZJtHwRuqgiq4azXPrFF6DbqGaVPky23q7kAaRms76TNsVTy9OhLGMwmEQFwaXqQWVQc2fVFgotqbXCIh9eiiWyoGe4kYasgi6WLHIVkktL5oh+qxcW+IBBLEnf3lmVywq8QbMZXwU5JQm12BxsRhKFhmW3Uc2J4av4AqytJTISolUpeWbBNuPKTVYOmc3wSKZO7zPv1fL8KIdpCNMw/KLFF6mhRT6Mp6RCXdNsumWN+rJZL66KQRop98AQUgWxQZEaDiZ2sqzQR1qEVzFL1lgfEIPwtDayMIam0iJtso2Bt4UEV2nIJkU0BtOoLCaY7Hk1J77e8ZJay7P9tpAVUtaYzFLKGgCJzfKyxvjQV9r1CKXkVtO9iwqzpC5qYiwJgrdhlCUIInogO5jUELfCY1NCRFHhF47K6Y+nW5Xy+op0CuhKvlTZfvKHdMf5jNCJq0+LlXJx7doED3Pm7tu9yv76yoxjijxkdOy3x5/KpU+Zn407JNHZF9sl/dXNSXsDrIgAoe+6Q4AAUv79ltdOo8rzQmiIKuYDEoSWcDkIK/M0jHOrK8xk4Y0qznykWkVuer6iVDdWL7PmRsZo3HhhoAyl2sni4a1SkY5ne1dPYbIcs1qkKRa3emRyB4mKs7T0QaQHg7QgkSZpU6EDjcX4l3PZEuWaxmnTr/E4md0KHLemiTWkRu3WeKng/SyPkeClfa5oNmkbrWe42QxTs8nfZRCYHuAxkRzBtbMYkJole7daa1ALd8IXVQYLksk5ECXFZcWFUnEHXqavjwBGGpci707nyAgD3w6tvAXBlbGH2PQvyRk+o6dAiaXJaQy1HBfg1BIauehoac9YL6TikA4MKjH74zML6VxaPdpAMYb28aLbI/GD7m4Ul41c8zfoHbC/qWeI6Db+ZkC+sTLNXyABfGXBiEeO07iGNNXuSlCX3hXUwTDYmW7yS0SDrwyN4rIRuZEL76yx3OQvq6+fA3dXs8AEYhHeIebFpn9JzDBdy7IiEmWfpVxwnUWToClKX3poJndW22dr6HE5dftrus3fvCVtuVBv1PVsUtPEc+X1GKMtzdjW8tI4OS9rgoa5UQ7HI1Aemy413UdRAUtE500NhnuGa2xcqdKgtdm18PRQVEXHxn/PfCQi7OoUUVFn77+vlPdezwuN5S6tTt59W6psP/tL0k+TSy/1cjHzm9OLaiUirDhRg5tb3SFeEG0NeYVXbt69gZtoDeLjHyKIkYTGGqkma2G8myxuplFuTW24YhVk0/MVxZ7py8vZzLLy3Z533VZoTrWP1U4yguKjegqTjUyZv/J51iOTO0jTx3owMVwN2RQ9GKQFaCwNtWyGes3iNNWj6axOjnWTmhr2vdRH3o0YZS+wGKkqBSNJh84UlTSmoFHX8GERSG8nT5SEnqHCHc5R4LKBx0Qy5V4qRLMkWyUKuXLTrlT4DRC6qDJPfPAcOxhkV/JsX1FuKm/RgYZmo1rMpRdFX2sPhbYAej6r/suzOT9uJOu76mSUikxe8vvGBanziV+m4RExjTvYMnDCBj8ULNx8Gi3krJo1p0LP36AFi79AMuUzC4apVuPNdRtYccDKi/JNWnFrRRVdNlskg3diLsD6umvWIDf1wqzZSK50yH3ZwQuJc3yIkb3CTeQxsM/8I7GHB2G2gfIQKhxSahSh7WiHLftyrehp8Js8c0ELiuVLggINLKf5t6EKJtp8RaP5FQVFZN90B1C07REeqUiFXHDKInfuRYUHl/PO42WVlwVRUpHrtZ/CoxpmH5WTRom2N1IF0c7cfrdf0l/dmPwt/aFc+vT0isMgk40NIKH2Xi8JEQYy6+3tU5LMUsexZDj0OljdIb4QPohoWhLOK7F+JZZ8B82UzXcq2Xfe1Uo207YNl62iTvR8xd7X8ZlkgrUhEKdNFYsYX+Hlwilf+6mewmT5RRmLXddgKa4iFpYdD5aQFnePSgBisjRGJIxTPZKKE49Sc4ED0dCmicU4J8WgGsObixydZBVzMowVa5RhLAYK4U6a9sl0Rog9ZtMjkm2aa6mgXnNslswWuhjv/ugzEFURLb6YoxPIrMjUa0UxFq2SAv5qwRKfFN1DR6uaZmfDCkElrWYTlha1KarE65K3pLIiahaf3hJGqxdKFqSoVAg8EpuRKnMTI9nAhp3VBMUn84s0RfK6e9Z4Au4WxhfsHEwzaI6BfZYj5EF46wZVng19sU6B1k8IKPKkXrizPQdr8YyZOGobLDVVVrDz3RjCo7Kd0rV4zm3m3hQPrGLR1CPS2OTw7JX2PcIjlQzmrSSc2QvPVXzGJ1ZUzE4hGeTxsszauNIpReU+V9HsJk9JDSOBtRE0VKyEIKrGo2dX1vXynr5fqnxkQ1aqEnJMfWz897XtUiV/i+kwMiEoayzri7yQyDkNUncIE+ED07UcJ4ShfhTBJZ7ClayF8VOtPNpwkYxkhscrUkgyCJ1cLbBVQ6woNmA9rW3DJVIzZUp8dAwgHlgKM31XLdI8tGKqWlx5EJ60B0sIpsbAI7dvjMhT+/A8RShUPIi1khrBJFNZcJ60Eca4A0FEq2AeV2NDUbNMw8GgOPkyTOU7v6KxSbaRDWHOYgAMFEmaLtTe0LDTrk55PP0sRBX1WWz6l9nlTK7AFugZK8ElBMCffFG3c7N0k/aRZJ2fWLACT+nIZ6NWzC7PJhOJ5EI6V9DJunfRUXEPG4nysuZ0h79hMikGK0ysLZffLBjJSfniN1ma/CNJ2tYM+SbM5JJ8ym+5X8uvSyGlrEEIZWqPWcteld7SYtO/zKkOJk95GjykzYs8iLB8gSx8hOUU8DVIzKBBQB/Fg6fFImSDVLB0xfTI6aMXTDiw0mYAQOnzLPlSntKkeeljplpfgWABPcIjVXLHo+aT/h5FhQcXTrG21yyIkopcmOG5d+HhKTnGY1Un7E4oomps/PyjzVKlvPXib8eEnGTWqTtvKuU3d0+TF/96vmWaDbS8JcNRr/3VHeIL7ltyHdJIFfWTd6sbIVXcvg2XrVL96PiKHIx9R67r+fQCabdnlzP5IuwotBVVUPtEk66ShGj9VE9hslzC1SLNg8immho0HoRHwlkqr5gs9CzwduHdDnJTegc/eedWmhKSP0IQ6DgTsNZDWghFgkG+q7lpmAmkdRwuiVfgSzGfHFRs45TsC5KnW8Xr7V18HqIqFuOb9cBt59h6JOUmlEKHwWrTUr4ZtkVsjq3sEad1g1fgbGapTItiD56wFmj+3HhFvQNviH5duFMeQeUvkNz5y4JcfG2umZWGSfZFU1VafNpMfiuiEXbqHeOjd9YgNzanXbPc8z10ZgdxB7coqrRFqqoSIJIJe2pzS2yppBKrLG1oG0AMUABTmSskL06nlhd+mSbllj83vcvnHcS8szrxKgqKSMh0JxyP8EhFKuSClSkw2EdR4cHlDPJ4GUMWRElFxuuz8PCUHONx1DqhiKo2RqqiY1M3X+/DcnVx4Tj3Fx0bl+GIa6+6Y1KlvOYZfpS2DsBNOhHDCx64usGWb/NERRBg7qtaubfhomTITnR/RQ4JRcDUxkpfJLjZ4hX72sdqJ4FgH0DMG5LqCSabvhfx6ssS4rkS6ZILtbjyILyacJbKKxpphY07agzGfUs22SOHenR5YXmOL03mUfrMuxGjkvrlheVZZS1sNQtLn+lYhapioRzqGbKEjG9Qg7m9eiHDVlfx7Mi2kQ2AMgpNk8UAb5Y4TBqDqYLwaBXLA90cfFEFG+XUlU90nZupsaCMqPuqOaGTyMgw+K+aYwt+Z6iUgsXs8rUW0WxEFWs+RIHgHjZcwquF0x14wzwkdg50He90eRTgWh9ZgN/3yC5zraCWIRIJpKkOyXDDlcDKTbr6UEUdAUKNYtrInVT+fGRN1CepUdAodtYIwgZDkqqRhHCwpQ3ymzUgWiuS9WBiG6ZYf+paPBQ+EbZV2/Q1yxTG7iODuZOWl4iBVVRiin2E8opUVtj48nbFO4BdFBTBynQnFI/QrT3m+VBuDUnaR1HhwWU4wlh6E4KopVTkCy68Cw8JxlNS35XSdRRVyUyxUn7/AAaKYFjoZ7rw3N/uP4h25t6Hcmn36ZVJceGmimwsoQNU89KQlWWASrwlVT2aWY+6I5U3BocP6fABaRjThe3OnB7b8Gsso+RBxH7qCNsoR4LQt7yaLO82XJQMbob3KzwkcTQUAVVU0TaGS0M5MOmYYTl4g9ROo5wIWiQA3+brXD2paFMSpRwEFu96pA4cgpGCpWFYxOjB4KZngZcyJcVZy4vt52Qlq2AmALJRPR95Zwv5SYxGWkaMJFHVSMpWaXhBAdXrDWMWiGpWckgEORRHuIzHpEU0j1IhNUsGPdgU1SimjTsi5hYvei2qaPfYrOv5bC6foT+QzCEpWVJuiipGQFB/NGs7dEpuMVOEc6iqpi1+LDY2VUNn8Mg4cG6HBBfTfLTMcjWjUdHQJFWDpAUjHM1GNb88m0gmZpfJUh9wcruiihSURrWYWSAmZYsw+w/zzGC2kt+IVxbowkPYf+pUUCizRq2Yyxay9OwJDlh5xXSTzYryUfTFTAGG0B0lBbzunjVysgg9AFbPpxcTiTnmkGZdHG8mOXiOTLkaDiZwuIm8tPjMGmvf5G26JAZPtkYbQUDRIzb4MarS6qmc/RkT3EjyLodZLWQWSFnK0nJLShIEo7tiSKmAgr3AYDfZSU68q1DmLyDzIgYSj+lOiB5xE1VG7tiEi7WocL/RzNL/hbHSx6ZSSmWA9Fgaj8JjU0LkFOFaiBLLxd/Pdssl/e29qz/9MHn60vzzYqXs/0iF6NjUlbWPxlKqs3fe6OW9jZWTzqrIYsA4PVuBLMlyPklBvKUWTsKK1gZoHG3qjkYFUaNWzNCqJzdnFDWvnuRkOnJWM7SVBfM5Vey8NWsQ5i+vaiWZSZZVWNtwUz/BC3bTZ7PP1i/Xd0gDy+OHY/aU6iOVLlb76qR20jYZehXRzvODr1yqJ09Uz5G1IrTZYmmyhHh5l9I1N2jWjMss54wG0zj3x9IkWgq8pZyIOHdyy3OJxGI6D4toyMZ3aptaW72bJqMh3cmRvnJBipGmzmNkeWffF43GLUJHA2EZleAD89Fk/z4/XIlkjcdErr0KEncraZYSxClGD+ZNSZjhcdFrUcV3VJJVY7wz4JAU05WbvDCywjFjWYNYLazKY1EqL5vgeXriIitbXEJRA+j2flgwo0mHpNF1buQwray8HFuxE9LlxhrZUe/QN3KrsItOrJ6DU7r4K/wFURmcsyAK1k5aGtoRL/ILcUia+MbJDVdYWW7G5rLmdfo7aUfUPrJGkosv5E1rSKsFOBmcW3vOzsHsOyI3kbMyzn9zzxqrn/wgFvF6xJWtEQxsA8cIn0kX/Du6Kbz60QKzoZbbWIIf/8ljruvyWfw864bLREERCZnuhOMRHqlIhVxwa/hNS+7IyXNGUeHBDeOta3utpZRHbrzlWXgshhnvstiEKLFeTFwlg1Ul9vfx8d2nW+2cU7WS931OlTGgBZv+fC3J4vVFpuRWd8hhiUrVa1TzKd6ciUhis2lyejcpg416tbCaoM2kLEdic2qQJA8iIvGqVja1Tm3DWXcoHezs+Yrs6Bm1fW1U8wswjCfnQg5PmnpTUwe1UwrjVT0jmjgAl9bf+k56lU5dMSy+6pE145qNT0kPxm3jVcuALx45X1jihLaGh+dR8iS8865ZPV7XpV934DEKI8UAGD/hk+pJMoEqwojjr+RTjXhMNJhXqbC4FZolKQmeZSPRoHfaE1VhmULOTnE4Wcp3EiSOhXRmec7jVAUWYXwmMbecSS+QcxGC4oN308uz7EiFoK+bwhtlgmYhvZAkEXtn3CELUFPZGQHukcTPJVrJPhwT5Qt1kKyRzC+mM8uzlkMTGArPAHJmW80ax+7AVk4ipGvPchufIetqfZcKU+kyfQzVIz4IeOaOAzfZKX3048pAZcNi9vCI6w8qT54+c+Hi+QszJ/2fhhBGvZWQAAAU1klEQVRsLMrQT1ZV5//O8IjzDyq784mfSyyk0wv+W2CjFDm6jwWR/Eiwe1Qrr9ICB9nwRTk0aa9XZAPI6ySjTi2MpWBoZMFzkjR1s45wvKonbBFot7OwybgWP5cg7cIiP9lHzmmr1wHj9Mq7t8cdy4+NLwJkyqtUeLu1HcP6Q1S1R7Cd/PfBuz5aqCB8YF7LmL7saQZDzlpP8xKgSvexnegRGz9+d+Sof+3StyG/O3I0/IKXyu5U63pWXjkUoUMK9QI7hYgFMcYgxZIjm/PnwrcwSNuIqSOBLhBAUWXTyHaBu5REuP3c/0mls9l0Sjk7uGftTrhZ67mnPgMD0CM2Tjxw4OCg/6by6InvDxw4KLUqNtls5ek0nL/WrIlfkYqzH4kz1hQbQdiviklBetbyhJR9tB8JBCeAoqrn1e8z7uc+46z1vNi0ZgB6xJ7boA9WffevI61oJh8dRnyB/V49X9dHVjXtpOWxK4cgytiVPfYO2YzRIoEeEkBR1fPaDucfuBx/4KPh62EBck36M85az4tNawagR+y5RSJfHY+O9e3Unrthx0ZPaJGvXGuifa79vhK/vJwr0r2txXw6Zbfi0xKkvRQHuNHDjH/pBFBUfeklwG/Dis0cEvisCUQiXw0dHXGXL334dGh4JNJRRfVZOx1bPyQQOgEUVSiqkAASQAKMwOHD3w4dHR45NtqH+kk2aeTY6JGhkcOHvw29S8AIkQASaIcAiirsTpAAEkACSAAJIAEkEAIBFFUhQGxH1eK7SAAJIAEkgASQwOdBAEUViiokgASQABJAAkgACYRAAEVVCBA/D32NuUACSAAJIAEkgATaIYCiCkUVEkACSAAJIAEkgARCIICiKgSI7ahafBcJIAEkgASQABL4PAigqEJRhQSQABJAAkgACSCBEAigqAoB4uehrzEXSAAJIAEkgASQQDsEUFShqEICSAAJIAEkgASQQAgEUFSFALEdVYvvIgEkgASQABJAAp8HARRVKKqQQIsEvv76myND5CdNRk98L/+EiOl69MT38KMiR7/++puWW41uptWyke28+NlnsB04+C4SQAKDQgBFVYsd6qA4GO3sBIFI5KsjLf347tDREU37KpBJ3UwrkGFhBf7sMxgWKIwHCSCB/ieAoqozoio+l92p1RuNRqNeWOhMEtKvxy/kdF3PLUh3+r/kDa6FBw8dOjZ6wjQc5f/jsdETBw4e8pn9bqbl06TAwVjptK8Fn0MGsd4hASSABDgBFFX2bX3gnoMDhRcv52tN8o+Iqoae6UQSSpwZvdls6hnFBiVAe9nBqBQCR4aG/Uso25BHhoZ9eqSbafk0KXAwVjoVhiKSzyGDWO+QABJAApzA5yqqplPpbDadmub5FI14Ny5mC/Vms7mTjnUi9cvL2Wx2+bLSRaGo6oZbwZuHvv7GVicFvXnIx/qqbqbVQYDOouozyWAnqjnGiQSQwGAS+FxFVYromnoh1ROvQC9SzcY60lHZdVEoqjqC2q7wHB0+HlQ/2YY/Onzc02aHtP5Ob+SfrFy0jdb2pp+0PI1pPYBdiaWxOWRw3DYXLjd7nEG7ctI6LowNCSCBQSaAokoZ8gmnKXTuRUKI3y5yFFUhgPVXjY8dj7r07v4fHTse9bTZIa2V9Up5a+3PcNPyNKb1AHYllsbmkMHAosoPzNbt91cwMH4kgASQgKZF2hdVscRyjq3JbtRren41YYzQ2C2gTmaKul7MJGhTlSCfcguxxGpeJ+u6q/nZiLaQ29H1wuq06qHp1YKu7/Dl2PG5TEGnS8F5skweQZRVMgHXrFd1HRIjj1o0BuwE+3hq1WJuOekwtbdIlozXGmQ9VY2kbeRUi5hIFTJzcam9JuYVMwmxwn0nrWY/ommWyHOLNAwXVecWuCvqtZ3sbNwUg+9cAEmFcLWYVawlMcfnssUqLMYnHjBlhwSIJVfzzEfMHuZu6im1JDAUkEeeL7DfYrVUwDQeYXxWbAyo7diZmilA+SI7B1rKC/fU8eiYfzXjEvJ4dMzkHetHh7QCiyo/aUHq8VlLpZKsIq4pZpKirjYadajurN6xkKrTSU1xFlUOGQwsqnxnUDWV+1TKIwZAAkgACbRFoE1RdW61COqFLsluEDEBs25MV/HOXjZRnZiDT1VdhzcbDTJjF9Gms9Vms1nNKSui6E26UGkmQ19oNupV0q2LZElCECXcYf9BnFqkRWO0yEx6h2VSSq1WSNnpKkjElDi03UYksHqdmtzQMzO8ZSdv1nUdUmo0GmTdOX/ELyyR8zDwoLoDUOTod1YNgWsY4J2LiMYJE7mk11j29YzwSCyVB+nYbNRr1Vrdmh0txv1ADSIhGnqBkOQr99WSwDILWeH50rRzjuxpeIijRsuPlPN6cVl4JzabqzL7IAR4RybvnRfJES46iT6aODVz/sLF//zorQy4W+XaoVw7pGWIqhDT0rRzTpWK2wkltAolVELdrGZFGbZ3+g6pzdzpfjIooZs8febCxfNnT0+MSTftrrmRSvx4EwkgASTQZQJtiapp6AEbejYRY21ZfAHWaDeKdHs/7yHllk7tSlnP26jm6EBILEaiol9uq7lp40VDU2mR1Z0G6aGzYriIJVvLJzk+NRXoFFs0hmVyJy0GSOKLPJOGeTxduMNSkp6ySKo5MXoUS2ZBA9Xyl+m78FKzWS/Sob5YzNBDHpEzvdhs1g0j4wugdmt5NiIYMBd0qX01e44nfQ50bi2foJmibqsVFvhgGM9ONUvHF2PLRSJk6oVFPhoXS9AMG/2rjY80jXsJXCZZzWCaCpjGy49RGOKLkPNqlhUeGqLubKpnXiQ/ahEHoQNd/tnUkw/7pUqZ/m29Xrq3US5trDi9wtkq8cs3HV6komrp3jsjreLrpTN2UkPEIEdrf80rlbkuiyJEXSP7NJaEUtEoskND/Dhdyawwz+Zi8uLN1x8FzFLl48ulGZtgPNf2mZLUMAZAAkgACXSBQDuiih4csJPmioqau1yoN+p6Fnpf3kPKLanalbIeLWd82YV2MJbeYWNVrFmczpGvuzur5GNs+vJyNrMsRk1IunyOgSNTU4FIWjMGMtmQh3xIEiAZGsVlnpycwQgXBsZNQUoJT/sgRYBaEmLZN6KyRq4xUWV6lxJj5ywEzQXgaxSXpXTj5xK/TNPhH+qdWk5ILghGE6Tji9QdRDBKMWj0PTFoYeMjVVQJq+VIIpw93KTlR8+IcSlNi4AiZMYzU7lyZfynszo5QIxMnnrnRcmCi6j6Lf2hTPr+lWvnL1y8NP/0vQ7qqjOiqlQp7314eiN58fyF5I21zb1Kubh2zWU4Ryl4ao7oI16pZNSiUtGbUIFMmz/gHvG5qIMeTpfjd4E5deP1fqmy/+ZR6tKFi+eT86BWt5/84The5ZlBDIAEkAAS6AKBNkSV6LXt2mhquk8dQxpqcySrXFVBKwxpNYpsCZEIHJ9JJhLnYCwEeldj2simw27JGJrJWjFr+lckB1EZySldhUX3CFJqMI3qAzb8Y2eeOTzJOAunPLJ9V7oZPBcLMNDUrOv5zPLsL9Mm3UweNvS8iUmeDL3RTheET70wJzxFL2IwssFngmx8pIgqD6uBgIhDLj8SImbIrIJLtopKNLe8yDE7j1RNLL3aq+y/XJoSoykTV59uVTo1UlXafX59UiiMqesvtkuV/C3jjnjELuQse1zHzyUSyZk4IcYrFaXHC5QMRObvy+mKIwQr88WvmWKl/P7Rb8b9yaWX+n5xLWXc4WNU9I5HpmSb8RoJIAEk0DECbYgquT11sI83w3JLKl6Dm+KTJQZootkMYIIcpilmGWAFdIGtk2HrlxqwrMdQOSJeI+mWjIF45DVS8rWRnJEKadylTh3aehtjaB/AH5DX7cxTo6WIzJE7vitF2EIuYol0ka6aojlu1PUcn+yDmGUQ0jUVVXZGkiyDIX5FlYfVAIcTpDzZ/1LqEgQ7mGLmVMqBcWkalQH+Tp36lbXtkv7qhtLTX3uy2ylRtfdClRep50TSzZu1lLBW4WOpa/A0llh1qlQUHWcpvy7zl7ArySlOV7wgzDNdnHywWaps3jvlmB1T+OjYuJKibCFeIwEkgAS6SKANUQWzLHaDTEa7yZth445G+1XRXcmNsinbMFgCy6SSRFMZ0woxWP5BRlHSC8lEIjm7nMkXYbufoXJEvEbSLRkz18p5V+beBSIhk4WGMbQP4FaS+3bmmcOTt8yRO74rRdhSLsDa+ExyIZ3N71B9JS/5r2bV4SulV4O0bU7qgvFHv6LKRwEzSpPMVkLEDbEjCa94BlDy5TxSdWujXNp9+rsiquK333VKVJmPVPiDjIqtrziqEFMurB+lSrWYSCQTSqWi9BhW5V1egslNjlIJoEU0xemKI6zaiN75fQ0G3hSYjlmjr5gTlcsDXiMBJIAEukWgDVFFG0tD67Dmcjq1vMAX39BmVl5vrtHlSH5ElbZIZplq+QQsrSHpMCgQqyldPrHEw4jG3mjEWzOGT0Ma8ZAkyDJy9Y78EVLi0oEEg0hqefUYdE3j04KgTthLcjy215bInQSZHGEruVDzSDtdqqHZwKG84oqYSjcZABYegruDsaJryzgZ8JFJa3Ik8CK3WuWgLOEXfpbDSIjAEDjcXg6gXV5YnqMzXNxSkzelvCgvOi4Dshup+rNzI1Vba9cURdL2SBUwMxVRUakoHF6gZCAyf47S1ekKZyULkoQ6/whHqhRQJqT4EQkggb4l0I6oomt8GztpvgWMtLbQypJejDQK4oPIP/9CzM86lxtlubGGa3hYK5L1S2LfWYQtu1FF1QysY5cWOYl4jbapNWNYJqUt+poWgeQaxbQRucgguZA6dXqf5lrexk+WSMMEp/g1G95lOcQp4EA40yCQ7bvyzYC5+D/sTIsZyRjAx9bmU3FUVbYX0OxUc1T7ihBSDPE02bVp7P6jfbbSkdPXuB8lq0X2tXPE1Y1imt4RfjYCqPxpjLX8rDSuRjcVMpkuLJViUPMiZcF5pGpiJV+qbD9LGWuqorAwyGv3H/zqUHZZXdHPUnTQHGT3n92aqre3nefLSDkUSUk5FeUWSoviC82oVNQeXqDk1xX+AqVEzOx06ZEzzOhfz7cq5fcPpO1+k0svdz++dD5HHjISn01nM45nyClJi4zjBRJAAkggRALtiCpxmlG9WsgskGm4LF2GY8wJ0vXOjVoxs5hIzC3n9Do50YovZ+aLbIzwcntNugH2w8RNslNftIn0dIVmfYckmkgsZkiqcFiVMf1HNy6RKcJsLv//t3c2rU0tYRz/EDneliI1TVPT2GQlVySrIkpETEUpF0k2IpZkdTb3ZHkXgYsWlLORgHAWRRcSF97goiDaixBaSlbuusrOLyLzmpnz0pwk07w0/66mxznzPM9v5pz5e2bmaZPtUx7RGZ6/R6w21pttutR41raVeVrrEj77SIctmQSo1z30GjXiM2uEJPnh1cSUpd4VVmbasPfz8IPX9vaZ3dB79YvDRVFkOYt63bZLFoOqtOeIlmmwRA88CVXvJwunRvK/0s3rTREOV8804Gq54rCAeS/xuERHdj4wJsF+5OmyKPtypcxbIbvh+ZdCbVIXuDT+0tUjZsVtsUxLnSbPuSArRMaidm6E0Mlt3nj29uvJcefLu78r2zcL9168/Ph/jNN/TFhrw1tEEak5qKg6Pfnx3+vnxcLm7fvP33z+cXry7cA+//Rf31T/UerbEn1x1KRL6o72ULFqYkCpt+v843R6PJilf0nCiO8fX+3du527Vdyj+SO+uH9FLgKSZqmD+n/A+gGqdlEGARAAgQsiMJ6oSlj5qsfyVYrtvb1ue1/Jj5C3W+qO8l63ZXsky2WsL1WJBN1N9YtqKvVVXtqnp+/6NlsOzR3VF1VS8LFkpOzdOqoz+ZovSJIRSqiHkI7RJnXxWs9XRB5L4fZZx6v2k1GJKUvUV+PVynm7TY4ekh8Rb+i9/ovDRRHo2F9nHa+mLHruBLY1d1t2PxzyPU8PuNdtOaTvZUoFojX1KmdH7j7ZxCbiIt/z/AOMspdA9Emd94Wff8BVnXwiEahAxqkWi+zlaFGV23z4z3smpGiqqsMDe2CeKqaQSUZbGZFSiLBF81QdvHz3lSfEOj49+fbp9dPoo390H7c0FTXAdgIPVZ1mneNZObSDmdLJAP+QTuethNiNCJAqp5t7rpL06/j0++A8VSzEnpTLIRZDOeMiCIAACJgiMK6oon7ki7sVx202qvwktt+5wk7ZcV0n4l/lC3q4AjPqOjylQugLlNQpl9TVSSsxqjP54m6ZBFnzNziU24UdsgXYrcucT35WMVsj5979mQ7iNDVkFIVSudZouk6UrYHhEHt1161zaH65Q3otX9ytNtxg4gYlnEEDLA60ga4OrECtrKfP/4PKf24/fPLo8ZMHd5R1QGW3kJQR6+nrfK1cJCpT4uWD2aQtKjiCSUl8RtnwGPtRLZTUTo/unUEB5m4VCcxHj0vb50pGCpNCKxR96T98AeJXEAABELhQAkZEVaigwUUQCBAIE1UXOr6NN76aTElhNE5hNZliq9vKCQw/LoO26EK6vmUqWusYhxbVoMEAo0zgOgiAAAhMkgBElX8mmyT9hbM1/6JqaWk5k90aR05t3shlslt/LC1v267nubbyt5h848Gcrbvc1AwIKTVGcwEuq82iDAIgAALTIgBRBVE1QQLzL6oSCWv1WnJMUbV6LRnzgZ+krZguma126QM0iwutgQAIzDgBiKoJSooZ+04whaFJT/U3/Pm65qwLLMvayGRH1lUbmaxlXYkJf5K2YrpkttqlD9AsLrQGAiAw4wQgquZsRp/x8bQw7l1ZS6VH0FXJVHp4RJO0NZXH4dIHOBWqMAoCIDAFAhBVU4A+/LQKJ2eRwMrK1eRaKr2ROX+XVSa7ld7IJNfWV1aujtz1k7Q1spPj3HjpAxwHDu4FARCYFwIQVbM4W8/L6IGfIAACIAACIAACkgBEFUQVCIAACIAACIAACBggAFFlAKKUqCiAAAiAAAiAAAgsLAGIKogqEAABEAABEAABEDBAAKLKAMSFleQIHARAAARAAARAQBKAqIKoAgEQAAEQAAEQAAEDBCCqDECUEhUFEAABEAABEACBhSXwGwgO/N6oiudcAAAAAElFTkSuQmCC;" vertex="1" parent="1">
                    <mxGeometry x="563" y="641.69" width="414.11" height="134.22" as="geometry"/>
                </mxCell>
                <mxCell id="107" value="Example" style="text;html=1;strokeColor=none;fillColor=none;align=center;verticalAlign=middle;whiteSpace=wrap;rounded=0;" vertex="1" parent="1">
                    <mxGeometry x="694" y="599.57" width="60" height="30" as="geometry"/>
                </mxCell>
            </root>
        </mxGraphModel>
    </diagram>
</mxfile>